<svg xmlns="http://www.w3.org/2000/svg" viewBox="0 0 259.12 230.09"><defs><style>.cls-1{fill:#252a32;}.cls-2{fill:#0a0d10;}.cls-3{fill:none;}</style></defs><g id="Camada_4" data-name="Camada 4"><path class="cls-1" d="M172.8,101.54c4.5-8.38,16.26-2.11,22.24.49,7.39,3.22,15.07,6,23.07,7.18,12.95,1.86,28.19-1.54,35.86-13,6.33-9.49,7.38-24,0-33.3-9.15-11.45-25.37-9.45-38.19-8.36-8.37.71-17.1.93-24.6-3.45-4-2.31-7.35-5.82-7.95-10.55-.62-4.89.71-10,.57-14.91-.16-5.32-4.42-5.43-4.26,0,.21,7.39-1.69,14.7.55,22a21.62,21.62,0,0,0,10,12.18c13,7.57,27.88,2.24,41.87,2.81,6.7.27,14.15,1.94,18.94,7,5.28,5.57,4.76,13.4.58,19.45-8.92,12.93-27.34,13.37-41,9.6-8.26-2.28-15.67-6.74-23.84-9.16-6.66-2-13.35-.69-16.8,5.76-1.28,2.39.67,10.73,3,6.36Z"/><path class="cls-1" d="M108.36,40.53c3.87-8.29,13.35-6.32,20.37-4.51,5.94,1.54,12.28,1.82,17.49-2,6.75-5,6.1-14.42,4.35-21.68-.4-1.68-1.44-2.66-2.91-1.61s-1.11,4.71-.77,6.15c.58,2.38,1.16,4.81-.33,7-2.95,4.25-9.79,5-14.37,4.12-5.67-1.06-11.43-3.94-17.27-2.2a16.17,16.17,0,0,0-9.57,8.46c-.82,1.74-1,4.66,0,6.36.89,1.45,2.17,1.8,3,0Z"/><path class="cls-1" d="M181.11,18.43a2,2,0,0,1-2-1.75L177.44,3.11a2,2,0,1,1,4-.5l1.7,13.58a2,2,0,0,1-1.74,2.23Z"/><path class="cls-1" d="M174.79,21.5a2,2,0,0,1-1.23-.42l-6.22-4.85a2,2,0,1,1,2.45-3.15L176,17.92a2,2,0,0,1,.35,2.81A2,2,0,0,1,174.79,21.5Z"/><path class="cls-1" d="M187.75,20.73a2,2,0,0,1-1.58-3.23L191,11.27a2,2,0,1,1,3.15,2.46L189.33,20A2,2,0,0,1,187.75,20.73Z"/><path class="cls-1" d="M152.84,9.34a1.5,1.5,0,0,1-1-2.63l5.62-4.92a1.5,1.5,0,1,1,2,2.26L153.83,9A1.52,1.52,0,0,1,152.84,9.34Z"/><path class="cls-1" d="M158.65,13.64h-.1l-4.46-.3a1.5,1.5,0,0,1-1.4-1.59,1.51,1.51,0,0,1,1.6-1.4l4.46.3a1.5,1.5,0,0,1-.1,3Z"/><path class="cls-1" d="M149.05,7.46H149a1.51,1.51,0,0,1-1.4-1.6l.3-4.46a1.5,1.5,0,0,1,3,.2l-.3,4.46A1.5,1.5,0,0,1,149.05,7.46Z"/><path class="cls-1" d="M145.05,8.81a1.49,1.49,0,0,1-1.13-.51l-4.38-5a1.5,1.5,0,1,1,2.26-2l4.38,5a1.5,1.5,0,0,1-1.13,2.49Z"/><ellipse class="cls-2" cx="129.56" cy="223.93" rx="81.15" ry="6.16"/><path class="cls-3" d="M57.24,116A3,3,0,1,0,53,120.22l33.94,33.94a3,3,0,0,0,4.24-4.24Z"/><path class="cls-3" d="M95.74,48.47a5.76,5.76,0,1,0,0-8.15A5.75,5.75,0,0,0,95.74,48.47Z"/><path class="cls-3" d="M78.2,91a17.64,17.64,0,1,0-25,0A17.66,17.66,0,0,0,78.2,91ZM57.5,70.25a11.64,11.64,0,1,1,0,16.46A11.66,11.66,0,0,1,57.5,70.25Z"/><path class="cls-3" d="M166.84,111.43a5.76,5.76,0,1,0-8.14,0A5.76,5.76,0,0,0,166.84,111.43Z"/><path class="cls-3" d="M116.22,129a17.64,17.64,0,1,0,24.94,0A17.66,17.66,0,0,0,116.22,129Zm20.7,20.71a11.64,11.64,0,1,1,0-16.46A11.65,11.65,0,0,1,136.92,149.67Z"/><path class="cls-1" d="M162.43,124l22.33-12.28L95.47,22.4,83.18,44.74Zm-3.73-20.7a5.76,5.76,0,1,1,0,8.15A5.75,5.75,0,0,1,158.7,103.28Zm-63-63a5.76,5.76,0,1,1,0,8.15A5.75,5.75,0,0,1,95.74,40.32Z"/><path class="cls-1" d="M74,86.71a11.64,11.64,0,1,0-16.46,0A11.66,11.66,0,0,0,74,86.71Z"/><path class="cls-1" d="M120.46,133.21a11.64,11.64,0,1,0,16.46,0A11.65,11.65,0,0,0,120.46,133.21Z"/><path class="cls-3" d="M57.24,116A3,3,0,1,0,53,120.22l33.94,33.94a3,3,0,0,0,4.24-4.24Z"/><path class="cls-3" d="M78.2,91a17.64,17.64,0,1,0-25,0A17.66,17.66,0,0,0,78.2,91Z"/><path class="cls-3" d="M116.22,129a17.64,17.64,0,1,0,24.94,0A17.66,17.66,0,0,0,116.22,129Z"/><path class="cls-2" d="M197.65,124.58l-8.73-8.73a2.91,2.91,0,0,1-1,1l-26.5,14.58L75.75,45.79l14.58-26.5a3,3,0,0,1,1-1L82.59,9.52a10.8,10.8,0,0,0-15.28,0L3.16,73.67a10.81,10.81,0,0,0,0,15.27L118.22,204a10.8,10.8,0,0,0,15.28,0l64.15-64.15A10.81,10.81,0,0,0,197.65,124.58ZM116.22,129a17.64,17.64,0,1,1,0,24.95A17.67,17.67,0,0,1,116.22,129Zm-63-63a17.64,17.64,0,1,1,0,25A17.66,17.66,0,0,1,53.25,66Zm37.93,88.16a3,3,0,0,1-4.24,0L53,120.22A3,3,0,1,1,57.24,116l33.94,33.94A3,3,0,0,1,91.18,154.16Z"/></g></svg>