<svg xmlns="http://www.w3.org/2000/svg" viewBox="0 0 707.71 517.89"><defs><style>.cls-1{fill:#f2f2f2;}.cls-2{fill:#221b8e;}.cls-3{fill:#090b0d;}</style></defs><g id="Camada_5" data-name="Camada 5"><path class="cls-1" d="M148.46,354.94h33.81q16.5,0,24.22,8.85t6.83,25.93l-4,71.17q-1,17.08-10.36,25.93t-27.36,8.85H135Zm24.21,120.62q5.84,0,9.18-3.21t3.85-10.46l5.09-73.17q.51-7.25-2.23-10.46t-8.22-3.21H168.93L160.6,475.56Z"/><path class="cls-1" d="M435.46,354.94H494l1.16,20.11H458.32l1.41,39.2h29.59l1.06,20.1H460.45l2.2,61.32h-24Z"/><path class="cls-1" d="M504.7,354.94h22.14l9.27,120.62h39l2,20.11H513.67Z"/><path class="cls-1" d="M573.94,354.94h22.13l16.58,140.73h-24Z"/><path class="cls-1" d="M641.66,423.7l-33.91-68.76h23.34l21.59,45.44h.41l8.6-45.44h20.93L668.89,423.7l38.82,72H682.42l-24.63-49.06h-.42l-10.71,49.06H624Z"/><path class="cls-2" d="M424.85,425.3a81,81,0,1,0-81,81A81,81,0,0,0,424.85,425.3Zm-36.73-34a19.69,19.69,0,1,1-19.8,19.77A19.64,19.64,0,0,1,388.12,391.3ZM344,359.17a19.64,19.64,0,1,1-19.84,19.66A19.64,19.64,0,0,1,344,359.17Zm20.5,61.17a5.08,5.08,0,0,1-10.15-.14,5.08,5.08,0,0,1,10.15.14Zm-15.7-11.42a5,5,0,1,1-10-.06,5,5,0,1,1,10,.06Zm-20.58,6.28a5,5,0,1,1-5.13,5A5.1,5.1,0,0,1,328.22,415.2Zm-48.34-4.33a19.69,19.69,0,1,1,19.53,19.8A19.74,19.74,0,0,1,279.88,410.87Zm36.64,71.77A19.67,19.67,0,1,1,336.07,463,19.76,19.76,0,0,1,316.52,482.64Zm17.57-39a5,5,0,1,1,.05-10,5,5,0,0,1-.05,10Zm2.36-18.24a7.35,7.35,0,1,1,7.42,7.24A7.29,7.29,0,0,1,336.45,425.4Zm11.94,13.28a5,5,0,1,1,5.08,5A5,5,0,0,1,348.39,438.68Zm23,44a19.67,19.67,0,1,1,19.41-19.88A19.65,19.65,0,0,1,371.38,482.64Z"/><path class="cls-1" d="M23.88,354.94H46L24,495.67H0Z"/><polygon class="cls-1" points="112.23 354.94 102.34 439.18 101.92 439.18 90.3 354.94 62.52 354.94 41.86 495.67 63.22 495.67 77.11 392.94 77.52 392.94 92.44 495.67 117.07 495.67 131.96 354.94 112.23 354.94"/><path class="cls-1" d="M329.13,264.8a9.83,9.83,0,0,1-6.81-3.06,7.84,7.84,0,0,1-2.12-5.66,9.24,9.24,0,0,1,5.88-8.42,2.5,2.5,0,0,0-1.71-4.7,14.22,14.22,0,0,0-9.16,12.9,12.17,12.17,0,0,0,0,1.6,31.12,31.12,0,0,1-12.47,5.1c-10.06,1.37-22.13-2.89-25.82-18.94a2.5,2.5,0,0,0-4.87,1.12c3.94,17.17,16.37,23.05,27.29,23.05a30.13,30.13,0,0,0,4.07-.27,35,35,0,0,0,13.29-5.08,13.61,13.61,0,0,0,1.9,2.68,14.82,14.82,0,0,0,10.28,4.67H329a2.5,2.5,0,0,0,.1-5Z"/><path class="cls-2" d="M423,282.13l-.92-.13a5.05,5.05,0,0,1-1.21,4c-6.1,7.3-12.67,14.24-20.72,19.43-7.64,4.93-16.45,7-24.66,10.64,2.69.83,5.37,1.58,8,2.25,4.55,1.13,9,2,13.51,2.84s8.93,1.41,13.36,2q4.26.51,8.51.88a4.8,4.8,0,0,0,5.2-4.32l3-32.4A4.78,4.78,0,0,0,423,282.13Z"/><path class="cls-2" d="M432.77,288.16a4.77,4.77,0,0,1,5.2-4.39q3.46.32,6.94.57,5.89.41,11.8.72t11.8.38c2.41,0,4.83,0,7.24,0a4.78,4.78,0,0,1,4.77,4.46l2,28.93a4.79,4.79,0,0,1-4.32,5.09q-4.32.42-8.62.68-6.62.41-13.2.58t-13.19.07c-2.73-.05-5.47-.12-8.2-.22a4.8,4.8,0,0,1-4.62-5.15Z"/><path class="cls-2" d="M486.24,290.26a4.78,4.78,0,0,1,4.51-5.21c2.14-.13,4.27-.28,6.36-.48q2.77-.27,5.43-.6c1.78-.24,3.71-.47,5.56-.77,3.72-.56,7.45-1.22,11.15-2,2.34-.49,4.66-1,7-1.64a4.77,4.77,0,0,1,5.64,2.83l8.07,20a4.79,4.79,0,0,1-2.4,6.13q-4.15,2-8.41,3.72c-4.24,1.72-8.55,3.29-12.92,4.68-2.21.69-4.35,1.34-6.65,1.95s-4.6,1.12-6.88,1.58c-2.83.57-5.63,1.08-8.42,1.53a4.78,4.78,0,0,1-5.52-4.29Z"/><path class="cls-2" d="M537.63,281.52a4.78,4.78,0,0,1,2.73-6.45,123,123,0,0,0,16.1-7.25c3.35-1.82,6.62-3.78,9.78-5.91,2-1.36,3.9-2.77,5.77-4.25a4.81,4.81,0,0,1,6.37.32l8.25,8.17a4.77,4.77,0,0,1,.17,6.64c-2,2.21-4.15,4.36-6.34,6.42-3.27,3.17-6.71,6.17-10.27,9a168.35,168.35,0,0,1-18.1,12.52,4.79,4.79,0,0,1-6.82-2.16Z"/><path class="cls-2" d="M583.09,254.56a4.8,4.8,0,0,1-.37-6.83c1.49-1.62,2.92-3.29,4.27-5a85.9,85.9,0,0,0,6.41-9.43A84,84,0,0,0,598.47,223c.87-2.14,1.68-4.31,2.39-6.52a4.84,4.84,0,0,1,5.77-3.26l6.33,1.57a4.82,4.82,0,0,1,3.5,5.95q-1.15,4.13-2.59,8.16a130.57,130.57,0,0,1-5.27,12.46A121.36,121.36,0,0,1,602,253.25c-1.5,2.37-3.07,4.66-4.71,6.9a4.8,4.8,0,0,1-7.07.71Z"/><path class="cls-2" d="M607.84,207.57a4.82,4.82,0,0,1-3.92-5.25c.26-2.32.39-4.65.42-7v-3l-.16-2.7-.25-2.82c-.11-.93-.26-1.86-.39-2.78a63.54,63.54,0,0,0-2.69-10.79c-.67-1.87-1.41-3.7-2.23-5.47a4.81,4.81,0,0,1,2.54-6.43l10.73-4.48a4.83,4.83,0,0,1,6.54,3.28c.72,2.81,1.29,5.64,1.72,8.47a105.62,105.62,0,0,1,1.27,13.88l0,3.45-.05,3.43q-.15,3.42-.41,6.82c-.25,2.87-.61,5.73-1.06,8.57a4.81,4.81,0,0,1-5.64,4Z"/><path class="cls-2" d="M597.38,157.11a4.8,4.8,0,0,1-6-1.3,63.2,63.2,0,0,0-4.2-4.83,52.63,52.63,0,0,0-7.43-6.41,42.19,42.19,0,0,0-7.9-4.48c-.59-.24-2.06-.7-3.57-1.14a4.81,4.81,0,0,1-3.39-5.46l3.55-20.19a4.83,4.83,0,0,1,6.11-3.79c1.38.41,2.6.8,3.13,1a52.1,52.1,0,0,1,7.49,3.47,61.51,61.51,0,0,1,12.76,9.5,69.56,69.56,0,0,1,9.67,11.76,73.44,73.44,0,0,1,4.94,8.74,4.83,4.83,0,0,1-2.13,6.41Z"/><path class="cls-2" d="M560.65,133.38a4.72,4.72,0,0,1-4.1,4.63c-1.61.21-3.21.45-3.87.62-1.34.35-2.68.79-4,1.27a41.68,41.68,0,0,0-3.86,1.73,32.92,32.92,0,0,0-6.8,4.65,25.47,25.47,0,0,0-3,3.23A4.67,4.67,0,0,1,529.8,151l-15.89-5.42a4.71,4.71,0,0,1-2.9-6.16,46,46,0,0,1,6.18-11,52,52,0,0,1,12.15-11.52,53.81,53.81,0,0,1,7.16-4.16,52.38,52.38,0,0,1,7.71-3.05,51.23,51.23,0,0,1,8.19-1.88c1.14-.16,2.28-.3,3.44-.4a4.71,4.71,0,0,1,5.06,4.77Z"/><path class="cls-2" d="M527.12,154.78a4.73,4.73,0,0,1,4.15,4.81,17,17,0,0,0,.29,3.43,15.43,15.43,0,0,0,.49,2.09c.19.68.44,1.36.7,2a25.76,25.76,0,0,0,2.19,4.17,51.3,51.3,0,0,0,7,8.36c1.37,1.42,2.81,2.75,4.4,4.25l1.23,1.16a4.73,4.73,0,0,1,.19,6.68l-6,6.29a4.73,4.73,0,0,1-6.55.31l-1.15-1-4.82-4.19a96.73,96.73,0,0,1-10-10,52.43,52.43,0,0,1-4.59-6.31c-.71-1.16-1.38-2.35-2-3.59s-1.16-2.47-1.67-3.77a41.71,41.71,0,0,1-2.72-11.3,4.72,4.72,0,0,1,5.27-5.08Z"/><path class="cls-2" d="M552.07,196.29a4.86,4.86,0,0,1,7,.43,57.52,57.52,0,0,1,5.78,8,41.62,41.62,0,0,1,3.46,7.59,37.49,37.49,0,0,1,1.88,8.4,33.06,33.06,0,0,1-.3,9.27,28.79,28.79,0,0,1-3.51,9.56,30.76,30.76,0,0,1-6.73,7.91c-1,.78-1.93,1.49-2.92,2.15a4.86,4.86,0,0,1-7.21-2.25L543.82,233a4.86,4.86,0,0,1,2.28-6.12,4.47,4.47,0,0,0,.65-.38,5.53,5.53,0,0,0,1.44-1.86,9.5,9.5,0,0,0,.87-3.13,16.25,16.25,0,0,0-1.15-8,26.29,26.29,0,0,0-2.87-5.07,4.82,4.82,0,0,1,.67-6.32Z"/><path class="cls-2" d="M542.87,250.42a4.86,4.86,0,0,1-3.8,5.81l-.87.17-.92.15-.48.07-.66.08c-1.21.13-2.46.24-3.66.34s-2.3.17-3.46.23a135,135,0,0,1-13.94,0,131,131,0,0,1-22.48-3.14,4.85,4.85,0,0,1-3.59-6l5.27-18.76a4.87,4.87,0,0,1,6-3.38,116.53,116.53,0,0,0,17.06,3.23,106.56,106.56,0,0,0,11,.68c.92,0,1.85,0,2.78,0s1.71,0,2.58,0H534a4.86,4.86,0,0,1,5.2,3.79Z"/><path class="cls-2" d="M486.06,221.39q-3.18-1.2-6.37-2.54c-3.58-1.47-7.17-3.06-10.77-4.74-4.23-2-8.47-4-12.75-6.14.61,5.08.11,10.28,0,15.39a61.57,61.57,0,0,1-3.1,16.71c1.11.52,2.22,1,3.34,1.54,4,1.78,8,3.5,12.19,5.12q4,1.53,8.08,2.91a4.87,4.87,0,0,0,6.18-3.11l6.17-19.1A4.85,4.85,0,0,0,486.06,221.39Z"/><polygon class="cls-2" points="457.25 196.34 463.49 199.42 461.29 203.95 454.99 200.8 457.25 196.34"/><polygon class="cls-2" points="467.07 201.13 473.39 204.03 471.31 208.67 464.91 205.7 467.07 201.13"/><polygon class="cls-2" points="477.02 205.63 483.43 208.31 481.49 213.06 474.99 210.31 477.02 205.63"/><polygon class="cls-2" points="487.11 209.76 493.61 212.19 491.85 217.07 485.24 214.57 487.11 209.76"/><polygon class="cls-2" points="497.34 213.49 503.93 215.61 502.39 220.62 495.66 218.41 497.34 213.49"/><polygon class="cls-2" points="507.72 216.72 514.4 218.49 513.12 223.63 506.27 221.78 507.72 216.72"/><path class="cls-2" d="M518.24,219.4c2.24.5,4.45.95,6.62,1.22l-.66,5.3a72.17,72.17,0,0,1-7.14-1.34Z"/><path class="cls-2" d="M528.57,220.87a27.77,27.77,0,0,0,3.2-.09,9.8,9.8,0,0,0,2.65-.55l2,5a15,15,0,0,1-4.17.9,32.65,32.65,0,0,1-3.8.1Z"/><path class="cls-2" d="M536,218.77a7.34,7.34,0,0,0,.46-4.94l5.35-1.05a14.92,14.92,0,0,1,.24,4.25,10.85,10.85,0,0,1-1.34,4.43Z"/><path class="cls-2" d="M535.4,210.7a12.35,12.35,0,0,0-.69-1.24,5.44,5.44,0,0,0-.39-.55l-.46-.59a20.33,20.33,0,0,0-2.16-2.2l3.67-4.1a25.91,25.91,0,0,1,2.72,2.81c.21.26.41.51.62.79s.42.58.61.88a18.14,18.14,0,0,1,1,1.82Z"/><polygon class="cls-2" points="528.78 203.8 523.04 199.79 526.32 195.3 532.04 199.34 528.78 203.8"/><path class="cls-2" d="M519.73,197.18a55.81,55.81,0,0,1-5.27-5.16l4.19-3.73a48.18,48.18,0,0,0,4.71,4.66Z"/><path class="cls-2" d="M511.78,188.78a56.52,56.52,0,0,1-4.1-6.1l4.89-2.84a53.62,53.62,0,0,0,3.68,5.53Z"/><path class="cls-2" d="M505.69,179a59.21,59.21,0,0,1-2.82-6.79l5.4-1.85a52.21,52.21,0,0,0,2.52,6.15Z"/><path class="cls-2" d="M501.64,168.16a55.56,55.56,0,0,1-1.44-7.22l5.71-.75a51.62,51.62,0,0,0,1.27,6.51Z"/><path class="cls-2" d="M499.8,156.74a53.61,53.61,0,0,1,.07-7.39l5.8.47a46.89,46.89,0,0,0-.1,6.6Z"/><path class="cls-2" d="M500.37,145.15A55.24,55.24,0,0,1,502,138l5.61,1.71a49,49,0,0,0-1.51,6.42Z"/><path class="cls-2" d="M503.4,134a58.76,58.76,0,0,1,3.1-6.69l5.2,2.83a49.59,49.59,0,0,0-2.81,6Z"/><path class="cls-2" d="M508.64,123.64a58.75,58.75,0,0,1,4.34-6l4.59,3.82a52.37,52.37,0,0,0-3.93,5.34Z"/><path class="cls-2" d="M515.79,114.54a59.67,59.67,0,0,1,5.43-5l3.78,4.69a53,53,0,0,0-4.9,4.46Z"/><path class="cls-2" d="M524.61,107a54.86,54.86,0,0,1,6.35-3.79l2.74,5.42A47.66,47.66,0,0,0,528,112Z"/><path class="cls-2" d="M534.82,101.46a54.47,54.47,0,0,1,7-2.36l1.56,5.93a48.3,48.3,0,0,0-6.26,2.07Z"/><path class="cls-2" d="M546,98.17a60.09,60.09,0,0,1,7.31-.92l.39,6.17a53.71,53.71,0,0,0-6.58.79Z"/><path class="cls-2" d="M557.47,97.12a64.08,64.08,0,0,1,7.33.43l-.73,6.19a58.86,58.86,0,0,0-6.63-.42Z"/><path class="cls-2" d="M569,98.17a67.48,67.48,0,0,1,7.15,1.69l-1.8,6a62.17,62.17,0,0,0-6.47-1.56Z"/><path class="cls-2" d="M580.08,101.17a66,66,0,0,1,6.76,2.89L584,109.73a62.18,62.18,0,0,0-6.11-2.64Z"/><path class="cls-2" d="M590.55,106q3.18,1.83,6.15,4L593,115.17a66.11,66.11,0,0,0-5.6-3.63Z"/><path class="cls-2" d="M600,112.52q2.85,2.3,5.46,4.85L601,122q-2.38-2.35-5-4.47Z"/><polygon class="cls-2" points="608.39 120.36 613.1 125.92 607.95 129.88 603.64 124.73 608.39 120.36"/><polygon class="cls-2" points="615.56 129.27 619.47 135.4 613.81 138.68 610.21 132.99 615.56 129.27"/><polygon class="cls-2" points="621.48 139.04 624.58 145.6 618.5 148.17 615.65 142.06 621.48 139.04"/><polygon class="cls-2" points="626.12 149.46 628.39 156.33 622 158.18 619.91 151.75 626.12 149.46"/><polygon class="cls-2" points="629.47 160.32 630.97 167.39 624.37 168.55 622.99 161.92 629.47 160.32"/><polygon class="cls-2" points="631.62 171.46 632.4 178.63 625.67 179.14 624.96 172.38 631.62 171.46"/><polygon class="cls-2" points="632.66 182.73 632.78 189.92 625.98 189.83 625.89 183.02 632.66 182.73"/><polygon class="cls-2" points="632.67 194.02 632.2 201.18 625.37 200.54 625.86 193.73 632.67 194.02"/><polygon class="cls-2" points="631.76 205.26 630.72 212.36 623.91 211.17 624.94 204.42 631.76 205.26"/><polygon class="cls-2" points="629.97 216.39 628.38 223.37 621.64 221.65 623.18 215 629.97 216.39"/><polygon class="cls-2" points="627.32 227.33 625.21 234.18 618.57 231.94 620.61 225.42 627.32 227.33"/><polygon class="cls-2" points="623.86 238.04 621.25 244.71 614.74 241.96 617.26 235.61 623.86 238.04"/><polygon class="cls-2" points="619.61 248.47 616.52 254.93 610.18 251.69 613.16 245.54 619.61 248.47"/><polygon class="cls-2" points="614.61 258.56 611.05 264.78 604.92 261.06 608.35 255.14 614.61 258.56"/><polygon class="cls-2" points="608.89 268.26 604.88 274.21 599 270.02 602.84 264.37 608.89 268.26"/><polygon class="cls-2" points="602.47 277.52 598.05 283.16 592.44 278.52 596.68 273.17 602.47 277.52"/><polygon class="cls-2" points="595.4 286.29 590.57 291.59 585.28 286.52 589.91 281.49 595.4 286.29"/><polygon class="cls-2" points="587.7 294.52 582.48 299.44 577.56 293.95 582.54 289.29 587.7 294.52"/><polygon class="cls-2" points="579.39 302.15 573.82 306.67 569.3 300.77 574.61 296.5 579.39 302.15"/><path class="cls-2" d="M570.53,309.12l-3,2.05c-1,.67-2,1.37-3,2l-4.07-6.28c1-.62,1.87-1.27,2.81-1.91l2.82-1.92Z"/><polygon class="cls-2" points="561.15 315.39 554.97 319.01 551.32 312.42 557.23 309 561.15 315.39"/><polygon class="cls-2" points="551.36 320.96 544.95 324.14 541.74 317.27 547.88 314.26 551.36 320.96"/><polygon class="cls-2" points="541.22 325.84 534.61 328.58 531.85 321.46 538.18 318.87 541.22 325.84"/><polygon class="cls-2" points="530.79 330.02 524.02 332.33 521.7 325 528.19 322.82 530.79 330.02"/><polygon class="cls-2" points="520.12 333.53 513.22 335.42 511.34 327.91 517.96 326.13 520.12 333.53"/><polygon class="cls-2" points="509.26 336.38 502.27 337.85 500.82 330.19 507.53 328.81 509.26 336.38"/><polygon class="cls-2" points="498.26 338.58 491.2 339.66 490.17 331.88 496.96 330.88 498.26 338.58"/><polygon class="cls-2" points="487.16 340.17 480.06 340.87 479.44 332.99 486.27 332.35 487.16 340.17"/><polygon class="cls-2" points="476 341.16 468.88 341.5 468.65 333.55 475.52 333.26 476 341.16"/><polygon class="cls-2" points="464.81 341.59 457.69 341.58 457.85 333.58 464.72 333.62 464.81 341.59"/><polygon class="cls-2" points="453.63 341.48 446.51 341.13 447.04 333.09 453.92 333.46 453.63 341.48"/><polygon class="cls-2" points="442.46 340.84 435.38 340.18 436.27 332.12 443.12 332.79 442.46 340.84"/><polygon class="cls-2" points="431.34 339.71 424.29 338.73 425.54 330.67 432.36 331.64 431.34 339.71"/><polygon class="cls-2" points="420.28 338.09 413.29 336.81 414.88 328.76 421.66 330.03 420.28 338.09"/><polygon class="cls-2" points="409.31 336 402.37 334.44 404.31 326.41 411.03 327.96 409.31 336"/><polygon class="cls-2" points="398.43 333.47 391.56 331.62 393.85 323.62 400.49 325.44 398.43 333.47"/><polygon class="cls-2" points="387.66 330.49 380.88 328.36 383.5 320.42 390.07 322.51 387.66 330.49"/><polygon class="cls-2" points="377.03 327.07 370.34 324.67 373.3 316.79 379.78 319.14 377.03 327.07"/><polygon class="cls-2" points="452.8 243.72 459.1 246.65 457.14 250.97 450.65 248.23 452.8 243.72"/><polygon class="cls-2" points="462.73 248.27 469.11 250.99 467.43 255.1 460.87 252.5 462.73 248.27"/><polygon class="cls-2" points="472.79 252.47 479.27 254.88 477.88 258.8 471.21 256.51 472.79 252.47"/><polygon class="cls-2" points="483 256.15 489.59 258.16 488.52 261.99 481.74 260.01 483 256.15"/><polygon class="cls-2" points="493.4 259.17 500.1 260.66 499.36 264.43 492.44 262.98 493.4 259.17"/><polygon class="cls-2" points="503.95 261.35 510.74 262.23 510.38 265.91 503.35 265.09 503.95 261.35"/><polygon class="cls-2" points="514.63 262.53 521.46 262.69 521.49 266.27 514.42 266.18 514.63 262.53"/><polygon class="cls-2" points="525.35 262.57 532.14 261.98 532.58 265.51 525.53 266.14 525.35 262.57"/><polygon class="cls-2" points="536.01 261.42 542.7 260.09 543.51 263.52 536.58 264.92 536.01 261.42"/><path class="cls-2" d="M546.45,259.1a63.71,63.71,0,0,0,6.36-2.21l1.35,3.31a66.64,66.64,0,0,1-6.73,2.29Z"/><path class="cls-2" d="M556.31,255.33a48.28,48.28,0,0,0,5.75-3.33l2,3a48.88,48.88,0,0,1-6.2,3.55Z"/><path class="cls-2" d="M565.07,249.75a38.48,38.48,0,0,0,4.7-4.59l2.81,2.41a46.13,46.13,0,0,1-5.19,5Z"/><path class="cls-2" d="M572.06,242.2a31.77,31.77,0,0,0,3.14-5.67l3.57,1.52a35.65,35.65,0,0,1-3.62,6.29Z"/><path class="cls-2" d="M576.42,233.07l.67-3.13c.07-.53.09-1.06.15-1.6l.15-1.59,4.12.13-.21,1.84c-.08.61-.13,1.22-.24,1.82l-.85,3.58Z"/><path class="cls-2" d="M577.27,223.07a34.46,34.46,0,0,0-1.24-6.4l4.28-1.25a41.36,41.36,0,0,1,1.18,7.25Z"/><path class="cls-2" d="M574.81,213.1a50.79,50.79,0,0,0-2.86-6l4.28-2.4a52.46,52.46,0,0,1,2.88,6.72Z"/><path class="cls-2" d="M570,203.81c-.32-.46-.61-.94-1-1.39l-1-1.37-2-2.73L570.2,195l2,3,1,1.5c.35.49.65,1,1,1.54Z"/><polygon class="cls-2" points="563.51 195.29 558.93 190.12 563.22 186.21 567.73 191.72 563.51 195.29"/><polygon class="cls-2" points="556.24 187.18 551.49 181.99 556.12 177.84 560.61 183.15 556.24 187.18"/><path class="cls-2" d="M548.81,178.92a55.49,55.49,0,0,1-4.39-5.88l5.6-3.56a46.44,46.44,0,0,0,3.66,5.33Z"/><path class="cls-2" d="M542.33,169.26a22.36,22.36,0,0,1-2.12-7.55l6.86-.58a15.33,15.33,0,0,0,1.36,5.28Z"/><path class="cls-2" d="M540.41,157.06a17.09,17.09,0,0,1,3.36-7.39l5.57,4.32a10.31,10.31,0,0,0-2.06,4.33Z"/><path class="cls-2" d="M547,146.41a22.86,22.86,0,0,1,6.83-3.81l2.37,6.72a15.74,15.74,0,0,0-4.73,2.58Z"/><path class="cls-2" d="M558.14,141.52a21.61,21.61,0,0,1,3.94-.22c.67,0,1.29.14,1.94.21l1.92.24-1.34,6.94-1.4-.15c-.46,0-1-.15-1.38-.15a14,14,0,0,0-2.65.17Z"/><path class="cls-2" d="M570.17,142.92a33.36,33.36,0,0,1,6.75,3.4l-3.79,5.84a29.08,29.08,0,0,0-5.35-2.62Z"/><path class="cls-2" d="M580.37,148.83a47,47,0,0,1,5.34,5.12l-5,4.5a38.89,38.89,0,0,0-4.65-4.27Z"/><path class="cls-2" d="M588.37,157.19a57.46,57.46,0,0,1,4,6.09l-5.58,3.22a54.86,54.86,0,0,0-3.78-5.27Z"/><path class="cls-2" d="M594.38,167a60.87,60.87,0,0,1,2.81,6.73l-5.73,2a55.63,55.63,0,0,0-2.75-6Z"/><path class="cls-2" d="M598.45,177.65a69.24,69.24,0,0,1,1.58,7.1l-5.63.94a58.37,58.37,0,0,0-1.68-6.43Z"/><path class="cls-2" d="M600.59,188.86a70.27,70.27,0,0,1,.38,7.25h-5.31a64.75,64.75,0,0,0-.61-6.68Z"/><path class="cls-2" d="M600.86,200.26a70,70,0,0,1-.79,7.21l-4.85-.78a66,66,0,0,0,.48-6.73Z"/><polygon class="cls-2" points="599.29 211.55 598.4 215.07 597.34 218.53 593.06 217.1 593.93 213.82 594.63 210.51 599.29 211.55"/><path class="cls-2" d="M595.92,222.42q-1.33,3.36-3,6.59l-3.74-1.91q1.47-3.09,2.65-6.3Z"/><path class="cls-2" d="M591,232.64l-3.86,6.09-3.24-2.25c1.21-1.95,2.36-3.93,3.54-5.89Z"/><polygon class="cls-2" points="584.68 242.06 580.07 247.59 577.26 245.04 581.6 239.69 584.68 242.06"/><path class="cls-2" d="M577.25,250.57,572,255.49l-2.42-2.79c1.67-1.58,3.36-3.15,5-4.76Z"/><polygon class="cls-2" points="568.84 258.12 563.05 262.38 560.98 259.35 566.54 255.23 568.84 258.12"/><polygon class="cls-2" points="559.62 264.63 553.41 268.21 551.68 264.98 557.67 261.51 559.62 264.63"/><polygon class="cls-2" points="549.76 270.07 543.23 272.99 541.84 269.63 548.16 266.78 549.76 270.07"/><polygon class="cls-2" points="539.43 274.49 532.67 276.79 531.6 273.33 538.16 271.08 539.43 274.49"/><polygon class="cls-2" points="528.76 277.94 521.85 279.66 521.07 276.13 527.8 274.45 528.76 277.94"/><polygon class="cls-2" points="517.86 280.49 510.84 281.67 510.31 277.99 517.17 276.91 517.86 280.49"/><path class="cls-2" d="M506.81,282.2c-2.36.24-4.72.52-7.08.69l-.29-3.83c2.32-.14,4.62-.38,6.92-.59Z"/><polygon class="cls-2" points="495.69 283.15 488.6 283.4 488.54 279.44 495.48 279.28 495.69 283.15"/><polygon class="cls-2" points="484.55 283.43 477.48 283.29 477.62 279.22 484.56 279.43 484.55 283.43"/><polygon class="cls-2" points="473.44 283.12 466.39 282.66 466.73 278.36 473.65 278.97 473.44 283.12"/><polygon class="cls-2" points="462.38 282.32 455.36 281.6 455.87 277.06 462.78 277.93 462.38 282.32"/><path class="cls-2" d="M451.36,281.13l-7-.93.69-4.83c2.29.37,4.58.78,6.87,1.13Z"/><path class="cls-2" d="M249,256.73c-.81-2.36-1.63-4.7-2.4-7.06L240,265.42a4.76,4.76,0,0,0,2.57,6.25c2.8,1.15,5.64,2.21,8.48,3.23,2.39.85,4.8,1.65,7.21,2.42C254.05,271,251.46,263.84,249,256.73Z"/><path class="cls-2" d="M238.92,225.14c-3.19-1.65-6.35-3.37-9.42-5.23s-6.21-3.91-9.2-6c-1.83-1.27-3.66-2.62-5.49-4a4.76,4.76,0,0,0-6.48.62l-18.78,21.43a4.74,4.74,0,0,0,.36,6.64c2.2,2,4.49,4,6.86,6,3.61,3,7.37,5.75,11.2,8.42s7.77,5.17,11.8,7.52q3.89,2.24,7.88,4.3a4.77,4.77,0,0,0,6.51-2.25l11-23.89A96.67,96.67,0,0,1,238.92,225.14Z"/><path class="cls-2" d="M185.27,227.31a4.75,4.75,0,0,1-6.88.16c-4.86-4.85-9.45-9.56-14-13.9-2.82-2.7-5.62-5.25-8.44-7.63l-2.12-1.76-2.09-1.64L151,202a4.74,4.74,0,0,1-1.21-6.27l12.5-20.57a4.74,4.74,0,0,1,6.52-1.6c.71.43,1.42.88,2.12,1.33q1.51,1,3,2l2.87,2c3.78,2.7,7.38,5.49,10.82,8.3,5.49,4.47,10.62,9,15.59,13.19a4.76,4.76,0,0,1,.43,6.81Z"/><path class="cls-2" d="M145.51,192.5a4.79,4.79,0,0,1-6.38,2.05c-1.63-.82-3.26-1.57-4.9-2.23a51,51,0,0,0-9.09-2.77,45.47,45.47,0,0,0-8.89-.94H115l-1,.06c-.78,0-1.36,0-2,.11l-.48.05a4.79,4.79,0,0,1-5-2.85l-7.51-17.35a4.79,4.79,0,0,1,2.64-6.37c1.13-.43,2.29-.83,3.47-1.18,1.39-.42,2.87-.79,4.16-1l2-.39,2-.3a63,63,0,0,1,16-.19,79.57,79.57,0,0,1,15.15,3.19q4.68,1.47,9.1,3.35a4.82,4.82,0,0,1,2.41,6.67Z"/><path class="cls-2" d="M101.79,186.67a4.8,4.8,0,0,1-1.23,6.44,16.17,16.17,0,0,0-2.49,2.2,10.64,10.64,0,0,0-1.95,2.74,10.33,10.33,0,0,0-1,2.83,8.85,8.85,0,0,0,0,3,9.8,9.8,0,0,0,1,3,14.39,14.39,0,0,0,2.18,3,4.85,4.85,0,0,1,0,6.43l-8.16,9.46a4.82,4.82,0,0,1-7.06.23,40.06,40.06,0,0,1-7-9.24A33.83,33.83,0,0,1,74,189.24a39.89,39.89,0,0,1,4.09-8.31,45.56,45.56,0,0,1,7.67-9,4.81,4.81,0,0,1,7.29,1Z"/><path class="cls-2" d="M174.83,279a4.83,4.83,0,0,1-6.19,2.78c-2.86-1.06-5.59-2.18-8.23-3.29-4-1.71-7.78-3.31-11.3-4.68a55.65,55.65,0,0,0-9.69-2.84,27.25,27.25,0,0,0-3.82-.38,4.76,4.76,0,0,1-4.56-3.9l-2.5-13.16a4.81,4.81,0,0,1,4.51-5.71,37.67,37.67,0,0,1,11.76,1.43,55,55,0,0,1,7.34,2.68c2.27,1,4.36,2.19,6.34,3.34,4,2.31,7.45,4.79,10.81,7,2.11,1.41,4.16,2.75,6.18,3.94a4.78,4.78,0,0,1,2,5.84Z"/><path class="cls-2" d="M126.87,268a4.76,4.76,0,0,1-1.45,5.74,17.58,17.58,0,0,0-4.82,5.56,17.49,17.49,0,0,0-1.49,3.4,12.42,12.42,0,0,0-.27,6.56,14.53,14.53,0,0,0,1.43,3.48,4.86,4.86,0,0,1-.67,5.76l-7.69,8a4.81,4.81,0,0,1-7.15-.22,32.81,32.81,0,0,1-6-10.72,33.5,33.5,0,0,1-.8-18.13,38.65,38.65,0,0,1,2.91-8.27,39.85,39.85,0,0,1,4.68-7.29,38,38,0,0,1,9-8.14,4.79,4.79,0,0,1,7,2.12Z"/><path class="cls-2" d="M122.91,302.24a4.78,4.78,0,0,1,6.22-1.66,36,36,0,0,0,4.86,2.1,38.2,38.2,0,0,0,4.88,1.34c.84.18,1.67.3,2.47.41s1.67.2,2.55.24a80.69,80.69,0,0,0,11.38-.3c2.59-.21,5.27-.46,8-.67a4.8,4.8,0,0,1,5.16,4.37l.49,5.7a4.79,4.79,0,0,1-4,5.15c-2.48.43-5,.92-7.68,1.38a97.74,97.74,0,0,1-13.52,1.63c-1.2.05-2.44.05-3.69,0s-2.53-.12-3.75-.25a55.81,55.81,0,0,1-7.35-1.23,50.84,50.84,0,0,1-9.25-3.11,4.83,4.83,0,0,1-2.11-7Z"/><path class="cls-2" d="M174.7,308.45a4.74,4.74,0,0,1,5.37-4.71c.64.09,1.28.19,1.91.31s1.24.24,1.87.39,1.35.35,2,.55a29.13,29.13,0,0,1,3.92,1.57A31.4,31.4,0,0,1,201.54,317a42.78,42.78,0,0,1,6.07,13.43,37.39,37.39,0,0,1,1.16,7.37c0,.42,0,1.18,0,2.07a4.77,4.77,0,0,1-5.2,4.68l-2.8-.27a4.75,4.75,0,0,1-4.31-4.7c0-.44,0-.8,0-1a26.13,26.13,0,0,0-.9-4.93,26.79,26.79,0,0,0-4.53-9.06,18.06,18.06,0,0,0-7-5.72,10.73,10.73,0,0,0-1.92-.62c-.35-.06-.59-.12-1-.18s-.8-.12-1.21-.16l-.8-.07a4.74,4.74,0,0,1-4.37-4.73Z"/><path class="cls-2" d="M202.58,350.56a4.9,4.9,0,0,1,3.65,6.18c-.15.51-.3,1-.46,1.53-.69,2.16-1.44,4.27-2.22,6.35s-1.63,4.09-2.46,6.1l-2.57,5.93c-1.73,3.91-3.37,7.75-4.88,11.47-.81,2.08-1.57,4.16-2.24,6.22a4.88,4.88,0,0,1-6.39,3l-6.68-2.55a4.9,4.9,0,0,1-2.54-6.95c1.27-2.3,2.59-4.53,3.93-6.7,2.21-3.74,4.54-7.22,6.6-10.74,1-1.75,2.05-3.5,3-5.27s1.83-3.53,2.61-5.32a56.92,56.92,0,0,0,2.5-6.51,4.87,4.87,0,0,1,5.7-3.29Z"/><path class="cls-2" d="M184.78,403.23a4.92,4.92,0,0,1,3.49,5.2,34.22,34.22,0,0,0-.1,6.05,32.26,32.26,0,0,0,.6,4.51,29.53,29.53,0,0,0,1.26,4.27,37.32,37.32,0,0,0,4.22,8.07,43.19,43.19,0,0,0,3.18,4.15,4.92,4.92,0,0,1-.28,6.74l-10.7,10.38a4.89,4.89,0,0,1-7.18-.39,63.9,63.9,0,0,1-5.64-8,51.9,51.9,0,0,1-5.94-14.69,48.82,48.82,0,0,1-.91-16,57.77,57.77,0,0,1,2.09-9.94,4.91,4.91,0,0,1,6.07-3.25Z"/><path class="cls-2" d="M201.28,445.69a4.87,4.87,0,0,1,6.55-.72,112.35,112.35,0,0,0,15.11,9.29A183.63,183.63,0,0,0,239.73,462a4.89,4.89,0,0,1,2.71,6.35l-6.38,15.93a4.89,4.89,0,0,1-6.52,2.66,207.73,207.73,0,0,1-19.3-9.63,135.47,135.47,0,0,1-18.71-12.87,4.91,4.91,0,0,1-.58-7Z"/><path class="cls-2" d="M248,470.21a4.9,4.9,0,0,1,6.18-2.91c2.27.79,4.52,1.56,6.73,2.25,3.7,1.17,7.44,2.2,11.21,3.14s7.57,1.75,11.39,2.44q3.36.63,6.75,1.16a4.89,4.89,0,0,1,4.12,5.46L292,499.85a4.91,4.91,0,0,1-5.61,4.21q-4.12-.63-8.22-1.43c-4.36-.86-8.7-1.88-13-3s-8.57-2.4-12.8-3.81c-2.67-.87-5.24-1.81-7.78-2.77a4.89,4.89,0,0,1-2.85-6.3Z"/><path class="cls-2" d="M350.33,498.85l-2.75-17.49a4.84,4.84,0,0,0-5.31-4.06q-3.48.38-7,.68l-.62,0-.12.08c-9.53,5.29-20.67,8.92-31.15,4.35a4.09,4.09,0,0,1-2.44-2.52,4.8,4.8,0,0,0-1,2.41l-1.81,18.29a4.85,4.85,0,0,0,4.43,5.32c2.81.21,5.62.36,8.43.43q6.69.19,13.38,0t13.35-.89c2.83-.26,5.64-.61,8.45-1A4.86,4.86,0,0,0,350.33,498.85Z"/><polygon class="cls-2" points="144.6 201.87 150.41 206.22 147.93 209.23 142.44 205.02 144.6 201.87"/><polygon class="cls-2" points="153.54 208.89 158.77 213.77 155.93 216.64 150.91 211.84 153.54 208.89"/><polygon class="cls-2" points="161.65 216.64 166.54 221.72 163.48 224.58 158.71 219.49 161.65 216.64"/><path class="cls-2" d="M169.29,224.63c1.6,1.71,3.2,3.36,4.8,5l-3.1,3c-1.61-1.71-3.22-3.41-4.8-5.13Z"/><polygon class="cls-2" points="176.88 232.42 181.89 237.16 178.85 240.44 173.81 235.53 176.88 232.42"/><path class="cls-2" d="M184.82,239.8l5.24,4.49-3,3.56q-2.61-2.37-5.26-4.68Z"/><polygon class="cls-2" points="210.68 259.46 216.52 263.13 213.66 267.8 207.77 263.89 210.68 259.46"/><polygon class="cls-2" points="219.91 265.14 225.92 268.52 223.15 273.56 217.08 269.95 219.91 265.14"/><path class="cls-2" d="M229.4,270.36l6.17,3.06-2.65,5.47c-2.07-1.14-4.16-2.24-6.24-3.35Z"/><path class="cls-3" d="M124.19,206a253.35,253.35,0,0,1,55.66,4.19c8,1.51,16.06,3.43,23.37,7.07a54,54,0,0,1,26.71,66.79c-8.17-1.58-14.55-8-19-15.06s-8-14.8-14-20.58a33.24,33.24,0,0,0-26.55-8.93"/><polygon class="cls-2" points="284.58 473 277.61 471.66 279.25 464.02 286.06 465.14 284.58 473"/><polygon class="cls-2" points="273.63 470.81 266.71 469.15 268.64 461.81 275.38 463.28 273.63 470.81"/><polygon class="cls-2" points="262.76 468.11 255.91 466.11 258.16 459.06 264.81 460.87 262.76 468.11"/><path class="cls-2" d="M252,464.85c-2.26-.79-4.5-1.61-6.75-2.43l2.61-6.72c2.17.75,4.34,1.51,6.51,2.22Z"/><polygon class="cls-2" points="241.47 460.9 234.89 458.01 237.86 451.63 244.21 454.3 241.47 460.9"/><polygon class="cls-2" points="231.18 456.23 224.81 452.87 228.16 446.88 234.29 449.99 231.18 456.23"/><path class="cls-2" d="M221.24,450.82l-3.07-1.9c-1-.61-2-1.31-3.06-2l3.76-5.54c1,.61,1.9,1.24,2.9,1.81l2.95,1.76Z"/><path class="cls-2" d="M211.68,444.51a66.24,66.24,0,0,1-5.72-4.79l4.46-4.79a58.4,58.4,0,0,0,5.24,4.27Z"/><path class="cls-2" d="M202.92,436.63a46,46,0,0,1-4.72-6.11l5.4-3.48a39.78,39.78,0,0,0,4.1,5.19Z"/><path class="cls-2" d="M196,426.57a32.65,32.65,0,0,1-2.57-7.59l6.16-1.28a26.1,26.1,0,0,0,2.14,6.09Z"/><path class="cls-2" d="M192.86,414.41a37.76,37.76,0,0,1,.42-7.84l6.1.91a32.05,32.05,0,0,0-.29,6.55Z"/><path class="cls-2" d="M194.16,402.29a68.8,68.8,0,0,1,2.19-7.09l5.69,2a67,67,0,0,0-1.94,6.5Z"/><polygon class="cls-2" points="197.84 391.34 200.56 384.81 206.02 387.08 203.41 393.54 197.84 391.34"/><polygon class="cls-2" points="202.1 381.18 204.63 374.81 210.13 376.77 207.57 383.36 202.1 381.18"/><polygon class="cls-2" points="205.94 371.14 207.96 364.67 213.54 366.13 211.47 372.94 205.94 371.14"/><path class="cls-2" d="M208.92,360.93c.43-2.2.86-4.39,1.33-6.59l5.66.78c-.49,2.35-.93,4.7-1.38,7Z"/><path class="cls-2" d="M210.78,350.56a64.69,64.69,0,0,0,.41-6.66l5.7-.1a70,70,0,0,1-.43,7.24Z"/><path class="cls-2" d="M211.1,340.1a48.42,48.42,0,0,0-.81-6.55l5.55-1.23a54.74,54.74,0,0,1,.94,7.31Z"/><path class="cls-2" d="M209.44,329.87a49.37,49.37,0,0,0-2.19-6.26l5.16-2.39a53.38,53.38,0,0,1,2.47,7Z"/><path class="cls-2" d="M205.61,320.19a42.12,42.12,0,0,0-3.55-5.58l4.45-3.56a48.49,48.49,0,0,1,4.05,6.33Z"/><path class="cls-2" d="M199.63,311.71a33.46,33.46,0,0,0-4.95-4.34l3.23-4.67a38.64,38.64,0,0,1,5.79,5Z"/><path class="cls-2" d="M191.5,305.37l-1.47-.73a13.5,13.5,0,0,0-1.5-.68l-3.1-1.15,1.6-5.43,3.62,1.33a16.31,16.31,0,0,1,1.76.79l1.75.86Z"/><path class="cls-2" d="M181.74,301.86A51.4,51.4,0,0,0,175,301l.33-5.62a59.56,59.56,0,0,1,7.43,1Z"/><polygon class="cls-2" points="171.13 300.8 164.21 300.93 164 295.35 171.19 295.19 171.13 300.8"/><polygon class="cls-2" points="160.23 301.1 153.19 301.36 153.07 295.84 159.98 295.54 160.23 301.1"/><path class="cls-2" d="M149.13,301.39c-2.37,0-4.76-.11-7.16-.35l.6-5.44c2.17.2,4.39.25,6.63.28Z"/><path class="cls-2" d="M137.86,300.48c-1.19-.26-2.37-.5-3.57-.78a25.92,25.92,0,0,1-3.59-1.26l2.25-4.92a20.49,20.49,0,0,0,2.8,1l3.13.66Z"/><path class="cls-2" d="M126.86,296.21a13.93,13.93,0,0,1-2.9-2.89,10.21,10.21,0,0,1-1.78-4l5.24-1a6.52,6.52,0,0,0,2.72,3.61Z"/><path class="cls-2" d="M122.51,284.28a12.49,12.49,0,0,1,5.36-6.42l2.7,4.51a7.31,7.31,0,0,0-3.06,3.69Z"/><path class="cls-2" d="M132.24,276.09a22.63,22.63,0,0,1,7.75-.31l-.61,5.14a17.26,17.26,0,0,0-6,.28Z"/><polygon class="cls-2" points="144.14 276.45 151.1 278.09 149.77 283 143.1 281.49 144.14 276.45"/><polygon class="cls-2" points="155.01 279.19 161.75 281.23 160.24 285.99 153.57 284.03 155.01 279.19"/><polygon class="cls-2" points="165.56 282.44 172.18 284.52 170.84 289.19 164.07 287.16 165.56 282.44"/><path class="cls-2" d="M176,285.6c1.1.33,2.21.55,3.31.83l3.32.82-.8,4.5-3.52-.74c-1.16-.26-2.35-.47-3.5-.77Z"/><path class="cls-2" d="M186.42,287.94a61,61,0,0,0,6.74.64l0,4.34a64.24,64.24,0,0,1-7.24-.57Z"/><path class="cls-2" d="M197,288.57a41.13,41.13,0,0,0,6.64-.92l1,4.19a45.64,45.64,0,0,1-7.33,1Z"/><path class="cls-2" d="M207.31,286.61a21.58,21.58,0,0,0,3.05-1.28,27.55,27.55,0,0,0,2.84-1.64l2.42,3.88a34.67,34.67,0,0,1-3.37,1.75c-1.16.54-2.36.95-3.52,1.37Z"/><path class="cls-2" d="M216.19,281.43a24.54,24.54,0,0,0,4.32-4.85l4.16,3.18a35.39,35.39,0,0,1-5.47,5.34Z"/><path class="cls-2" d="M222.36,273.42a21.29,21.29,0,0,0,1.92-5.91l5.93,1.28a26.66,26.66,0,0,1-3,7.33Z"/><path class="cls-2" d="M224.51,264.07l-.1-1.49a12.43,12.43,0,0,0-.18-1.6l-.48-3.35,6.45-1,.43,3.6a17.33,17.33,0,0,1,.16,1.9l.06,2Z"/><path class="cls-2" d="M223,253.88a51.21,51.21,0,0,0-1.74-6.35l6.18-2.14a57.24,57.24,0,0,1,2,7.14Z"/><path class="cls-2" d="M219.89,244.09a34.54,34.54,0,0,0-3.16-5.56l5.23-3.66a41.27,41.27,0,0,1,3.83,6.54Z"/><path class="cls-2" d="M214.47,235.67a34.57,34.57,0,0,0-4.67-4.37l3.84-4.91a40.78,40.78,0,0,1,5.58,5.1Z"/><path class="cls-2" d="M206.78,229.17c-.47-.29-.91-.59-1.41-.84l-1.45-.79L201,226l2.64-5.49,3.25,1.7,1.62.86c.55.27,1.07.61,1.6.93Z"/><path class="cls-2" d="M197.53,224.44c-2.06-.83-4.16-1.59-6.3-2.23l1.67-5.62a68.8,68.8,0,0,1,6.91,2.26Z"/><polygon class="cls-2" points="187.53 221.18 180.9 219.78 181.84 214.31 188.9 215.6 187.53 221.18"/><polygon class="cls-2" points="177.06 219.18 170.26 218.4 170.7 213.18 177.79 213.79 177.06 219.18"/><polygon class="cls-2" points="166.34 218.1 159.44 217.75 159.6 212.82 166.66 212.98 166.34 218.1"/><polygon class="cls-2" points="155.48 217.63 148.49 217.48 148.57 212.81 155.58 212.8 155.48 217.63"/><polygon class="cls-2" points="144.48 217.39 137.43 217.17 137.6 212.75 144.58 212.81 144.48 217.39"/><path class="cls-2" d="M133.39,217c-1.19-.08-2.38-.19-3.57-.28l-3.57-.3.45-4.14,3.47.2c1.15.07,2.3.15,3.46.2Z"/><path class="cls-2" d="M122.13,215.82a52.65,52.65,0,0,1-7.21-1.69l1.17-3.77a44.89,44.89,0,0,0,6.7,1.44Z"/><path class="cls-2" d="M110.89,212.63a31.23,31.23,0,0,1-3.48-1.73,13.32,13.32,0,0,1-3.45-2.84l2.92-2.44a9.55,9.55,0,0,0,2.49,2,29.55,29.55,0,0,0,3,1.46Z"/><path class="cls-2" d="M101.94,202.47a9.46,9.46,0,0,1,1.45-4.77,11.1,11.1,0,0,1,3.26-3.39l2.06,3.06a6.64,6.64,0,0,0-3,5.16Z"/><path class="cls-2" d="M111.37,192.41a26,26,0,0,1,7.84-.17l-.36,3.61a22.64,22.64,0,0,0-6.74.15Z"/><path class="cls-2" d="M123.41,192.86a53.68,53.68,0,0,1,7.17,1.9l-1.19,3.42a42.53,42.53,0,0,0-6.64-1.78Z"/><path class="cls-2" d="M134.52,196.28a59.34,59.34,0,0,1,6.55,3.35l-1.93,3.23a55.38,55.38,0,0,0-6.09-3.22Z"/><polygon class="cls-2" points="239.15 275.07 245.47 277.8 242.91 283.81 236.52 280.73 239.15 275.07"/><polygon class="cls-2" points="249.12 279.26 255.56 281.67 253.15 288.24 246.61 285.48 249.12 279.26"/><path class="cls-2" d="M259.36,283l6.51,2.33-2.49,7.05c-2.18-.92-4.37-1.78-6.55-2.67Z"/><polygon class="cls-2" points="269.55 286.56 274.98 288 273.16 295.79 267.24 293.89 269.55 286.56"/><path class="cls-2" d="M103.19,218.28a4.82,4.82,0,0,1,5.7-1.88,39.37,39.37,0,0,0,5.47,1.53c1.65.33,3.38.65,5.11.87s3.47.47,5.24.63,3.57.32,5.4.44,3.69.19,5.6.26c2.23.08,4.52.1,6.85.11a4.79,4.79,0,0,1,4.77,5l-.6,14.53a4.81,4.81,0,0,1-4.82,4.6c-2.72,0-5.47-.07-8.26-.19a123.62,123.62,0,0,1-13.35-1.28,94.24,94.24,0,0,1-13.57-3.08,65,65,0,0,1-8.8-3.5A4.79,4.79,0,0,1,96,229.39Z"/><path class="cls-2" d="M174.82,253.53l.87-6.16q-3.52-.48-7.06-.79l-.36,3.81c1.81,1,3.52,2,5.07,2.94Z"/><path class="cls-2" d="M164.6,246.27l-4-.21c1.28.7,2.56,1.42,3.83,2.14Z"/><path class="cls-3" d="M173.34,253.33c-1.55-.91-3.26-1.9-5.07-2.94l-3.81-2.19c-1.27-.72-2.55-1.44-3.83-2.14a145.21,145.21,0,0,0-14.38-7.27c-7.6-3-15.8-4.89-24-4.22-7.7.64-14.91,3.46-21.81,7.06a5.54,5.54,0,0,1-.68,2.9,5.12,5.12,0,0,1-3,2.3,4,4,0,0,1-2,.09,3.66,3.66,0,0,1-1.85-.6,2.22,2.22,0,0,1-.35-.25q-1.92,1.14-3.81,2.3,3.24,4.15,6.49,8.29a3.76,3.76,0,0,0,2.5,1.78,3.83,3.83,0,0,0,2.28-1,54.47,54.47,0,0,1,64.65.64c1.86,1.4,3.84,3,6.18,3,3,0,5.17-2.61,6.95-5.08Z"/><path class="cls-2" d="M379.48,496.22q-2.89,2.16-5.93,4.17l-4.33-6.89q2.85-1.81,5.6-3.79Z"/><path class="cls-2" d="M370.05,502.61c-2.07,1.26-4.19,2.46-6.35,3.57L360,498.71q3-1.5,5.93-3.21Z"/><path class="cls-2" d="M360,508c-2.2,1-4.45,2-6.73,2.87l-2.92-8c2.1-.78,4.18-1.63,6.22-2.55Z"/><path class="cls-2" d="M349.28,512.31q-3.48,1.17-7,2.09l-2-8.41q3.27-.8,6.46-1.83Z"/><path class="cls-2" d="M338.16,515.36c-2.4.52-4.82.94-7.24,1.28l-1.09-8.73c2.23-.28,4.44-.65,6.64-1.09Z"/><path class="cls-2" d="M326.75,517.15q-3.66.36-7.32.48l-.15-9q3.38-.06,6.73-.35Z"/><path class="cls-2" d="M315.24,517.66c-2.45,0-4.83-.18-7.25-.27l.62-9c2.27.1,4.56.26,6.81.3Z"/><polygon class="cls-2" points="303.88 517.1 296.72 516.38 297.89 507.33 304.71 508.07 303.88 517.1"/><polygon class="cls-2" points="292.65 515.84 285.56 514.74 287.21 505.68 294 506.8 292.65 515.84"/><polygon class="cls-2" points="281.54 514.01 274.55 512.6 276.58 503.54 283.34 504.96 281.54 514.01"/><polygon class="cls-2" points="270.57 511.72 263.66 510.08 265.99 501.01 272.73 502.66 270.57 511.72"/><polygon class="cls-2" points="259.73 509.09 252.9 507.29 255.44 498.2 262.15 500.01 259.73 509.09"/><polygon class="cls-2" points="249.01 506.23 242.23 504.34 244.9 495.2 251.61 497.12 249.01 506.23"/><polygon class="cls-2" points="238.35 503.22 231.57 501.18 234.43 492.07 241.08 494.08 238.35 503.22"/><polygon class="cls-2" points="227.69 499.95 220.91 497.66 224.12 488.66 230.66 490.87 227.69 499.95"/><polygon class="cls-2" points="217.05 496.26 210.32 493.6 214.04 484.79 220.42 487.32 217.05 496.26"/><path class="cls-2" d="M206.51,492q-3.31-1.5-6.59-3.16l4.39-8.51q3,1.56,6.14,3Z"/><path class="cls-2" d="M196.22,486.81c-2.15-1.19-4.27-2.44-6.35-3.78l5.2-8q2.84,1.81,5.81,3.47Z"/><path class="cls-2" d="M186.35,480.67c-2-1.41-4-2.94-6-4.54l6.14-7.36c1.72,1.43,3.5,2.78,5.34,4.07Z"/><path class="cls-2" d="M177.14,473.31q-2.77-2.54-5.33-5.31l7.08-6.47q2.27,2.46,4.74,4.73Z"/><path class="cls-2" d="M169,464.75q-2.41-2.92-4.56-6.07l8-5.37c1.24,1.84,2.58,3.62,4,5.34Z"/><path class="cls-2" d="M162.07,455a73,73,0,0,1-3.57-6.79l8.75-4a62.9,62.9,0,0,0,3.08,5.86Z"/><path class="cls-2" d="M156.8,444.14a60.87,60.87,0,0,1-2.3-7.43l9.37-2.22a53.52,53.52,0,0,0,1.93,6.28Z"/><path class="cls-2" d="M153.65,432.31a56.92,56.92,0,0,1-.66-7.84l9.57-.14a45.63,45.63,0,0,0,.58,6.49Z"/><path class="cls-2" d="M153.11,420a61.64,61.64,0,0,1,1-7.7l9.34,1.77a53.67,53.67,0,0,0-.81,6.53Z"/><path class="cls-2" d="M155.08,408c.64-2.47,1.4-4.88,2.26-7.23l8.89,3.19c-.75,2.11-1.42,4.25-2,6.4Z"/><path class="cls-2" d="M158.88,396.8c.94-2.29,2-4.52,3-6.71l8.47,4.06c-1,2.05-1.91,4.13-2.76,6.22Z"/><polygon class="cls-2" points="163.74 386.38 167.1 380.05 175.3 384.51 172.09 390.63 163.74 386.38"/><polygon class="cls-2" points="169.06 376.51 172.47 370.4 180.59 374.88 177.21 381.02 169.06 376.51"/><polygon class="cls-2" points="174.37 366.94 177.55 360.91 185.79 365.05 182.51 371.35 174.37 366.94"/><path class="cls-2" d="M179.25,357.45c1-2,1.87-4,2.69-6.07l8.5,3.41c-.89,2.24-1.86,4.43-2.87,6.59Z"/><path class="cls-2" d="M183.22,348a32.94,32.94,0,0,0,1.4-5.71l9,1.21a40.32,40.32,0,0,1-1.75,7.38Z"/><path class="cls-2" d="M184.81,339.25a10.62,10.62,0,0,0-.92-4.37l8.09-3.95a19.64,19.64,0,0,1,1.9,8.05Z"/><path class="cls-2" d="M182.62,333a10.3,10.3,0,0,0-3.65-2.52l3.41-8.21a19.37,19.37,0,0,1,6.84,4.67Z"/><path class="cls-2" d="M176.18,329.56a21,21,0,0,0-5.47-.46l-.46-8.77a30.33,30.33,0,0,1,7.76.57Z"/><path class="cls-2" d="M167.4,329.46a61.78,61.78,0,0,0-6.22,1.43l-2.39-8.33a66.24,66.24,0,0,1,7.13-1.71Z"/><path class="cls-2" d="M157.42,332c-2.23.66-4.56,1.35-7,1.94l-2.07-8.3c2.16-.55,4.35-1.21,6.58-1.9Z"/><path class="cls-2" d="M146.08,334.81a53.27,53.27,0,0,1-7.76.69l-.2-8.45a44.57,44.57,0,0,0,6.53-.64Z"/><path class="cls-2" d="M133.89,335.39a56.14,56.14,0,0,1-7.66-1l1.59-8.18a49.7,49.7,0,0,0,6.54.8Z"/><path class="cls-2" d="M122,333.36a61.68,61.68,0,0,1-7.25-2.55l3.17-7.59a51.41,51.41,0,0,0,6.27,2.13Z"/><path class="cls-2" d="M110.73,328.94a59.38,59.38,0,0,1-6.58-3.95l4.58-6.7a50.17,50.17,0,0,0,5.71,3.35Z"/><path class="cls-2" d="M100.63,322.35A54.86,54.86,0,0,1,95,317.09l5.83-5.5a47.66,47.66,0,0,0,4.86,4.45Z"/><path class="cls-2" d="M92.12,313.74c-.8-1-1.57-2.05-2.29-3.13-.36-.54-.71-1.05-1.06-1.65l-1-1.74,6.93-3.83.82,1.36c.26.46.58.92.89,1.37.62.9,1.28,1.78,2,2.64Z"/><path class="cls-2" d="M85.79,303a40.08,40.08,0,0,1-2.18-7.65l7.67-1.47a33.42,33.42,0,0,0,1.82,6.17Z"/><path class="cls-2" d="M83,290.94A51.33,51.33,0,0,1,83,283.2l7.7.47a42.21,42.21,0,0,0,.11,6.56Z"/><path class="cls-2" d="M83.42,278.84A62.22,62.22,0,0,1,85,271.4l7.35,2A53.62,53.62,0,0,0,91,279.9Z"/><path class="cls-2" d="M86.29,267.28,87,265.5c.21-.58.47-1.2.72-1.8.52-1.19,1.08-2.36,1.69-3.51L96,263.68c-.51,1-1,2-1.39,3s-.79,2.05-1.17,3.1Z"/><path class="cls-2" d="M91.63,256.37a47.81,47.81,0,0,1,4.79-6.1l5.47,5a41,41,0,0,0-4,5.19Z"/><path class="cls-2" d="M99.59,247.15a46,46,0,0,1,6.23-4.67l3.9,6.18a37.46,37.46,0,0,0-5.19,4Z"/><path class="cls-2" d="M109.75,240.31a40,40,0,0,1,7.4-2.72l1.85,7a32.29,32.29,0,0,0-6,2.29Z"/><path class="cls-2" d="M121.59,236.71a41.87,41.87,0,0,1,7.82-.32l-.32,7.1a34.28,34.28,0,0,0-6.49.31Z"/><path class="cls-2" d="M133.8,236.82a55.31,55.31,0,0,1,7.42,1.62l-1.89,6.73a49.05,49.05,0,0,0-6.5-1.35Z"/><path class="cls-2" d="M145.3,239.76c2.34.85,4.62,1.81,6.84,2.86l-2.91,6.25c-2-1-4.14-1.8-6.25-2.55Z"/><path class="cls-2" d="M155.88,244.5c2.15,1.13,4.24,2.32,6.29,3.54l-3.44,5.86c-2-1.16-4-2.28-6-3.32Z"/><polygon class="cls-2" points="165.65 250.16 171.6 253.89 168.09 259.57 162.13 255.92 165.65 250.16"/><polygon class="cls-2" points="174.97 255.98 180.85 259.48 177.65 265.24 171.52 261.67 174.97 255.98"/><path class="cls-2" d="M184.15,261.25a12.41,12.41,0,0,0,5,1.46l-.05,6.48a18.56,18.56,0,0,1-7.76-2Z"/><path class="cls-2" d="M191.25,262.25a3.54,3.54,0,0,0,1.27-1,1.46,1.46,0,0,0,.26-.46,1.42,1.42,0,0,0,.08-.42l6.41.09a7.92,7.92,0,0,1-1.63,4.68,9.91,9.91,0,0,1-3.58,2.9Z"/><path class="cls-2" d="M192.34,258.92a4.5,4.5,0,0,0-.6-.72,5.21,5.21,0,0,0-.78-.63,10.43,10.43,0,0,0-2.27-1.1l2.13-6a16.19,16.19,0,0,1,3.66,1.77,11.08,11.08,0,0,1,3.15,3.07Z"/><path class="cls-2" d="M185.25,255.5c-2.18-.53-4.38-1-6.6-1.37l1.07-6.15c2.34.39,4.68.85,7,1.4Z"/><path class="cls-2" d="M97.73,245.42a65,65,0,0,1-6.86-2.87l2.46-5.05a60.64,60.64,0,0,0,6.29,2.59Z"/><path class="cls-2" d="M87.09,240.53a52.55,52.55,0,0,1-6.24-4.27l3.45-4.33a46.87,46.87,0,0,0,5.6,3.77Z"/><path class="cls-2" d="M77.58,233.41a48.75,48.75,0,0,1-5.07-5.67l4.34-3.31a42,42,0,0,0,4.53,5Z"/><path class="cls-2" d="M70,224.17a37.73,37.73,0,0,1-1.91-3.35c-.59-1.15-1.11-2.32-1.59-3.52l5-2a36.15,36.15,0,0,0,3.08,6Z"/><path class="cls-2" d="M65.14,213.14a44.82,44.82,0,0,1-1.43-7.51l5.27-.56a39,39,0,0,0,1.31,6.62Z"/><path class="cls-2" d="M63.46,201.28a49.12,49.12,0,0,1,.5-7.57l5.17.74a42.66,42.66,0,0,0-.4,6.77Z"/><path class="cls-2" d="M64.77,189.45a48.38,48.38,0,0,1,2.31-7.24l4.78,2a44.13,44.13,0,0,0-2,6.47Z"/><path class="cls-2" d="M68.91,178.26a50,50,0,0,1,4-6.43l4.13,3a44.75,44.75,0,0,0-3.56,5.79Z"/><path class="cls-2" d="M75.59,168.45a54.43,54.43,0,0,1,5.29-5.34l3.35,3.8a51.2,51.2,0,0,0-4.78,4.88Z"/><path class="cls-2" d="M84.19,160.39a61.19,61.19,0,0,1,6.23-4.14l2.52,4.35a54.85,54.85,0,0,0-5.69,3.82Z"/><path class="cls-2" d="M94.19,154.24a64.85,64.85,0,0,1,6.88-2.88l1.64,4.71a57.5,57.5,0,0,0-6.32,2.67Z"/><path class="cls-2" d="M105.14,150.1a67.37,67.37,0,0,1,7.28-1.56l.75,4.88a61.92,61.92,0,0,0-6.72,1.47Z"/><path class="cls-2" d="M116.62,148a72.87,72.87,0,0,1,7.38-.32l0,4.89a65.81,65.81,0,0,0-6.89.33Z"/><path class="cls-2" d="M128.22,147.85q3.67.22,7.31.79l-.75,4.81a69,69,0,0,0-6.87-.74Z"/><path class="cls-2" d="M139.66,149.38q3.59.74,7.1,1.77l-1.38,4.69q-3.31-1-6.71-1.69Z"/><path class="cls-2" d="M150.75,152.43q3.45,1.2,6.8,2.65l-2,4.49q-3.18-1.38-6.45-2.52Z"/><path class="cls-2" d="M161.33,156.8c2.18,1,4.33,2.18,6.43,3.37l-2.42,4.28c-2-1.14-4.06-2.22-6.14-3.22Z"/><path class="cls-2" d="M171.33,162.27q3.07,1.89,6,3.95l-2.82,4.05q-2.85-2-5.81-3.8Z"/><path class="cls-2" d="M180.73,168.61q2.9,2.14,5.67,4.42l-3.13,3.83c-1.8-1.46-3.62-2.89-5.49-4.27Z"/><path class="cls-2" d="M189.55,175.66c.91.77,1.78,1.58,2.67,2.37l2.66,2.38-3.38,3.66-2.59-2.33c-.87-.77-1.72-1.57-2.6-2.32Z"/><polygon class="cls-2" points="197.84 183.18 202.92 188.05 199.44 191.64 194.41 186.8 197.84 183.18"/><polygon class="cls-2" points="205.79 190.83 210.82 195.62 207.39 199.27 202.32 194.43 205.79 190.83"/><polygon class="cls-2" points="213.71 198.29 218.86 202.79 215.54 206.75 210.33 202.01 213.71 198.29"/><path class="cls-2" d="M221.87,205.24c1.77,1.39,3.57,2.72,5.42,4L224,214c-.93-.75-1.84-1.51-2.74-2.29s-1.82-1.51-2.71-2.29Z"/><path class="cls-2" d="M230.49,211.32c1.89,1.17,3.82,2.27,5.79,3.27l-3.19,6.31c-1-.69-2-1.41-3-2.14s-1.94-1.43-2.89-2.18Z"/><polygon class="cls-2" points="239.69 216.19 240.62 216.59 237.55 223.97 236.58 223.33 239.69 216.19"/><path class="cls-2" d="M153.34,224.88a4.81,4.81,0,0,1,4.92-4.6c2.76.06,5.58.21,8.45.48,1.12.09,2.28.23,3.42.34l3.47.5c1.17.2,2.33.37,3.51.6s2.34.49,3.52.79a75,75,0,0,1,14,4.68c2.27,1.08,4.5,2.21,6.67,3.51,1,.59,2,1.23,3,1.93a4.8,4.8,0,0,1,1.36,6.46L200,248.9a4.8,4.8,0,0,1-6.06,1.86,65.87,65.87,0,0,0-6.34-2.42,73.75,73.75,0,0,0-11.16-2.66,97.48,97.48,0,0,0-11.73-1.17c-2.38-.1-4.79-.15-7.23-.18a4.78,4.78,0,0,1-4.75-5Z"/><path class="cls-2" d="M210.15,246.38a4.81,4.81,0,0,1,7.73,1.26,25.91,25.91,0,0,1,1.52,3.85,24.69,24.69,0,0,1,1,5.52,24,24,0,0,1-.31,5.52,24.63,24.63,0,0,1-3.72,9.28,25.75,25.75,0,0,1-2.78,3.59,30.53,30.53,0,0,1-3.12,3,33.62,33.62,0,0,1-7.05,4.54,31.11,31.11,0,0,1-8,2.62,35.63,35.63,0,0,1-4.09.43c-1.07.06-2.15.09-3.22.05-.89,0-1.77-.08-2.65-.15a4.83,4.83,0,0,1-4.29-5.91l1.25-5.27a4.81,4.81,0,0,1,5.32-3.65l.46.05a20.22,20.22,0,0,0,2.33.13,19.29,19.29,0,0,0,2.15-.1,14,14,0,0,0,7.4-3.53,13.24,13.24,0,0,0,2.6-3.11,8.22,8.22,0,0,0,1.06-3.23,6.2,6.2,0,0,0-.42-3,4,4,0,0,0-.21-.47,4.74,4.74,0,0,1,1-5.37Z"/><path class="cls-1" d="M491.2,58.16l12.95.78c0-.94,0-1.88-.06-2.82-.65-14.78-2.69-29.18-8.17-43.24a4.83,4.83,0,0,0-8.84-.17c-7.71,12.13-12.71,25.85-16.56,39.38q-1.45,5.11-2.63,10.21l9.36,2.7-10.11.62c-.16.7-.29,1.39-.43,2.09L480.46,72l-14.88,1.51a267.5,267.5,0,0,0-4.11,39.84c-.5,11.17-1.81,22.94-5.7,33.57a216.41,216.41,0,0,0,.46-22.35c-.53-21.52-2.79-43.42-10.78-63.59a39.22,39.22,0,0,1-12.57,2.17s3.35-1.07,9.33-9.47c-4.28-8.13-10.81-14.85-16.71-21.81-3.82-4.42-7.4-9.06-11.1-13.52-4.95-5.92-10.1-11.5-15-17.34a2.74,2.74,0,0,0-4.82,1.62l-.14,3a131.5,131.5,0,0,0,1.74,24.91c.28,1.94.64,3.92,1.05,5.89,10.48,12.22,20.2,13,20.2,13a58.3,58.3,0,0,1-17.19-.64c.18.61.36,1.2.55,1.74.1.33.22.65.33,1a67.18,67.18,0,0,0,15.26.5c-3.33,3.34-10.63,4.85-13,5.27C405.05,61,407,64.73,409,68.43c4.6,9.11,10.12,18.64,15.32,27.75,9.42,15.9,15.85,33.65,17.72,52.06.17,1.55.3,3.12.42,4.69A112.09,112.09,0,0,0,256.66,148a108.75,108.75,0,0,0-7.77,12.57,106.41,106.41,0,0,0-5,10.68l-.17.44a109.65,109.65,0,0,0-3.62,10.66A178.52,178.52,0,0,0,213,218.49l-1.63,3,2.2,2.61c11.22,13.31,21.38,16.13,25.53,16.72a113.08,113.08,0,0,0,30.67,54.41,104.71,104.71,0,0,0,74,30.09c1.44,0,2.88,0,4.33-.08,23.72-.92,45.32-7.6,62.67-19.3a209.9,209.9,0,0,0,40.95,7.84l5.58.5-.14-5.61c-.77-30.31-3.79-49.84-4.69-55.11a109.13,109.13,0,0,0,4.77-15.6c.2-.86.38-1.74.55-2.56,0-.16.07-.32.09-.49A112.05,112.05,0,0,0,460,213.14a114.73,114.73,0,0,0-1.24-16.75c-.16-1-.32-2-.51-3.09-.38-2.13-.78-4.05-1.22-5.87a107.1,107.1,0,0,0-3.19-11c-.06-.19-.12-.37-.19-.54,14.29-6.5,23.31-21.32,30.66-34.37,13-23.32,19.27-48.63,19.84-74.68ZM449.64,204.45c-.09-1.08-.2-2.16-.32-3.24C449.45,202.29,449.55,203.37,449.64,204.45Zm-6.39,40.37-3.35-1.56a1.59,1.59,0,0,1-.78-2.11l.76-1.65a1.6,1.6,0,0,1,2.12-.78c1.21.56,2.34,1.08,3.37,1.57a1.65,1.65,0,0,1,.55.42c.53-1.44,1-2.82,1.34-4-.73,2.59-2.19,6.22-3.37,9.25l.41-1.06A1.54,1.54,0,0,1,443.25,244.82Zm.52,1.46c-.07.16-.13.32-.19.47C443.64,246.6,443.7,246.44,443.77,246.28Zm-.38,1-.11.27Zm-186.7-71.19a1.6,1.6,0,0,1,1.58-1.66c1.23,0,2.52,0,3.87.1a1.6,1.6,0,0,1,1.52,1.71l-.14,1.82a1.59,1.59,0,0,1-1.67,1.46c-1.22-.07-2.39-.1-3.5-.09a1.57,1.57,0,0,1-1.58-1.52Zm10.69,2.35.22-1.8a1.59,1.59,0,0,1,1.79-1.39c1.21.17,2.47.36,3.76.58a1.6,1.6,0,0,1,1.3,1.85l-.32,1.79a1.61,1.61,0,0,1-1.84,1.29c-1.22-.21-2.4-.39-3.54-.55A1.6,1.6,0,0,1,267.38,178.42Zm8.08-36.19c1.24-.1,2.54-.17,3.88-.2a1.59,1.59,0,0,1,1.65,1.58v1.81a1.59,1.59,0,0,1-1.54,1.6c-1.24,0-2.43.1-3.58.19a1.59,1.59,0,0,1-1.7-1.42L274,144A1.6,1.6,0,0,1,275.46,142.23Zm11.45,8.25c2.83.25,5.65.59,8.45.93,2.17.26,4.31.61,6.44,1s4.26.76,6.38,1.17c4.24.8,8.42,1.83,12.59,2.83q3.78.91,7.53,1.91a4.85,4.85,0,0,1,3.42,6.11l-4.78,15.65a4.84,4.84,0,0,1-6.07,3.22c-6.17-1.94-12.37-3.75-18.57-5.37s-12.47-3.06-18.69-4.22a4.84,4.84,0,0,1-3.9-5.45l1.94-13.62A4.88,4.88,0,0,1,286.91,150.48Zm-2-5,.07-1.8a1.59,1.59,0,0,1,1.66-1.54c1.25.06,2.54.15,3.85.26a1.59,1.59,0,0,1,1.45,1.74l-.16,1.8a1.62,1.62,0,0,1-1.74,1.44q-1.85-.15-3.6-.24A1.61,1.61,0,0,1,284.92,145.47Zm10.78.87.22-1.79a1.58,1.58,0,0,1,1.78-1.39c1.24.16,2.5.34,3.78.53a1.6,1.6,0,0,1,1.34,1.83l-.29,1.78a1.6,1.6,0,0,1-1.82,1.33c-1.23-.18-2.44-.36-3.62-.51A1.6,1.6,0,0,1,295.7,146.34ZM306.42,148l.32-1.78a1.58,1.58,0,0,1,1.85-1.29c1.22.22,2.47.46,3.73.71a1.6,1.6,0,0,1,1.25,1.89l-.36,1.77a1.61,1.61,0,0,1-1.89,1.24l-3.62-.69A1.6,1.6,0,0,1,306.42,148Zm10.65,2.12.39-1.76a1.6,1.6,0,0,1,1.9-1.22l3.69.85a1.6,1.6,0,0,1,1.18,1.93l-.42,1.76a1.61,1.61,0,0,1-1.93,1.18l-3.6-.84A1.59,1.59,0,0,1,317.07,150.08Zm26.28,12.42c2.58.75,5.14,1.52,7.69,2.34q6.07,1.93,12.1,4t12,4.16c2.43.85,4.85,1.75,7.27,2.65a4.87,4.87,0,0,1,2.81,6.34l-6.9,17.4a4.85,4.85,0,0,1-6.36,2.69c-12.16-5-24.41-9.71-36.75-14a4.85,4.85,0,0,1-3-6.05l5.17-16.31A4.86,4.86,0,0,1,343.35,162.5Zm-5.2-7.11.48-1.74a1.6,1.6,0,0,1,2-1.11c1.21.34,2.41.68,3.62,1a1.59,1.59,0,0,1,1.09,2l-.51,1.74a1.6,1.6,0,0,1-2,1.08l-3.57-1A1.59,1.59,0,0,1,338.15,155.39Zm10.43,3,.52-1.73a1.61,1.61,0,0,1,2-1.07l3.59,1.11a1.6,1.6,0,0,1,1.05,2l-.54,1.73a1.6,1.6,0,0,1-2,1l-3.55-1.09A1.6,1.6,0,0,1,348.58,158.42ZM359,161.65l.55-1.72a1.6,1.6,0,0,1,2-1l3.59,1.17a1.59,1.59,0,0,1,1,2l-.57,1.72a1.59,1.59,0,0,1-2,1L360,163.66A1.6,1.6,0,0,1,359,161.65Zm10.35,3.41.57-1.71a1.6,1.6,0,0,1,2-1l3.55,1.22a1.59,1.59,0,0,1,1,2l-.59,1.71a1.6,1.6,0,0,1-2,1l-3.52-1.21A1.58,1.58,0,0,1,369.31,165.06Zm10.28,3.55.6-1.7a1.6,1.6,0,0,1,2.05-1l3.53,1.26a1.59,1.59,0,0,1,1,2l-.61,1.7a1.59,1.59,0,0,1-2,1l-3.51-1.25A1.61,1.61,0,0,1,379.59,168.61Zm3,44L386,214a1.59,1.59,0,0,1,.85,2.08l-.71,1.68a1.59,1.59,0,0,1-2.08.85c-1.12-.48-2.26-1-3.39-1.42a1.59,1.59,0,0,1-.86-2.08l.69-1.68A1.59,1.59,0,0,1,382.59,212.57Zm-5.71-.65-.7,1.69a1.59,1.59,0,0,1-2.07.86l-3.41-1.4a1.59,1.59,0,0,1-.87-2.07l.68-1.68a1.59,1.59,0,0,1,2.08-.88l3.42,1.41A1.58,1.58,0,0,1,376.88,211.92Zm-10-4.07-.68,1.68a1.58,1.58,0,0,1-2.06.88l-3.42-1.36a1.6,1.6,0,0,1-.9-2.07l.67-1.69a1.62,1.62,0,0,1,2.08-.89l3.43,1.37A1.59,1.59,0,0,1,366.87,207.85Zm-10-4-.66,1.7a1.59,1.59,0,0,1-2.06.89l-3.44-1.34a1.58,1.58,0,0,1-.91-2l.65-1.69a1.59,1.59,0,0,1,2.06-.92l3.46,1.35A1.59,1.59,0,0,1,356.83,203.85ZM319.37,192l.58-1.72a1.6,1.6,0,0,1,2-1l3.51,1.22a1.6,1.6,0,0,1,1,2l-.61,1.71a1.59,1.59,0,0,1-2,1q-1.74-.62-3.48-1.2A1.6,1.6,0,0,1,319.37,192Zm10.18,3.55.61-1.71a1.59,1.59,0,0,1,2-1l3.48,1.26a1.6,1.6,0,0,1,.95,2l-.63,1.7a1.59,1.59,0,0,1-2,.95c-1.15-.43-2.31-.84-3.45-1.26A1.58,1.58,0,0,1,329.55,195.53Zm14.49,7-3.43-1.3a1.57,1.57,0,0,1-.93-2l.63-1.71a1.6,1.6,0,0,1,2.05-.94l3.45,1.3a1.61,1.61,0,0,1,.93,2.06l-.65,1.7A1.59,1.59,0,0,1,344,202.57Zm-9.23-50-.47,1.74a1.6,1.6,0,0,1-2,1.12l-3.59-.94a1.6,1.6,0,0,1-1.15-1.93l.44-1.75a1.6,1.6,0,0,1,1.95-1.16l3.64.95A1.61,1.61,0,0,1,334.81,152.6ZM316.23,189l-.58,1.72a1.59,1.59,0,0,1-2,1l-3.49-1.14a1.58,1.58,0,0,1-1-2l.55-1.73a1.59,1.59,0,0,1,2-1l3.53,1.15A1.61,1.61,0,0,1,316.23,189Zm-10.3-3.31-.54,1.74a1.59,1.59,0,0,1-2,1l-3.51-1a1.59,1.59,0,0,1-1.07-2l.51-1.74a1.59,1.59,0,0,1,2-1.09l3.57,1.07A1.61,1.61,0,0,1,305.93,185.7Zm-23.2-2.85-3.54-.79a1.58,1.58,0,0,1-1.23-1.87l.36-1.78a1.59,1.59,0,0,1,1.89-1.24c1.19.25,2.42.53,3.67.82a1.58,1.58,0,0,1,1.18,1.92l-.42,1.76A1.58,1.58,0,0,1,282.73,182.85Zm12.82-.21-.49,1.75a1.6,1.6,0,0,1-2,1.1l-3.53-1a1.58,1.58,0,0,1-1.13-1.93l.45-1.76a1.59,1.59,0,0,1,1.93-1.15l3.61,1A1.61,1.61,0,0,1,295.55,182.64Zm-24.38,5.61c2.75.54,5.71,1.19,8.85,1.94l1,.25a7.27,7.27,0,0,0,13,6.43,7.27,7.27,0,0,0,.71-2.69l1,.3c3.05.91,6.22,1.9,9.41,2.93a17.7,17.7,0,0,1-7.95,9.72,11.73,11.73,0,0,0-9.6,2.31,17.67,17.67,0,0,1-16.85-17.62A17.43,17.43,0,0,1,271.17,188.25ZM320,202.4c2.62.91,5.46,1.93,8.78,3.13l1,.36c-.15.24-.32.47-.45.73a7.28,7.28,0,0,0,3.28,9.75,7.33,7.33,0,0,0,3.23.76,7.46,7.46,0,0,0,2.32-.38,7.23,7.23,0,0,0,4.87-5.89l.95.37c3,1.14,6,2.33,9.07,3.54a17.64,17.64,0,0,1-33-12.37Zm69.75,16.88.71-1.67a1.59,1.59,0,0,1,2.09-.84l3.4,1.45a1.58,1.58,0,0,1,.83,2.09l-.72,1.67a1.58,1.58,0,0,1-2.08.84l-3.39-1.45A1.59,1.59,0,0,1,389.76,219.28Zm9.92,4.25.72-1.67a1.6,1.6,0,0,1,2.1-.82l3.39,1.47a1.58,1.58,0,0,1,.82,2.09l-.73,1.67a1.59,1.59,0,0,1-2.09.82l-3.38-1.47A1.59,1.59,0,0,1,399.68,223.53Zm9.89,4.31.73-1.66a1.61,1.61,0,0,1,2.11-.82l3.38,1.5a1.59,1.59,0,0,1,.81,2.1l-.74,1.66a1.59,1.59,0,0,1-2.1.81l-3.37-1.49A1.6,1.6,0,0,1,409.57,227.84Zm9.87,4.38.75-1.66a1.58,1.58,0,0,1,2.1-.8l3.38,1.51a1.58,1.58,0,0,1,.79,2.1l-.74,1.66a1.59,1.59,0,0,1-2.1.8l-3.37-1.51A1.6,1.6,0,0,1,419.44,232.22Zm16.87,5.63-.76,1.65a1.6,1.6,0,0,1-2.11.79l-3.35-1.53a1.6,1.6,0,0,1-.8-2.11L430,235a1.6,1.6,0,0,1,2.11-.79l3.37,1.54A1.6,1.6,0,0,1,436.31,237.85ZM428.56,222a4.85,4.85,0,0,1-6.49,2.35q-17.86-8.52-36-16.36a4.85,4.85,0,0,1-2.59-6.26l7.19-17.81a4.84,4.84,0,0,1,6.27-2.7q3.66,1.44,7.31,2.91c3.9,1.6,7.79,3.24,11.67,4.89s7.75,3.33,11.6,5.05l7.08,3.27a4.85,4.85,0,0,1,2.38,6.43ZM389.83,172.3l.63-1.7a1.6,1.6,0,0,1,2.05-.95L396,171A1.59,1.59,0,0,1,397,173l-.63,1.69a1.59,1.59,0,0,1-2.05.94l-3.49-1.3A1.6,1.6,0,0,1,389.83,172.3ZM400,176.09l.63-1.68a1.61,1.61,0,0,1,2.07-.93l3.51,1.34a1.6,1.6,0,0,1,.91,2.07l-.65,1.68a1.6,1.6,0,0,1-2.06.92L401,178.15A1.59,1.59,0,0,1,400,176.09ZM410.2,180l.65-1.68a1.62,1.62,0,0,1,2.08-.91l3.49,1.38a1.58,1.58,0,0,1,.89,2.07l-.66,1.68a1.6,1.6,0,0,1-2.07.9l-3.47-1.37A1.6,1.6,0,0,1,410.2,180Zm10.12,4,.68-1.68a1.6,1.6,0,0,1,2.08-.88l3.48,1.41a1.59,1.59,0,0,1,.87,2.08l-.68,1.67a1.6,1.6,0,0,1-2.08.88l-3.46-1.4A1.61,1.61,0,0,1,420.32,184Zm16.49,6.77a1.59,1.59,0,0,1-2.08.86l-3.45-1.44a1.6,1.6,0,0,1-.87-2.08l.69-1.67a1.6,1.6,0,0,1,2.09-.87l3.47,1.45a1.59,1.59,0,0,1,.85,2.09Zm3.65,1.54.71-1.66a1.6,1.6,0,0,1,2.1-.84l3.46,1.48a1.6,1.6,0,0,1,.83,2.1l-.72,1.65a1.59,1.59,0,0,1-2.09.84l-3.44-1.47A1.61,1.61,0,0,1,440.46,192.32ZM270.29,146.85c-.94,1.11-1.87,2.23-2.77,3.39C268.42,149.08,269.35,148,270.29,146.85Zm3.43-3.83c-1,1.07-2,2.18-3,3.31C271.71,145.2,272.7,144.09,273.72,143Zm-16,22.29a100.45,100.45,0,0,1,7.08-11.45c.88-1.23,1.8-2.43,2.73-3.62.94-.07,1.88-.12,2.83-.15h.33a4.84,4.84,0,0,1,5,5.39l-1.32,11.82a4.83,4.83,0,0,1-5.26,4.29c-3.63-.36-7.22-.57-10.71-.57a4.67,4.67,0,0,1-3-1.06q-.6,1.28-1.17,2.58C255.29,170.06,256.46,167.64,257.71,165.31Zm-3.5,7.25c-.38.87-.75,1.75-1.1,2.64C253.46,174.31,253.83,173.43,254.21,172.56Zm93.52,142.69c-53.8,2.09-98.37-40-101.72-95.89,1.23-6.63,5.71-23.77,13.5-32.18l.55-.6c1.93.19,4,.45,6.17.8a22.36,22.36,0,0,0-.45,4.44,22.69,22.69,0,0,0,18.77,22.31,11.47,11.47,0,0,0-.11,6,16.25,16.25,0,0,0,15.21,12c.35,0,.7,0,1.05,0a2.5,2.5,0,1,0-.41-5,10.47,10.47,0,0,1-7.12-2.38A10.63,10.63,0,0,1,289.3,219a5.82,5.82,0,0,1,.87-5c2.24-2.84,7.18-2.71,11.07.28a29.31,29.31,0,0,1,4.17,5.22,2.5,2.5,0,0,0,4.34-2.49,33.93,33.93,0,0,0-5.08-6.37l-.22-.2a17.36,17.36,0,0,0-1.63-1.11A22.79,22.79,0,0,0,309.93,199c1.82.61,3.6,1.2,5.34,1.8a22.65,22.65,0,0,0,42.41,15.87c5,2,10.14,4.09,15.28,6.22a238.68,238.68,0,0,1-10.53,51.94l-.95,2.91,2.17,2.17c.62.62,1.26,1.23,1.9,1.83l.63.57c.45.42.91.83,1.38,1.24l.74.63c.46.39.92.78,1.39,1.16l.75.6c.53.43,1.08.85,1.64,1.27l.55.42c.74.56,1.5,1.11,2.27,1.65l.5.33c.61.43,1.24.85,1.87,1.26l.82.53c.55.35,1.1.7,1.66,1l.89.54,1.75,1,.82.47,2.39,1.31.25.13c.9.47,1.81.94,2.73,1.39l.8.39c.67.32,1.34.65,2,1l1,.46,2,.87,1,.43c.72.31,1.45.61,2.19.91l.81.33.25.1C384,309.86,366.65,314.51,347.73,315.25Zm100.34-82.17-.05.29c-.16.79-.33,1.58-.52,2.39-.06.3-.15.62-.24,1a5,5,0,0,1-.81-.31L435.75,231a4.85,4.85,0,0,1-2.21-6.38l8.56-18.36a4.86,4.86,0,0,1,6.53-2.31l1,.5c.25,2.89.38,5.79.38,8.67A101.9,101.9,0,0,1,448.07,233.08Z"/><path class="cls-1" d="M189.82,402.7l-4.12,59.19q-.49,7.25-3.85,10.46t-9.18,3.21l-1.09,20.11q17.86,0,27.36-8.85t10.36-25.93l4-71.17-10.48,5.79-7.76-1.44L194,400.41Z"/><path class="cls-1" d="M230.17,354.94h22.14l-4.86,140.73h-24Z"/></g></svg>