<svg xmlns="http://www.w3.org/2000/svg" viewBox="0 0 1022.15 325.32"><defs><style>.cls-1{fill:#f2f2f2;}.cls-2{fill:#221b8e;}</style></defs><g id="Camada_3" data-name="Camada 3"><path class="cls-1" d="M117.73,264.8a9.83,9.83,0,0,1-6.81-3.06,7.84,7.84,0,0,1-2.12-5.66,9.24,9.24,0,0,1,5.88-8.42A2.5,2.5,0,0,0,113,243a14.22,14.22,0,0,0-9.16,12.9,12.17,12.17,0,0,0,0,1.6,31.12,31.12,0,0,1-12.47,5.1c-10.06,1.37-22.13-2.89-25.82-18.94a2.5,2.5,0,0,0-4.87,1.12c3.94,17.17,16.37,23.05,27.29,23.05a30.13,30.13,0,0,0,4.07-.27,35,35,0,0,0,13.29-5.08,13.61,13.61,0,0,0,1.9,2.68,14.82,14.82,0,0,0,10.28,4.67h.11a2.5,2.5,0,0,0,.1-5Z"/><path class="cls-1" d="M462.91,137.21h33.81q16.5,0,24.21,8.85T527.76,172l-4,71.17q-1,17.09-10.36,25.93T486,277.94H449.4Zm24.21,120.62q5.82,0,9.18-3.21t3.85-10.46L505.24,171q.51-7.25-2.23-10.46t-8.22-3.21H483.38l-8.33,100.51Z"/><path class="cls-1" d="M749.91,137.21h58.57l1.15,20.11H772.77l1.41,39.2h29.58l1.06,20.1H774.9l2.2,61.32h-24Z"/><path class="cls-1" d="M819.15,137.21h22.14l9.26,120.62h39l2,20.11H828.12Z"/><path class="cls-1" d="M888.38,137.21h22.14L927.1,277.94h-24Z"/><path class="cls-1" d="M956.11,206l-33.92-68.76h23.35l21.59,45.44h.41l8.59-45.44h20.93L983.34,206l38.81,72H996.86l-24.62-49.06h-.42l-10.71,49.06H938.43Z"/><polygon class="cls-1" points="426.68 137.21 416.79 221.45 416.37 221.45 404.74 137.21 376.97 137.21 391.97 175.21 406.88 277.94 431.52 277.94 446.41 137.21 426.68 137.21"/><path class="cls-2" d="M739.3,207.58a81,81,0,1,0-81,81A81,81,0,0,0,739.3,207.58Zm-36.73-34a19.69,19.69,0,0,1-.1,39.37,19.69,19.69,0,1,1,.1-39.37Zm-44.12-32.13A19.64,19.64,0,1,1,638.6,161.1,19.64,19.64,0,0,1,658.45,141.44ZM679,202.61a5.08,5.08,0,1,1-5-5.08A5.1,5.1,0,0,1,679,202.61Zm-15.7-11.42a5,5,0,1,1-10-.06,5,5,0,1,1,10,.06Zm-20.58,6.28a5,5,0,1,1-5.13,5A5.09,5.09,0,0,1,642.67,197.47Zm-48.34-4.33a19.69,19.69,0,1,1,19.52,19.8A19.74,19.74,0,0,1,594.33,193.14ZM631,264.91a19.67,19.67,0,1,1,19.55-19.67A19.77,19.77,0,0,1,631,264.91Zm17.57-39a5,5,0,1,1,.05-10,5,5,0,0,1-.05,10Zm2.36-18.23a7.35,7.35,0,1,1,7.41,7.23A7.29,7.29,0,0,1,650.9,207.68ZM662.84,221a5,5,0,0,1,10.08-.08,5,5,0,0,1-10.08.08Zm23,44A19.67,19.67,0,1,1,705.24,245,19.67,19.67,0,0,1,685.83,264.91Z"/><path class="cls-2" d="M668.48,279.77a4.72,4.72,0,0,1-3.55,6A55.75,55.75,0,0,1,654,286.83a63.16,63.16,0,0,1-10.14-.84,4.72,4.72,0,0,1-3.81-5.75l1.9-8.08a4.73,4.73,0,0,1,5.33-3.58,47.58,47.58,0,0,0,6.72.49,39.44,39.44,0,0,0,5.44-.52c.38-.06.75-.14,1.12-.22A4.7,4.7,0,0,1,666,271.6Z"/><path class="cls-2" d="M581,249.49a4.72,4.72,0,0,1-6.64,1c-5.52-4.13-10.77-8.14-16-11.73-3.19-2.21-6.35-4.26-9.51-6.08q-2.77-1.62-5.64-3A4.7,4.7,0,0,1,541,223.5l7.9-17.95a4.75,4.75,0,0,1,6.87-2.1,77.82,77.82,0,0,1,7,5,113.55,113.55,0,0,1,10,9.3c1.55,1.6,3.05,3.22,4.53,4.83l4.4,4.76c2,2.11,3.92,4.18,5.92,6.16a4.73,4.73,0,0,1,.48,6.16Z"/><path class="cls-2" d="M529.74,224.12A105.35,105.35,0,0,0,495.57,219a4.73,4.73,0,0,1-4.81-4.44l-1.26-21.44a4.74,4.74,0,0,1,4.7-5,135.44,135.44,0,0,1,37,5c3,.84,5.93,1.76,8.83,2.8a4.75,4.75,0,0,1,2.88,6.13l-7.26,19.29A4.73,4.73,0,0,1,529.74,224.12Z"/><path class="cls-2" d="M485,215a4.74,4.74,0,0,1-4,5.2q-3.14.5-6.24,1.19a106.65,106.65,0,0,0-10.56,3c-5.72,1.92-11.53,4.32-17.47,6.95a4.73,4.73,0,0,1-6.23-2.37l-9.22-20.35a4.73,4.73,0,0,1,2.43-6.29c6.47-2.79,13.25-5.53,20.45-7.87,2.21-.72,4.46-1.4,6.75-2s4.62-1.2,7-1.67c3.1-.64,6.22-1.16,9.35-1.58a4.74,4.74,0,0,1,5.3,4.17Z"/><path class="cls-2" d="M434.68,231.6a4.72,4.72,0,0,1-2.34,6.27c-6.3,2.85-12.84,5.72-19.76,8.27-4.27,1.58-8.65,3-13,4.23q-4.25,1.19-8.54,2.16a4.73,4.73,0,0,1-5.69-3.69l-4.43-22.31a4.74,4.74,0,0,1,3.59-5.53c2.15-.49,4.27-1,6.38-1.61,3.59-1,7.1-2.13,10.61-3.42,5.72-2.1,11.6-4.55,17.67-7.21a4.71,4.71,0,0,1,6.19,2.36Z"/><path class="cls-2" d="M374.59,255.47a220.83,220.83,0,0,1-43.93,1.25,4.74,4.74,0,0,1-4.41-5.12l1.91-22.48a4.71,4.71,0,0,1,4.95-4.32c6.23.35,12.43.45,18.58.24,3.82-.11,7.62-.4,11.39-.71q3.36-.29,6.69-.72a4.73,4.73,0,0,1,5.28,3.94L378.64,250A4.73,4.73,0,0,1,374.59,255.47Z"/><path class="cls-2" d="M314.33,255.14a363.65,363.65,0,0,1-41.87-8,4.73,4.73,0,0,1-3.42-5.77l5.43-21a4.73,4.73,0,0,1,5.58-3.43q3.68.81,7.35,1.54c3.92.8,7.83,1.58,11.75,2.25s7.83,1.3,11.73,1.83q3.51.48,7,.85a4.73,4.73,0,0,1,4.19,5.21L319.64,251A4.73,4.73,0,0,1,314.33,255.14Z"/><path class="cls-2" d="M256.86,242.92,243,238.82a4.74,4.74,0,0,1-3.17-6l6.27-19.74a4.73,4.73,0,0,1,5.68-3.15l6.77,1.73c2.14.56,4.29,1.1,6.43,1.65a4.75,4.75,0,0,1,3.38,5.83l-5.6,20.47A4.71,4.71,0,0,1,256.86,242.92Z"/><path class="cls-2" d="M633.72,264.69a19.13,19.13,0,0,1-2.75.22,19.72,19.72,0,0,1-18-11.76l-2.77-1.76c-.88-.55-1.75-1.15-2.62-1.73s-1.67-1.14-2.49-1.72q-2.94-2.07-5.77-4.31a4.73,4.73,0,0,0-6.78,1l-6.16,8.71a4.73,4.73,0,0,0,1.2,6.64q3.6,2.43,7.42,4.75,1.5.9,3,1.77l2.7,1.53,5.57,3.15c3.78,2.11,7.74,4.23,11.9,6.23,2.75,1.32,5.6,2.58,8.57,3.74a4.73,4.73,0,0,0,6.25-2.88l2.71-8.08A4.7,4.7,0,0,0,633.72,264.69Z"/><path class="cls-2" d="M605.35,245.38c-.93-.83-1.88-1.68-2.85-2.58a1.59,1.59,0,0,1-.08-2.25l1.93-2.06a1.59,1.59,0,0,1,2.24-.08c.93.86,1.83,1.67,2.72,2.46a1.59,1.59,0,0,1,.14,2.24l-1.86,2.13A1.58,1.58,0,0,1,605.35,245.38Z"/><path class="cls-2" d="M597.27,237.85l-2.71-2.66a1.59,1.59,0,0,1,0-2.25l2-2a1.58,1.58,0,0,1,2.24,0l2.66,2.6a1.58,1.58,0,0,1,0,2.24l-2,2A1.6,1.6,0,0,1,597.27,237.85Z"/><path class="cls-2" d="M589.49,230.12l-2.65-2.67a1.6,1.6,0,0,1,0-2.25l2-2a1.58,1.58,0,0,1,2.24,0l2.65,2.67a1.59,1.59,0,0,1,0,2.25l-2,2A1.59,1.59,0,0,1,589.49,230.12Z"/><path class="cls-2" d="M581.82,222.4l-2.65-2.62a1.58,1.58,0,0,1,0-2.24l2-2a1.58,1.58,0,0,1,2.25,0q1.35,1.32,2.7,2.67a1.59,1.59,0,0,1,0,2.25l-2,2A1.58,1.58,0,0,1,581.82,222.4Z"/><path class="cls-2" d="M334.3,220.08l.09-2.83a1.58,1.58,0,0,1,1.61-1.53l3.71.05a1.57,1.57,0,0,1,1.56,1.58v2.83a1.58,1.58,0,0,1-1.59,1.59c-1.1,0-2.57,0-3.85-.06A1.57,1.57,0,0,1,334.3,220.08Z"/><path class="cls-2" d="M345.27,220.14l-.06-2.83a1.58,1.58,0,0,1,1.54-1.61c1.23,0,2.46-.09,3.67-.15a1.58,1.58,0,0,1,1.67,1.48l.16,2.83a1.58,1.58,0,0,1-1.49,1.68c-1.28.06-2.57.11-3.86.15A1.58,1.58,0,0,1,345.27,220.14Z"/><path class="cls-2" d="M328.64,221.42l-3.84-.27a1.59,1.59,0,0,1-1.46-1.71l.24-2.83a1.59,1.59,0,0,1,1.71-1.44c1.23.1,2.46.18,3.68.25a1.59,1.59,0,0,1,1.49,1.66l-.15,2.83A1.59,1.59,0,0,1,328.64,221.42Z"/><path class="cls-2" d="M356.24,219.58l-.23-2.83a1.58,1.58,0,0,1,1.44-1.7c1.22-.11,2.44-.23,3.65-.37a1.58,1.58,0,0,1,1.75,1.38l.34,2.81a1.58,1.58,0,0,1-1.39,1.77c-1.27.14-2.56.27-3.84.39A1.59,1.59,0,0,1,356.24,219.58Z"/><path class="cls-2" d="M317.63,220.48l-3.82-.46a1.6,1.6,0,0,1-1.37-1.79l.38-2.8a1.58,1.58,0,0,1,1.77-1.36c1.23.16,2.45.3,3.67.44a1.57,1.57,0,0,1,1.4,1.73l-.29,2.82A1.59,1.59,0,0,1,317.63,220.48Z"/><path class="cls-2" d="M367.15,218.34l-.41-2.81a1.59,1.59,0,0,1,1.31-1.79c1.2-.19,2.61-.43,3.65-.61a1.57,1.57,0,0,1,1.82,1.26l.53,2.79a1.58,1.58,0,0,1-1.28,1.85c-1.09.19-2.55.44-3.8.64A1.59,1.59,0,0,1,367.15,218.34Z"/><path class="cls-2" d="M306.68,219l-3.79-.63a1.6,1.6,0,0,1-1.28-1.85l.52-2.79a1.58,1.58,0,0,1,1.83-1.27c1.22.22,2.43.42,3.65.62a1.57,1.57,0,0,1,1.31,1.8l-.43,2.8A1.58,1.58,0,0,1,306.68,219Z"/><path class="cls-2" d="M378,216.42l-.57-2.78a1.59,1.59,0,0,1,1.22-1.87c1.2-.25,2.4-.52,3.61-.8a1.59,1.59,0,0,1,1.9,1.17l.65,2.76a1.58,1.58,0,0,1-1.18,1.91l-3.75.84A1.59,1.59,0,0,1,378,216.42Z"/><path class="cls-2" d="M295.83,217c-1.25-.26-2.51-.53-3.76-.81a1.58,1.58,0,0,1-1.19-1.9l.64-2.76a1.58,1.58,0,0,1,1.89-1.19c1.2.27,2.41.53,3.61.78a1.59,1.59,0,0,1,1.24,1.86l-.56,2.78A1.58,1.58,0,0,1,295.83,217Z"/><path class="cls-2" d="M574.06,214.86c-.93-.87-1.82-1.7-2.7-2.5a1.59,1.59,0,0,1-.12-2.24l1.89-2.1a1.57,1.57,0,0,1,2.24-.12l2.82,2.6a1.61,1.61,0,0,1,.06,2.26l-2,2A1.58,1.58,0,0,1,574.06,214.86Z"/><path class="cls-2" d="M388.64,214l-.7-2.75a1.59,1.59,0,0,1,1.13-1.92l3.58-1a1.58,1.58,0,0,1,2,1.09l.77,2.72a1.58,1.58,0,0,1-1.09,2c-1.25.35-2.49.68-3.71,1A1.58,1.58,0,0,1,388.64,214Z"/><path class="cls-2" d="M285.08,214.51c-1.23-.31-2.47-.64-3.71-1a1.59,1.59,0,0,1-1.11-2l.76-2.73a1.58,1.58,0,0,1,1.94-1.1c1.19.33,2.39.64,3.59.95a1.57,1.57,0,0,1,1.14,1.9l-.68,2.76A1.58,1.58,0,0,1,285.08,214.51Z"/><path class="cls-2" d="M399.2,211l-.82-2.71a1.59,1.59,0,0,1,1.06-2l3.54-1.11a1.59,1.59,0,0,1,2,1l.88,2.69a1.59,1.59,0,0,1-1,2l-3.66,1.15A1.58,1.58,0,0,1,399.2,211Z"/><path class="cls-2" d="M274.46,211.56l-3.67-1.14a1.59,1.59,0,0,1-1-2l.88-2.7a1.58,1.58,0,0,1,2-1l3.53,1.1a1.57,1.57,0,0,1,1.06,2l-.8,2.71A1.58,1.58,0,0,1,274.46,211.56Z"/><path class="cls-2" d="M409.62,207.67l-.91-2.68a1.58,1.58,0,0,1,1-2c1.16-.4,2.33-.82,3.5-1.24a1.6,1.6,0,0,1,2,.95l1,2.66a1.58,1.58,0,0,1-.95,2l-3.6,1.28A1.6,1.6,0,0,1,409.62,207.67Z"/><path class="cls-2" d="M566.05,207.71c-.94-.8-1.88-1.57-2.81-2.31a1.59,1.59,0,0,1-.26-2.22l1.73-2.23a1.59,1.59,0,0,1,2.24-.27q1.49,1.19,3,2.46a1.6,1.6,0,0,1,.18,2.25l-1.84,2.14A1.6,1.6,0,0,1,566.05,207.71Z"/><path class="cls-2" d="M264,208.13c-1.21-.42-2.41-.85-3.61-1.3a1.57,1.57,0,0,1-.93-2l1-2.65a1.58,1.58,0,0,1,2-.93c1.16.43,2.32.85,3.48,1.25a1.59,1.59,0,0,1,1,2l-.92,2.68A1.58,1.58,0,0,1,264,208.13Z"/><path class="cls-2" d="M419.92,204l-1-2.65a1.58,1.58,0,0,1,.91-2c1-.39,2.3-.9,3.46-1.37a1.59,1.59,0,0,1,2.05.87l1.08,2.63a1.59,1.59,0,0,1-.88,2.07l-3.56,1.4A1.58,1.58,0,0,1,419.92,204Z"/><path class="cls-2" d="M253.67,204.27l-3.49-1.33a1.6,1.6,0,0,1-.92-2l1-2.65a1.59,1.59,0,0,1,2.05-.93l3.55,1.37a1.57,1.57,0,0,1,.9,2.05l-1,2.64A1.57,1.57,0,0,1,253.67,204.27Z"/><path class="cls-2" d="M557.64,201.17c-1-.7-2-1.38-3-2a1.59,1.59,0,0,1-.47-2.19l1.52-2.38a1.59,1.59,0,0,1,2.2-.48q1.62,1.07,3.24,2.22a1.59,1.59,0,0,1,.35,2.23l-1.67,2.28A1.6,1.6,0,0,1,557.64,201.17Z"/><path class="cls-2" d="M430.08,199.88l-1.1-2.62a1.57,1.57,0,0,1,.85-2.06l2.56-1.09.91-.38a1.58,1.58,0,0,1,2.07.84l1.1,2.62a1.58,1.58,0,0,1-.84,2.07l-.9.38-2.58,1.09A1.58,1.58,0,0,1,430.08,199.88Z"/><path class="cls-2" d="M440.12,195.66,439,193a1.57,1.57,0,0,1,.87-2.07c1.26-.52,2.43-1,3.54-1.43a1.59,1.59,0,0,1,2.06.91l1,2.64a1.57,1.57,0,0,1-.89,2c-1.08.43-2.21.88-3.44,1.39A1.59,1.59,0,0,1,440.12,195.66Z"/><path class="cls-2" d="M548.72,195.5c-1-.58-2.09-1.14-3.14-1.67a1.6,1.6,0,0,1-.73-2.11l1.23-2.55a1.59,1.59,0,0,1,2.14-.73c1.16.59,2.33,1.21,3.49,1.86a1.59,1.59,0,0,1,.59,2.18l-1.43,2.45A1.58,1.58,0,0,1,548.72,195.5Z"/><path class="cls-2" d="M450.21,191.72l-1-2.67a1.58,1.58,0,0,1,1-2c1.27-.44,2.49-.85,3.7-1.24a1.58,1.58,0,0,1,2,1.06l.83,2.71a1.59,1.59,0,0,1-1.05,2c-1.12.36-2.26.74-3.44,1.15A1.58,1.58,0,0,1,450.21,191.72Z"/><path class="cls-2" d="M539.25,191c-1.1-.44-2.21-.86-3.33-1.25a1.58,1.58,0,0,1-1-2l.89-2.68a1.59,1.59,0,0,1,2-1c1.25.44,2.49.91,3.71,1.4a1.59,1.59,0,0,1,.86,2.09l-1.1,2.61A1.58,1.58,0,0,1,539.25,191Z"/><path class="cls-2" d="M460.88,190l-1.54-5.8,2.17-.55c1.56-.37,3.13-.73,4.7-1.08l1.29,5.86c-1.54.34-3.06.69-4.58,1.06C462.24,189.64,461.55,189.81,460.88,190Z"/><path class="cls-2" d="M529.27,187.66c-1.15-.3-2.31-.58-3.48-.85a1.57,1.57,0,0,1-1.22-1.86l.57-2.77A1.58,1.58,0,0,1,527,181c1.29.28,2.57.59,3.83.93a1.59,1.59,0,0,1,1.11,2l-.77,2.72A1.58,1.58,0,0,1,529.27,187.66Z"/><path class="cls-2" d="M471,186.07l-.55-2.77a1.59,1.59,0,0,1,1.26-1.87c1.26-.24,2.53-.47,3.79-.68a1.58,1.58,0,0,1,1.82,1.31l.46,2.79a1.6,1.6,0,0,1-1.31,1.82c-1.19.2-2.4.42-3.61.65A1.59,1.59,0,0,1,471,186.07Z"/><path class="cls-2" d="M481.67,184.27l-.39-2.8a1.61,1.61,0,0,1,1.37-1.8c1.29-.16,2.57-.32,3.84-.45a1.59,1.59,0,0,1,1.74,1.43l.27,2.81a1.58,1.58,0,0,1-1.41,1.73c-1.2.13-2.42.27-3.64.43A1.59,1.59,0,0,1,481.67,184.27Z"/><path class="cls-2" d="M518.93,185.54c-1.18-.17-2.38-.33-3.58-.46a1.6,1.6,0,0,1-1.41-1.73l.28-2.81a1.6,1.6,0,0,1,1.76-1.43c1.3.15,2.6.32,3.89.51a1.59,1.59,0,0,1,1.32,1.83l-.46,2.79A1.57,1.57,0,0,1,518.93,185.54Z"/><path class="cls-2" d="M492.42,183.13l-.2-2.81a1.58,1.58,0,0,1,1.48-1.7c1.3-.08,2.6-.14,3.88-.19a1.59,1.59,0,0,1,1.63,1.56l.06,2.82a1.58,1.58,0,0,1-1.53,1.62c-1.2,0-2.42.1-3.64.17A1.58,1.58,0,0,1,492.42,183.13Z"/><path class="cls-2" d="M508.38,184.51c-1.2-.06-2.41-.1-3.62-.13a1.59,1.59,0,0,1-1.57-1.59l0-2.83a1.6,1.6,0,0,1,1.62-1.58c1.31,0,2.61.07,3.9.14a1.58,1.58,0,0,1,1.49,1.69L510,183A1.58,1.58,0,0,1,508.38,184.51Z"/><path class="cls-2" d="M611.32,247l-.69.82a1.6,1.6,0,0,0,.21,2.25c.44.36.88.69,1.32,1A19.34,19.34,0,0,1,611.32,247Z"/><path class="cls-2" d="M617.64,278.44c-1.26-.26-2.55-.58-3.9-.95a1.61,1.61,0,0,1-1.13-2l.8-2.69a1.59,1.59,0,0,1,1.94-1.09c1.21.33,2.36.61,3.47.85a1.58,1.58,0,0,1,1.23,1.84l-.49,2.76A1.61,1.61,0,0,1,617.64,278.44Z"/><path class="cls-2" d="M606.71,275.26,603.09,274a1.6,1.6,0,0,1-1-2.05l1-2.63a1.61,1.61,0,0,1,2-1l3.54,1.27a1.6,1.6,0,0,1,1,2l-.9,2.65A1.6,1.6,0,0,1,606.71,275.26Z"/><path class="cls-2" d="M598.37,270.6a1.61,1.61,0,0,1-2,1c-1.21-.4-2.33-.75-3.38-1.06l-.21-.06a1.61,1.61,0,0,1-1-2.06l.93-2.65a1.61,1.61,0,0,1,2-1h0c1.13.33,2.32.7,3.61,1.13a1.61,1.61,0,0,1,1,2Z"/><path class="cls-2" d="M585.69,267.59c-1.15-.6-2.32-1.26-3.54-2a1.62,1.62,0,0,1-.53-2.25l1.5-2.35a1.61,1.61,0,0,1,2.17-.52c1.07.65,2.09,1.22,3.08,1.74a1.59,1.59,0,0,1,.71,2.09l-1.2,2.54A1.61,1.61,0,0,1,585.69,267.59Z"/><path class="cls-2" d="M349.24,266.79h-1.58a1.58,1.58,0,0,1-1.57-1.61l0-2.83a1.58,1.58,0,0,1,1.59-1.56c1.26,0,2.51,0,3.76,0a1.58,1.58,0,0,1,1.6,1.55l.05,2.83a1.59,1.59,0,0,1-1.57,1.62Z"/><path class="cls-2" d="M340.42,266.62l-3.9-.19a1.58,1.58,0,0,1-1.49-1.69l.18-2.83a1.57,1.57,0,0,1,1.66-1.47l3.77.18a1.58,1.58,0,0,1,1.52,1.63l-.1,2.83A1.58,1.58,0,0,1,340.42,266.62Z"/><path class="cls-2" d="M357.16,265.05l-.1-2.83a1.58,1.58,0,0,1,1.51-1.64c1.25-.05,2.51-.12,3.75-.2a1.58,1.58,0,0,1,1.68,1.47l.2,2.83a1.59,1.59,0,0,1-1.48,1.69c-1.29.08-2.6.15-3.91.21A1.58,1.58,0,0,1,357.16,265.05Z"/><path class="cls-2" d="M331,264.45a1.58,1.58,0,0,1-1.71,1.46c-1.52-.13-3.06-.28-4.59-.45l-.88-.09.66-6,.86.09c1.48.16,3,.31,4.46.44a1.58,1.58,0,0,1,1.43,1.7Z"/><path class="cls-2" d="M368.21,264.35l-.26-2.82a1.59,1.59,0,0,1,1.43-1.72c1.24-.12,2.49-.26,3.72-.4a1.57,1.57,0,0,1,1.76,1.36l.36,2.82a1.58,1.58,0,0,1-1.38,1.77c-1.29.15-2.59.3-3.9.43A1.6,1.6,0,0,1,368.21,264.35Z"/><path class="cls-2" d="M318.27,264.73l-3.84-.46a1.6,1.6,0,0,1-1.38-1.78l.37-2.81a1.58,1.58,0,0,1,1.77-1.37c1.26.16,2.52.32,3.78.46a1.59,1.59,0,0,1,1.38,1.76l-.33,2.81A1.57,1.57,0,0,1,318.27,264.73Z"/><path class="cls-2" d="M379.21,263l-.42-2.8a1.59,1.59,0,0,1,1.33-1.79l3.69-.62a1.56,1.56,0,0,1,1.83,1.26l.53,2.78a1.59,1.59,0,0,1-1.27,1.86c-1.28.23-2.58.44-3.88.65A1.58,1.58,0,0,1,379.21,263Z"/><path class="cls-2" d="M307.29,263.32l-3.82-.54a1.58,1.58,0,0,1-1.34-1.8l.41-2.8a1.58,1.58,0,0,1,1.8-1.33l3.77.53a1.58,1.58,0,0,1,1.35,1.78l-.38,2.81A1.59,1.59,0,0,1,307.29,263.32Z"/><path class="cls-2" d="M390.12,261.07l-.59-2.77a1.58,1.58,0,0,1,1.21-1.87c1.22-.27,2.44-.56,3.64-.85a1.57,1.57,0,0,1,1.91,1.14l.7,2.74a1.58,1.58,0,0,1-1.14,1.94c-1.27.31-2.56.61-3.84.89A1.58,1.58,0,0,1,390.12,261.07Z"/><path class="cls-2" d="M576,261.48c-1.06-.77-2.11-1.55-3.12-2.31a1.61,1.61,0,0,1-.32-2.25l1.69-2.23a1.59,1.59,0,0,1,2.24-.31c1,.73,2,1.47,3,2.2a1.59,1.59,0,0,1,.38,2.22l-1.6,2.29A1.61,1.61,0,0,1,576,261.48Z"/><path class="cls-2" d="M296.34,261.7l-3.81-.62a1.6,1.6,0,0,1-1.31-1.83l.48-2.8a1.58,1.58,0,0,1,1.82-1.29l3.76.61a1.58,1.58,0,0,1,1.31,1.81l-.43,2.8A1.59,1.59,0,0,1,296.34,261.7Z"/><path class="cls-2" d="M285.43,259.84l-3.81-.71a1.59,1.59,0,0,1-1.26-1.86l.54-2.78a1.59,1.59,0,0,1,1.85-1.25c1.25.24,2.49.47,3.74.69a1.59,1.59,0,0,1,1.28,1.84l-.5,2.79A1.58,1.58,0,0,1,285.43,259.84Z"/><path class="cls-2" d="M400.89,258.42l-.77-2.73a1.58,1.58,0,0,1,1.09-1.94c1.19-.35,2.39-.72,3.56-1.09a1.58,1.58,0,0,1,2,1l.88,2.7a1.57,1.57,0,0,1-1,2c-1.25.4-2.51.78-3.78,1.15A1.58,1.58,0,0,1,400.89,258.42Z"/><path class="cls-2" d="M274.55,257.73c-1.26-.27-2.53-.53-3.79-.81a1.59,1.59,0,0,1-1.21-1.89l.62-2.77a1.58,1.58,0,0,1,1.88-1.2l3.71.79a1.58,1.58,0,0,1,1.23,1.86l-.56,2.78A1.6,1.6,0,0,1,274.55,257.73Z"/><path class="cls-2" d="M411.46,255.05l-.95-2.66a1.58,1.58,0,0,1,.95-2l3.6-1.29a1.58,1.58,0,0,1,2,.94l1,2.66a1.57,1.57,0,0,1-.94,2c-1.19.44-2.6.94-3.64,1.31A1.57,1.57,0,0,1,411.46,255.05Z"/><path class="cls-2" d="M569.37,254.52a1.61,1.61,0,0,1-2.24.33c-.86-.63-1.62-1.18-2.33-1.68l-.69-.48a1.61,1.61,0,0,1-.39-2.23l1.61-2.29a1.59,1.59,0,0,1,2.23-.39l.68.48c.76.53,1.56,1.11,2.47,1.77a1.59,1.59,0,0,1,.33,2.25Z"/><path class="cls-2" d="M263.73,255.33l-3.77-.92a1.58,1.58,0,0,1-1.15-1.92l.7-2.75a1.58,1.58,0,0,1,1.91-1.15l3.68.9a1.57,1.57,0,0,1,1.18,1.89l-.64,2.76A1.59,1.59,0,0,1,263.73,255.33Z"/><path class="cls-2" d="M253,252.6l-3.75-1a1.58,1.58,0,0,1-1.08-2l.79-2.72a1.57,1.57,0,0,1,1.95-1.08l3.64,1a1.57,1.57,0,0,1,1.12,1.93l-.73,2.74A1.57,1.57,0,0,1,253,252.6Z"/><path class="cls-2" d="M421.82,251.23l-1-2.63a1.59,1.59,0,0,1,.87-2c1.22-.49,2.35-1,3.43-1.44a1.56,1.56,0,0,1,2.06.78l1.19,2.58a1.58,1.58,0,0,1-.79,2.11c-1.15.51-2.36,1-3.65,1.54A1.59,1.59,0,0,1,421.82,251.23Z"/><path class="cls-2" d="M558.22,248.56c-1-.71-2.06-1.42-3.09-2.12a1.61,1.61,0,0,1-.43-2.22l1.56-2.32a1.61,1.61,0,0,1,2.23-.44c1.06.72,2.11,1.45,3.16,2.18a1.59,1.59,0,0,1,.4,2.23l-1.6,2.3A1.6,1.6,0,0,1,558.22,248.56Z"/><path class="cls-2" d="M432,246.69l-1.31-2.51a1.6,1.6,0,0,1,.68-2.14c1.24-.65,2.38-1.23,3.43-1.77a1.58,1.58,0,0,1,2.13.7l1.28,2.53a1.58,1.58,0,0,1-.69,2.12l-3.38,1.74A1.58,1.58,0,0,1,432,246.69Z"/><path class="cls-2" d="M549.17,242.51c-1.07-.68-2.11-1.32-3.13-1.93a1.61,1.61,0,0,1-.57-2.18l1.41-2.42a1.6,1.6,0,0,1,2.21-.56c1.08.64,2.18,1.32,3.31,2a1.61,1.61,0,0,1,.5,2.23L551.38,242A1.61,1.61,0,0,1,549.17,242.51Z"/><path class="cls-2" d="M441.77,241.74l-1.24-2.55a1.6,1.6,0,0,1,.75-2.13c1.19-.56,2.34-1.09,3.56-1.63a1.59,1.59,0,0,1,2.1.81l1.13,2.6a1.59,1.59,0,0,1-.81,2.08c-1.16.51-2.26,1-3.39,1.56A1.58,1.58,0,0,1,441.77,241.74Z"/><path class="cls-2" d="M451.72,237.27l-1.08-2.58a1.61,1.61,0,0,1,.88-2.1c1.24-.51,2.42-1,3.57-1.44a1.59,1.59,0,0,1,2.08.91l1,2.61a1.59,1.59,0,0,1-.9,2.06l-3.47,1.4A1.6,1.6,0,0,1,451.72,237.27Z"/><path class="cls-2" d="M539.87,237.12c-1.09-.57-2.17-1.11-3.23-1.61a1.61,1.61,0,0,1-.79-2.12l1.15-2.54a1.59,1.59,0,0,1,2.13-.8q1.77.84,3.57,1.77a1.61,1.61,0,0,1,.66,2.18L542,236.46A1.61,1.61,0,0,1,539.87,237.12Z"/><path class="cls-2" d="M461.9,233.27l-1-2.62a1.61,1.61,0,0,1,1-2.06c1.25-.44,2.49-.87,3.7-1.26a1.6,1.6,0,0,1,2,1l.84,2.67a1.6,1.6,0,0,1-1,2L464,234.23A1.6,1.6,0,0,1,461.9,233.27Z"/><path class="cls-2" d="M532.23,231.86a1.6,1.6,0,0,1-2.05.91l-.83-.3c-.85-.31-1.72-.6-2.58-.88a1.59,1.59,0,0,1-1-2l.8-2.68a1.61,1.61,0,0,1,2-1.06c.94.3,1.88.62,2.81.95l.94.35a1.6,1.6,0,0,1,.94,2.09Z"/><path class="cls-2" d="M472.26,229.91l-.76-2.7a1.6,1.6,0,0,1,1.11-2c1.29-.35,2.57-.67,3.83-1a1.6,1.6,0,0,1,1.92,1.22l.61,2.74a1.62,1.62,0,0,1-1.2,1.9c-1.17.27-2.35.57-3.54.89A1.61,1.61,0,0,1,472.26,229.91Z"/><path class="cls-2" d="M520,229.75c-1.16-.27-2.34-.51-3.53-.73a1.6,1.6,0,0,1-1.3-1.83l.46-2.76a1.59,1.59,0,0,1,1.86-1.32c1.32.24,2.62.51,3.91.8a1.61,1.61,0,0,1,1.19,2l-.67,2.72A1.61,1.61,0,0,1,520,229.75Z"/><path class="cls-2" d="M482.83,227.45l-.49-2.76a1.61,1.61,0,0,1,1.31-1.87c1.32-.21,2.64-.4,3.94-.56a1.61,1.61,0,0,1,1.78,1.44l.29,2.78a1.6,1.6,0,0,1-1.41,1.75c-1.18.14-2.38.31-3.57.51A1.61,1.61,0,0,1,482.83,227.45Z"/><path class="cls-2" d="M509.53,228q-1.78-.18-3.6-.3a1.6,1.6,0,0,1-1.51-1.67l.13-2.79a1.61,1.61,0,0,1,1.7-1.53c1.33.08,2.65.19,4,.33a1.6,1.6,0,0,1,1.41,1.79l-.34,2.78A1.59,1.59,0,0,1,509.53,228Z"/><path class="cls-2" d="M493.59,226.16l-.18-2.79a1.61,1.61,0,0,1,1.54-1.71l3.92-.1a1.59,1.59,0,0,1,1.63,1.61l0,2.8a1.6,1.6,0,0,1-1.57,1.59c-1.05,0-2.46.05-3.67.1A1.6,1.6,0,0,1,493.59,226.16Z"/><path class="cls-1" d="M338.33,137.21h22.14l-22,140.73h-24Z"/><path class="cls-1" d="M544.62,137.21h22.14l-4.87,140.73h-24Z"/><path class="cls-1" d="M496.3,254.62q3.34-3.23,3.85-10.46L505.24,171q.51-7.25-2.23-10.46l17.92-14.47q7.79,8.85,6.83,25.93l-4,71.17q-1,17.09-10.36,25.93Z"/><path class="cls-1" d="M279.8,58.16l12.95.78c0-.94,0-1.88-.06-2.82C292,41.34,290,26.94,284.52,12.88a4.83,4.83,0,0,0-8.84-.17C268,24.84,263,38.56,259.12,52.09q-1.46,5.11-2.63,10.21l9.36,2.7-10.12.62c-.15.7-.28,1.39-.42,2.09L269.06,72l-14.88,1.51a267.5,267.5,0,0,0-4.11,39.84c-.5,11.17-1.81,22.94-5.7,33.57a216.41,216.41,0,0,0,.46-22.35C244.3,103,242,81.11,234.05,60.94a39.28,39.28,0,0,1-12.57,2.17s3.35-1.07,9.33-9.47C226.53,45.51,220,38.79,214.1,31.83c-3.82-4.42-7.4-9.06-11.1-13.52C198.05,12.39,192.9,6.81,188,1a2.74,2.74,0,0,0-4.82,1.62l-.14,3a130.68,130.68,0,0,0,1.74,24.91c.28,1.94.64,3.92,1.05,5.89,10.48,12.22,20.2,13,20.2,13a58.3,58.3,0,0,1-17.19-.64c.18.61.36,1.2.55,1.74.1.33.22.65.33,1a67.18,67.18,0,0,0,15.26.5c-3.33,3.34-10.63,4.85-13,5.27,1.69,3.83,3.67,7.54,5.65,11.24,4.6,9.11,10.12,18.64,15.32,27.75,9.42,15.9,15.85,33.65,17.72,52.06.17,1.55.3,3.12.42,4.69A112.09,112.09,0,0,0,45.26,148a108.75,108.75,0,0,0-7.77,12.57,106.41,106.41,0,0,0-5,10.68l-.17.44a109.65,109.65,0,0,0-3.62,10.66,178.52,178.52,0,0,0-27.08,36.1l-1.63,3,2.2,2.61c11.22,13.31,21.38,16.13,25.53,16.72A113.08,113.08,0,0,0,58.4,295.23a104.71,104.71,0,0,0,74,30.09c1.44,0,2.88,0,4.33-.08,23.72-.92,45.32-7.6,62.67-19.3a209.9,209.9,0,0,0,41,7.84l5.58.5-.14-5.61c-.77-30.31-3.79-49.84-4.69-55.11a109.13,109.13,0,0,0,4.77-15.6c.2-.86.38-1.74.55-2.56,0-.16.07-.32.09-.49a112.05,112.05,0,0,0,2.12-21.77,114.73,114.73,0,0,0-1.24-16.75c-.16-1-.32-2-.51-3.09-.38-2.13-.78-4.05-1.22-5.87a107.1,107.1,0,0,0-3.19-11c-.06-.19-.12-.37-.19-.54,14.29-6.5,23.31-21.32,30.66-34.37,13-23.32,19.27-48.63,19.84-74.68Zm-162.27,154a7.28,7.28,0,0,0,6.89,5,7.46,7.46,0,0,0,2.32-.38,7.23,7.23,0,0,0,4.87-5.89l.95.37c3,1.14,6,2.33,9.07,3.54a17.64,17.64,0,0,1-33-12.37c2.62.91,5.46,1.93,8.78,3.13l1,.36c-.15.24-.32.47-.45.73A7.23,7.23,0,0,0,117.53,212.17Zm16.82-5.61c-5-1.94-10.16-3.87-15.25-5.73-4.32-1.56-7.84-2.82-11.1-3.94s-6.76-2.32-10.41-3.5c-4-1.32-8-2.56-11.79-3.7-5.6-1.67-11-3.14-16-4.36-4.13-1-8-1.81-11.42-2.43a101.32,101.32,0,0,0-13.85-1.62c-.72,0-1.42,0-2.1,0-1,0-2,0-2.92.09.66-2,1.37-4.05,2.17-6l0-.09h0a97.93,97.93,0,0,1,4.6-9.89,100.45,100.45,0,0,1,7.08-11.45A101.87,101.87,0,0,1,62.32,143c.67-.72,1.36-1.42,2.06-2.11,43.26-6.55,149.46,38.57,171.37,48.16.06.23.13.46.18.69.39,1.63.75,3.37,1.1,5.29.16.94.31,1.88.46,2.83a104.08,104.08,0,0,1,1.13,15.26,101.9,101.9,0,0,1-2,19.94l0,.29c-.16.79-.33,1.58-.52,2.39-.71,3.2-3.16,8.91-4.5,12.52-10.55-4.94-35.4-16.4-64-28.34-7.38-3.09-14.75-6.1-21.91-8.94C141.88,209.48,138.06,208,134.35,206.56ZM69.25,196a7.27,7.27,0,0,0,13.4.92,7.27,7.27,0,0,0,.71-2.69l1,.3c3,.91,6.22,1.9,9.41,2.93a17.7,17.7,0,0,1-8,9.72,11.73,11.73,0,0,0-9.6,2.31,17.67,17.67,0,0,1-16.85-17.62,16.76,16.76,0,0,1,.39-3.57c2.75.54,5.71,1.19,8.85,1.94l1,.25A7.17,7.17,0,0,0,69.25,196Zm67.08,119.3c-53.8,2.09-98.37-40-101.72-95.89,1.23-6.63,5.71-23.77,13.5-32.18l.55-.6c1.93.19,4,.45,6.17.8a22.36,22.36,0,0,0-.45,4.44,22.69,22.69,0,0,0,18.77,22.31,11.47,11.47,0,0,0-.11,6,16.25,16.25,0,0,0,15.21,12c.35,0,.7,0,1,0a2.5,2.5,0,1,0-.41-5,10.47,10.47,0,0,1-7.12-2.38A10.63,10.63,0,0,1,77.9,219a5.82,5.82,0,0,1,.87-5c2.24-2.84,7.18-2.71,11.07.28A29.31,29.31,0,0,1,94,219.44,2.5,2.5,0,0,0,98.35,217a33.93,33.93,0,0,0-5.08-6.37l-.22-.2a17.36,17.36,0,0,0-1.63-1.11A22.79,22.79,0,0,0,98.53,199c1.82.61,3.6,1.2,5.34,1.8a22.65,22.65,0,0,0,42.41,15.87c5,2,10.14,4.09,15.28,6.22A238.68,238.68,0,0,1,151,274.78l-.95,2.91,2.17,2.17c.62.62,1.26,1.23,1.9,1.83l.63.57c.45.42.91.83,1.38,1.24l.74.63c.46.39.92.78,1.39,1.16l.75.6c.53.43,1.08.85,1.64,1.27l.55.42c.74.56,1.5,1.11,2.27,1.65l.5.33c.61.43,1.24.85,1.87,1.26l.82.53c.55.35,1.1.7,1.66,1l.89.54,1.75,1,.82.47,2.39,1.31.25.13c.9.47,1.81.94,2.73,1.39l.8.39c.67.32,1.34.65,2,1l1,.46,1.95.87,1,.43c.72.31,1.45.61,2.19.91l.81.33.25.1C172.64,309.86,155.25,314.51,136.33,315.25Z"/><path class="cls-1" d="M230.7,206.28a4.86,4.86,0,0,1,6.53-2.31l1,.5q-.27-3.32-.75-6.59c-.15-.95-.3-1.89-.46-2.83-.35-1.92-.71-3.66-1.1-5.29-.05-.23-.12-.46-.18-.69-21.91-9.59-128.11-54.71-171.37-48.16-.7.69-1.39,1.39-2.06,2.11-2.17,2.28-4.24,4.7-6.2,7.22.94-.07,1.88-.12,2.83-.15h.33a4.84,4.84,0,0,1,5,5.39l-1.32,11.82a4.83,4.83,0,0,1-5.26,4.29C54,171.22,50.44,171,47,171A4.67,4.67,0,0,1,44,170q-1.22,2.58-2.28,5.25h0l0,.09c-.8,2-1.51,4-2.17,6,.93-.06,1.9-.09,2.92-.09.68,0,1.38,0,2.1,0a101.32,101.32,0,0,1,13.85,1.62c3.45.62,7.29,1.44,11.42,2.43,5,1.22,10.4,2.69,16,4.36,3.82,1.14,7.79,2.38,11.79,3.7,3.65,1.18,7,2.33,10.41,3.5s6.78,2.38,11.1,3.94c5.09,1.86,10.23,3.79,15.25,5.73,3.71,1.42,7.53,2.92,11.35,4.44,7.16,2.84,14.53,5.85,21.91,8.94,28.59,11.94,53.44,23.4,64,28.34.37-1,.82-2.15,1.3-3.37a1.54,1.54,0,0,1-1.05-.09l-3.35-1.56a1.59,1.59,0,0,1-.78-2.11l.76-1.65a1.6,1.6,0,0,1,2.12-.78c1.21.56,2.34,1.08,3.37,1.57a1.65,1.65,0,0,1,.55.42c.53-1.44,1-2.82,1.34-4a4.67,4.67,0,0,1-.81-.31L224.35,231a4.85,4.85,0,0,1-2.21-6.38ZM52.12,178a1.59,1.59,0,0,1-1.67,1.46c-1.22-.07-2.39-.1-3.5-.09a1.57,1.57,0,0,1-1.58-1.52l-.08-1.82a1.6,1.6,0,0,1,1.58-1.66c1.23,0,2.52,0,3.87.1a1.6,1.6,0,0,1,1.52,1.71Zm10.93-.38-.32,1.79a1.61,1.61,0,0,1-1.84,1.29c-1.22-.21-2.4-.39-3.54-.55A1.6,1.6,0,0,1,56,178.42l.22-1.8A1.59,1.59,0,0,1,58,175.23c1.21.17,2.47.36,3.76.58A1.6,1.6,0,0,1,63.05,177.66Zm166,14.66.71-1.66a1.6,1.6,0,0,1,2.1-.84l3.46,1.48a1.6,1.6,0,0,1,.83,2.1l-.72,1.65a1.59,1.59,0,0,1-2.09.84l-3.44-1.47A1.61,1.61,0,0,1,229.06,192.32ZM219,188.12l.69-1.67a1.6,1.6,0,0,1,2.09-.87l3.47,1.45a1.59,1.59,0,0,1,.85,2.09l-.7,1.66a1.59,1.59,0,0,1-2.08.86l-3.45-1.44A1.6,1.6,0,0,1,219,188.12ZM208.92,184l.68-1.68a1.6,1.6,0,0,1,2.08-.88l3.48,1.41a1.59,1.59,0,0,1,.87,2.08l-.68,1.67a1.6,1.6,0,0,1-2.08.88l-3.46-1.4A1.61,1.61,0,0,1,208.92,184Zm-10.12-4,.65-1.68a1.62,1.62,0,0,1,2.08-.91l3.49,1.38a1.58,1.58,0,0,1,.89,2.07l-.66,1.68a1.6,1.6,0,0,1-2.07.9l-3.47-1.37A1.6,1.6,0,0,1,198.8,180Zm-10.16-3.91.63-1.68a1.61,1.61,0,0,1,2.07-.93l3.51,1.34a1.6,1.6,0,0,1,.91,2.07l-.65,1.68a1.6,1.6,0,0,1-2.06.92l-3.48-1.34A1.59,1.59,0,0,1,188.64,176.09Zm-10.21-3.79.62-1.7a1.61,1.61,0,0,1,2.06-.95l3.52,1.3a1.59,1.59,0,0,1,.93,2.06l-.63,1.69a1.59,1.59,0,0,1-2.05.94l-3.49-1.3A1.6,1.6,0,0,1,178.43,172.3Zm-10.24-3.69.6-1.7a1.6,1.6,0,0,1,2.05-1l3.53,1.26a1.59,1.59,0,0,1,1,2l-.61,1.7a1.59,1.59,0,0,1-2,1l-3.51-1.25A1.61,1.61,0,0,1,168.19,168.61Zm-10.28-3.55.57-1.71a1.6,1.6,0,0,1,2-1l3.55,1.22a1.59,1.59,0,0,1,1,2l-.59,1.71a1.6,1.6,0,0,1-2,1l-3.52-1.21A1.58,1.58,0,0,1,157.91,165.06Zm-10.35-3.41.55-1.72a1.6,1.6,0,0,1,2-1l3.59,1.17a1.59,1.59,0,0,1,1,2l-.57,1.72a1.59,1.59,0,0,1-2,1l-3.55-1.16A1.6,1.6,0,0,1,147.56,161.65Zm-10.38-3.23.52-1.73a1.61,1.61,0,0,1,2-1.07l3.59,1.11a1.6,1.6,0,0,1,1.05,2l-.54,1.73a1.6,1.6,0,0,1-2,1l-3.55-1.09A1.6,1.6,0,0,1,137.18,158.42Zm-10.43-3,.48-1.74a1.6,1.6,0,0,1,2-1.11c1.21.34,2.41.68,3.62,1a1.59,1.59,0,0,1,1.09,2l-.51,1.74a1.6,1.6,0,0,1-2,1.08l-3.57-1A1.59,1.59,0,0,1,126.75,155.39Zm-10.51-2.8.44-1.75a1.6,1.6,0,0,1,1.95-1.16l3.64.95a1.61,1.61,0,0,1,1.14,2l-.47,1.74a1.6,1.6,0,0,1-2,1.12l-3.59-.94A1.6,1.6,0,0,1,116.24,152.59Zm-10.57-2.51.39-1.76a1.6,1.6,0,0,1,1.9-1.22l3.69.85a1.6,1.6,0,0,1,1.18,1.93l-.42,1.76a1.61,1.61,0,0,1-1.93,1.18l-3.6-.84A1.59,1.59,0,0,1,105.67,150.08ZM95,148l.32-1.78a1.58,1.58,0,0,1,1.85-1.29c1.22.22,2.47.46,3.73.71a1.6,1.6,0,0,1,1.25,1.89l-.36,1.77a1.61,1.61,0,0,1-1.89,1.24l-3.62-.69A1.6,1.6,0,0,1,95,148ZM84.3,146.34l.22-1.79a1.58,1.58,0,0,1,1.78-1.39c1.24.16,2.5.34,3.78.53a1.6,1.6,0,0,1,1.34,1.83l-.29,1.78a1.6,1.6,0,0,1-1.82,1.33c-1.23-.19-2.44-.36-3.62-.51A1.6,1.6,0,0,1,84.3,146.34Zm-10.71-2.67a1.59,1.59,0,0,1,1.66-1.54c1.25.06,2.54.15,3.85.26a1.59,1.59,0,0,1,1.45,1.74l-.16,1.8a1.62,1.62,0,0,1-1.74,1.44q-1.84-.15-3.6-.24a1.61,1.61,0,0,1-1.53-1.66Zm-10.81,2.12-.19-1.8a1.6,1.6,0,0,1,1.47-1.76c1.24-.1,2.54-.17,3.88-.2a1.59,1.59,0,0,1,1.65,1.58v1.81a1.59,1.59,0,0,1-1.54,1.6c-1.24,0-2.43.1-3.58.19A1.59,1.59,0,0,1,62.78,145.79Zm10.88,34.12-.42,1.76a1.58,1.58,0,0,1-1.91,1.18l-3.54-.79a1.58,1.58,0,0,1-1.23-1.87l.36-1.78a1.59,1.59,0,0,1,1.89-1.24c1.19.25,2.42.53,3.67.82A1.58,1.58,0,0,1,73.66,179.91Zm10.49,2.73-.49,1.75a1.6,1.6,0,0,1-2,1.1l-3.53-1A1.58,1.58,0,0,1,77,182.61l.45-1.76a1.59,1.59,0,0,1,1.93-1.15l3.61,1A1.61,1.61,0,0,1,84.15,182.64Zm10.38,3.06L94,187.44a1.59,1.59,0,0,1-2,1l-3.51-1a1.59,1.59,0,0,1-1.07-2l.51-1.74a1.59,1.59,0,0,1,2-1.09l3.57,1.07A1.61,1.61,0,0,1,94.53,185.7Zm10.3,3.31-.58,1.72a1.59,1.59,0,0,1-2,1l-3.49-1.14a1.58,1.58,0,0,1-1-2l.55-1.73a1.59,1.59,0,0,1,2-1l3.53,1.15A1.61,1.61,0,0,1,104.83,189Zm10.23,3.5-.61,1.71a1.6,1.6,0,0,1-2,1q-1.74-.62-3.48-1.2a1.6,1.6,0,0,1-1-2l.58-1.72a1.6,1.6,0,0,1,2-1l3.51,1.22A1.6,1.6,0,0,1,115.06,192.51Zm-5.59-9.22c-6.17-1.94-12.37-3.75-18.57-5.37s-12.47-3.06-18.69-4.22a4.84,4.84,0,0,1-3.9-5.45l1.94-13.62a4.88,4.88,0,0,1,5.26-4.15c2.83.25,5.65.59,8.45.93,2.17.26,4.31.61,6.44,1s4.26.76,6.38,1.17c4.24.8,8.42,1.83,12.59,2.83q3.78.91,7.53,1.91a4.85,4.85,0,0,1,3.42,6.11l-4.78,15.65A4.84,4.84,0,0,1,109.47,183.29Zm15.76,12.88-.63,1.7a1.59,1.59,0,0,1-2,.95c-1.15-.43-2.31-.84-3.45-1.26a1.58,1.58,0,0,1-1-2l.61-1.71a1.59,1.59,0,0,1,2-1l3.48,1.26A1.6,1.6,0,0,1,125.23,196.17ZM135.34,200l-.65,1.7a1.59,1.59,0,0,1-2.05.92l-3.43-1.3a1.57,1.57,0,0,1-.93-2l.63-1.71a1.6,1.6,0,0,1,2.05-.94l3.45,1.3A1.61,1.61,0,0,1,135.34,200Zm10.09,3.9-.66,1.7a1.59,1.59,0,0,1-2.06.89l-3.44-1.34a1.58,1.58,0,0,1-.91-2l.65-1.69a1.59,1.59,0,0,1,2.06-.92l3.46,1.35A1.59,1.59,0,0,1,145.43,203.85Zm10,4-.68,1.68a1.58,1.58,0,0,1-2.06.88l-3.42-1.36a1.6,1.6,0,0,1-.9-2.07l.67-1.69a1.62,1.62,0,0,1,2.08-.89l3.43,1.37A1.59,1.59,0,0,1,155.47,207.85Zm10,4.07-.69,1.69a1.59,1.59,0,0,1-2.07.86l-3.41-1.4a1.59,1.59,0,0,1-.87-2.07l.68-1.68a1.59,1.59,0,0,1,2.08-.88l3.42,1.41A1.57,1.57,0,0,1,165.47,211.92Zm1.47-12.56a4.85,4.85,0,0,1-6.36,2.69c-12.16-5-24.41-9.71-36.75-14a4.85,4.85,0,0,1-3-6.05L126,165.69a4.86,4.86,0,0,1,6-3.19c2.58.75,5.14,1.52,7.69,2.34q6.08,1.93,12.1,4t12,4.16c2.43.85,4.85,1.75,7.27,2.65a4.87,4.87,0,0,1,2.81,6.34Zm8.51,16.72-.71,1.68a1.59,1.59,0,0,1-2.08.85c-1.12-.48-2.26-1-3.39-1.42a1.59,1.59,0,0,1-.86-2.08l.69-1.68a1.59,1.59,0,0,1,2.09-.86L174.6,214A1.59,1.59,0,0,1,175.45,216.08Zm9.94,4.23-.72,1.67a1.58,1.58,0,0,1-2.08.84l-3.39-1.45a1.59,1.59,0,0,1-.84-2.09l.71-1.67a1.59,1.59,0,0,1,2.09-.84l3.4,1.45A1.58,1.58,0,0,1,185.39,220.31Zm9.92,4.29-.73,1.67a1.59,1.59,0,0,1-2.09.82l-3.38-1.47a1.59,1.59,0,0,1-.83-2.09l.72-1.67a1.6,1.6,0,0,1,2.1-.82l3.39,1.47A1.58,1.58,0,0,1,195.31,224.6ZM205.2,229l-.74,1.66a1.59,1.59,0,0,1-2.1.81L199,229.94a1.6,1.6,0,0,1-.82-2.1l.73-1.66a1.61,1.61,0,0,1,2.11-.82l3.38,1.5A1.59,1.59,0,0,1,205.2,229Zm9.86,4.41-.74,1.66a1.59,1.59,0,0,1-2.1.8l-3.37-1.51a1.6,1.6,0,0,1-.81-2.1l.75-1.66a1.58,1.58,0,0,1,2.1-.8l3.38,1.51A1.58,1.58,0,0,1,215.06,233.37Zm9.06,2.37a1.6,1.6,0,0,1,.79,2.11l-.76,1.65a1.6,1.6,0,0,1-2.11.79l-3.35-1.53a1.6,1.6,0,0,1-.8-2.11l.75-1.66a1.6,1.6,0,0,1,2.11-.79Zm-7-13.76a4.85,4.85,0,0,1-6.49,2.35q-17.86-8.52-36-16.36a4.85,4.85,0,0,1-2.59-6.26l7.19-17.81a4.84,4.84,0,0,1,6.27-2.7q3.66,1.44,7.31,2.91c3.9,1.6,7.79,3.24,11.67,4.89s7.75,3.33,11.6,5.05l7.08,3.27a4.85,4.85,0,0,1,2.38,6.43Z"/><path class="cls-1" d="M395.83,201.83a18.75,18.75,0,0,1,3-1.92,3.61,3.61,0,0,1,.12-.55,4.46,4.46,0,0,1,2.44-3.94,33.77,33.77,0,0,1,10.92-3.57l-7.54-54.64H377L356.3,277.94h21.37l13.89-102.73H392Z"/></g></svg>