<svg width="357" height="259" viewBox="0 0 357 259" fill="none" xmlns="http://www.w3.org/2000/svg">
<path d="M223.586 103.127C223.589 106.526 223.258 109.917 222.597 113.251C222.6 113.296 222.6 113.341 222.597 113.387C222.515 113.793 222.429 114.2 222.337 114.601C221.747 117.274 220.941 119.895 219.926 122.436C219.926 122.436 204.936 115.235 186.513 107.512C185.759 116.406 184.002 125.186 181.276 133.683C186.914 139.34 194.553 142.999 201.908 145.36C193.468 151.39 183.137 154.502 172.006 154.937C143.229 156.074 121.84 133.281 120.359 105.987C120.306 105.019 120.282 104.085 120.282 103.127C120.278 98.5277 120.884 93.9481 122.086 89.5093C122.595 87.6086 123.213 85.7391 123.938 83.9102V83.8812C124.628 82.1649 125.416 80.4894 126.296 78.8628C127.359 76.8486 128.556 74.9085 129.879 73.0556C131.255 71.1217 132.762 69.2849 134.389 67.5581C140.034 61.5641 147.024 57.0084 154.777 54.2696C162.53 51.5308 170.822 50.6879 178.965 51.811C187.108 52.934 194.866 55.9905 201.595 60.7266C208.324 65.4627 213.829 71.7417 217.654 79.0418C217.886 79.4725 218.107 79.9032 218.32 80.3436C219.207 82.1556 219.986 84.0187 220.654 85.9234C220.683 85.996 220.707 86.0685 220.731 86.146C221.315 87.8235 221.809 89.531 222.212 91.2612C222.424 92.1516 222.607 93.0566 222.771 93.9664C222.853 94.4503 222.93 94.9342 223.003 95.394C223.387 97.9537 223.582 100.539 223.586 103.127Z" stroke="#F2F2F2" stroke-width="10" stroke-miterlimit="10"/>
<path d="M166.537 110.415C171.907 110.415 176.26 106.047 176.26 100.659C176.26 95.271 171.907 90.903 166.537 90.903C161.168 90.903 156.815 95.271 156.815 100.659C156.815 106.047 161.168 110.415 166.537 110.415Z" stroke="#F2F2F2" stroke-width="5" stroke-miterlimit="10"/>
<path d="M160.991 118.695C159.944 119.101 159.04 119.809 158.394 120.729C157.747 121.65 157.387 122.743 157.36 123.869C157.234 126.772 159.67 129.192 162.824 129.347" stroke="#F2F2F2" stroke-width="5" stroke-miterlimit="10" stroke-linecap="round"/>
<path d="M136.539 118.149C138.493 126.695 144.999 128.969 150.323 128.243C153.603 127.798 156.429 125.916 157.475 125.141" stroke="#F2F2F2" stroke-width="5" stroke-miterlimit="10" stroke-linecap="round"/>
<path d="M163.716 98.9557C163.2 99.4372 162.841 100.063 162.684 100.752C162.528 101.442 162.581 102.162 162.838 102.82C163.095 103.478 163.544 104.044 164.125 104.443C164.706 104.842 165.394 105.056 166.098 105.058C166.479 105.057 166.856 104.995 167.217 104.874C168.04 104.534 168.704 103.893 169.073 103.08C169.442 102.268 169.489 101.345 169.205 100.498C168.921 99.6518 168.327 98.9455 167.543 98.5225C166.759 98.0994 165.845 97.9913 164.984 98.2201C164.516 98.3752 164.084 98.6256 163.716 98.9557Z" fill="#F2F2F2"/>
<path d="M143.248 102.566C148.618 102.566 152.971 98.1979 152.971 92.8097C152.971 87.4216 148.618 83.0536 143.248 83.0536C137.878 83.0536 133.525 87.4216 133.525 92.8097C133.525 98.1979 137.878 102.566 143.248 102.566Z" stroke="#F2F2F2" stroke-width="5" stroke-miterlimit="10"/>
<path d="M144.377 90.5401C143.756 90.2312 143.059 90.1137 142.372 90.2024C141.686 90.2911 141.041 90.5821 140.519 91.0386C139.997 91.495 139.622 92.0965 139.44 92.7669C139.259 93.4373 139.28 94.1466 139.5 94.8052C139.721 95.4637 140.131 96.042 140.678 96.4668C141.226 96.8916 141.887 97.144 142.578 97.192C143.268 97.24 143.958 97.0814 144.559 96.7364C145.159 96.3914 145.645 95.8754 145.954 95.2536C146.162 94.8409 146.287 94.3907 146.32 93.9292C146.354 93.4677 146.295 93.0042 146.149 92.5656C146.002 92.1269 145.77 91.7219 145.465 91.3742C145.161 91.0265 144.791 90.743 144.377 90.5401Z" fill="#F2F2F2"/>
<path d="M222.216 149.42C215.305 148.805 208.479 147.451 201.855 145.38C194.5 143.018 186.86 139.359 181.223 133.702C183.949 125.205 185.706 116.425 186.46 107.531C204.883 115.274 219.873 122.456 219.873 122.456C219.873 122.456 221.787 132.478 222.216 149.42Z" fill="#F2F2F2" stroke="#F2F2F2" stroke-width="10" stroke-miterlimit="10"/>
<path d="M120.364 106.002C120.364 106.002 122.322 94.5616 127.531 88.9189" stroke="#F2F2F2" stroke-width="10" stroke-miterlimit="10" stroke-linecap="square"/>
<path d="M224.252 96.928L223.572 110.512L222.323 114.601L219.911 122.436C219.911 122.436 204.922 115.235 186.499 107.512C183.079 106.06 179.54 104.608 175.951 103.195C174.138 102.469 172.318 101.754 170.492 101.051C168.042 100.083 165.587 99.1783 163.157 98.2879C161.362 97.6346 159.583 96.9958 157.823 96.386C156.062 95.7763 154.447 95.2343 152.821 94.6971C150.892 94.0631 149.006 93.4679 147.164 92.9162C144.492 92.1177 141.927 91.416 139.51 90.8256C137.581 90.3659 135.782 89.9739 134.075 89.6642C131.925 89.2585 129.75 89.003 127.564 88.8996C125.716 88.7706 123.86 88.9772 122.086 89.5093L123.938 83.9102V83.8812L126.349 80.0871L130.935 72.8958L132.619 70.2584L133.159 69.4115L134.35 67.5435C156.053 61.2524 222.173 91.2563 222.173 91.2563L224.252 96.928Z" fill="#090B0D" stroke="#F2F2F2" stroke-width="5" stroke-miterlimit="10"/>
<path d="M132.922 71.1972L132.681 70.3552C132.652 70.2548 132.644 70.1495 132.657 70.0457C132.669 69.9419 132.703 69.8418 132.755 69.7514C132.807 69.6609 132.877 69.582 132.961 69.5195C133.044 69.4569 133.139 69.4119 133.241 69.3873L133.424 69.3438C133.525 69.3197 133.631 69.3165 133.733 69.3345C133.836 69.3524 133.934 69.391 134.022 69.448C134.109 69.505 134.184 69.5791 134.242 69.666C134.3 69.7529 134.34 69.8507 134.36 69.9535L134.524 70.8101C134.561 71.0061 134.521 71.2091 134.412 71.3761C134.303 71.5432 134.134 71.6612 133.94 71.7054H133.839C133.65 71.753 133.451 71.727 133.281 71.6326C133.111 71.5383 132.983 71.3827 132.922 71.1972Z" fill="#F2F2F2"/>
<path d="M218.633 94.7794L216.974 94.068C216.786 93.987 216.638 93.8345 216.562 93.644C216.486 93.4534 216.488 93.2404 216.569 93.0517L216.907 92.2484C216.987 92.0598 217.139 91.911 217.329 91.8348C217.519 91.7586 217.731 91.7611 217.919 91.8419L219.588 92.5581C219.775 92.6399 219.922 92.7928 219.997 92.9833C220.072 93.1737 220.069 93.3863 219.988 93.5744L219.641 94.3729C219.602 94.4661 219.544 94.5506 219.472 94.6215C219.4 94.6924 219.315 94.7483 219.221 94.7861C219.128 94.8239 219.027 94.8427 218.926 94.8415C218.826 94.8404 218.726 94.8193 218.633 94.7794ZM213.81 92.7226L212.146 92.0258C211.958 91.9475 211.809 91.7978 211.73 91.6092C211.651 91.4207 211.65 91.2086 211.727 91.0192L212.06 90.211C212.098 90.1169 212.155 90.0314 212.226 89.9593C212.298 89.8872 212.383 89.83 212.477 89.7909C212.57 89.7518 212.671 89.7316 212.772 89.7314C212.873 89.7313 212.974 89.7512 213.068 89.79L214.741 90.4917C214.834 90.5308 214.919 90.5881 214.99 90.6602C215.061 90.7323 215.118 90.8178 215.156 90.9118C215.194 91.0058 215.213 91.1065 215.212 91.2079C215.212 91.3094 215.191 91.4097 215.151 91.5031L214.818 92.3064C214.779 92.4009 214.721 92.4865 214.649 92.5586C214.576 92.6306 214.49 92.6876 214.395 92.7262C214.301 92.7649 214.2 92.7845 214.098 92.7838C213.996 92.7832 213.895 92.7624 213.801 92.7226H213.81ZM208.959 90.7143L207.29 90.0368C207.101 89.9594 206.95 89.8103 206.869 89.6219C206.789 89.4335 206.786 89.2209 206.861 89.0302L207.189 88.2172C207.266 88.0275 207.415 87.8762 207.603 87.7964C207.791 87.7165 208.002 87.7147 208.192 87.7913L209.87 88.4737C209.964 88.5114 210.05 88.5675 210.122 88.6387C210.194 88.71 210.251 88.795 210.29 88.8887C210.329 88.9824 210.349 89.083 210.349 89.1845C210.349 89.2861 210.329 89.3867 210.29 89.4803L209.962 90.2884C209.924 90.3835 209.867 90.4701 209.795 90.5431C209.724 90.6161 209.638 90.6741 209.544 90.7137C209.45 90.7533 209.349 90.7738 209.247 90.7739C209.144 90.774 209.043 90.7537 208.949 90.7143H208.959ZM204.092 88.7544L202.419 88.0914C202.228 88.0168 202.075 87.8695 201.993 87.6816C201.911 87.4938 201.906 87.2809 201.98 87.0896L202.298 86.2766C202.373 86.0855 202.519 85.9317 202.707 85.8492C202.894 85.7666 203.106 85.762 203.297 85.8363L204.98 86.5041C205.074 86.5409 205.16 86.5961 205.233 86.6666C205.306 86.7371 205.364 86.8214 205.404 86.9147C205.444 87.0079 205.465 87.1082 205.466 87.2097C205.466 87.3112 205.447 87.4119 205.409 87.5058L205.091 88.3188C205.054 88.4142 204.998 88.5012 204.927 88.5749C204.856 88.6485 204.771 88.7072 204.677 88.7478C204.584 88.7883 204.483 88.8097 204.381 88.8108C204.279 88.812 204.177 88.7928 204.083 88.7544H204.092ZM199.207 86.8428L197.529 86.1944C197.434 86.1589 197.347 86.1049 197.272 86.0354C197.198 85.966 197.139 85.8825 197.097 85.7898C197.055 85.6971 197.032 85.597 197.029 85.4953C197.027 85.3937 197.044 85.2924 197.08 85.1975L197.384 84.3844C197.457 84.1924 197.604 84.0372 197.791 83.9529C197.978 83.8686 198.19 83.8619 198.382 83.9344L200.075 84.5829C200.265 84.6574 200.419 84.8048 200.501 84.9926C200.583 85.1804 200.588 85.3934 200.514 85.5846L200.2 86.3976C200.164 86.4933 200.109 86.5808 200.039 86.655C199.969 86.7293 199.885 86.7888 199.791 86.8302C199.698 86.8716 199.598 86.8941 199.496 86.8962C199.394 86.8984 199.292 86.8802 199.197 86.8428H199.207ZM194.302 84.9797L192.619 84.3506C192.429 84.2844 192.271 84.1461 192.181 83.9652C192.091 83.7843 192.075 83.5753 192.137 83.3827L192.441 82.56C192.511 82.3677 192.655 82.2113 192.84 82.1251C193.025 82.0389 193.237 82.03 193.429 82.1003L195.127 82.7294C195.222 82.7649 195.309 82.8189 195.383 82.8883C195.457 82.9578 195.517 83.0412 195.558 83.1339C195.6 83.2267 195.623 83.3267 195.626 83.4284C195.629 83.5301 195.612 83.6313 195.575 83.7263L195.272 84.5441C195.197 84.7306 195.053 84.8804 194.87 84.9618C194.687 85.0432 194.48 85.0496 194.292 84.9797H194.302ZM189.383 83.1698L187.69 82.5649C187.5 82.4976 187.344 82.3592 187.254 82.1786C187.164 81.9981 187.148 81.7896 187.208 81.597L187.497 80.7743C187.53 80.6769 187.581 80.587 187.649 80.5097C187.716 80.4325 187.798 80.3696 187.89 80.3245C187.982 80.2795 188.083 80.2533 188.185 80.2474C188.287 80.2415 188.389 80.2561 188.486 80.2904L190.188 80.9001C190.379 80.9653 190.537 81.1034 190.628 81.2846C190.718 81.4658 190.733 81.6754 190.671 81.868L190.376 82.6907C190.344 82.7898 190.292 82.8812 190.223 82.9595C190.155 83.0378 190.071 83.1012 189.977 83.146C189.883 83.1908 189.781 83.216 189.678 83.2201C189.574 83.2242 189.47 83.2071 189.373 83.1698H189.383ZM184.44 81.4228L182.742 80.8372C182.647 80.8055 182.559 80.7553 182.483 80.6895C182.408 80.6236 182.346 80.5435 182.301 80.4536C182.256 80.3637 182.229 80.2658 182.222 80.1656C182.215 80.0653 182.228 79.9647 182.26 79.8693L182.535 79.0418C182.6 78.8507 182.738 78.6931 182.919 78.6027C183.099 78.5123 183.307 78.4962 183.499 78.5579L185.216 79.1483C185.407 79.2134 185.565 79.3516 185.655 79.5328C185.746 79.714 185.761 79.9236 185.698 80.1161L185.414 80.9437C185.381 81.0401 185.329 81.129 185.262 81.2053C185.194 81.2816 185.112 81.3438 185.021 81.3883C184.93 81.4328 184.83 81.4588 184.729 81.4647C184.627 81.4706 184.526 81.4564 184.43 81.4228H184.44ZM179.477 79.7435L177.765 79.1822C177.574 79.116 177.417 78.9777 177.327 78.7968C177.237 78.6159 177.221 78.4069 177.282 78.2143L177.548 77.3819C177.614 77.1908 177.752 77.0332 177.932 76.9428C178.112 76.8524 178.32 76.8363 178.512 76.898L180.239 77.4642C180.43 77.5293 180.588 77.6675 180.678 77.8487C180.768 78.0299 180.784 78.2395 180.721 78.4321L180.446 79.2644C180.414 79.3607 180.362 79.4495 180.296 79.5257C180.229 79.602 180.147 79.6642 180.056 79.7087C179.965 79.7533 179.866 79.7793 179.765 79.7852C179.664 79.7912 179.563 79.777 179.467 79.7435H179.477ZM174.485 78.1369L172.773 77.6094C172.676 77.5795 172.586 77.5308 172.508 77.466C172.43 77.4012 172.365 77.3216 172.318 77.2317C172.27 77.1418 172.241 77.0435 172.231 76.9422C172.222 76.8409 172.232 76.7387 172.262 76.6415L172.513 75.8043C172.573 75.6077 172.708 75.443 172.889 75.346C173.069 75.249 173.281 75.2276 173.477 75.2865L175.209 75.8237C175.404 75.8849 175.566 76.0212 175.661 76.2026C175.756 76.384 175.775 76.5958 175.715 76.7915L175.455 77.6287C175.425 77.7272 175.375 77.8186 175.309 77.8977C175.244 77.9767 175.163 78.0418 175.072 78.0892C174.98 78.1365 174.881 78.1651 174.778 78.1733C174.676 78.1815 174.573 78.1691 174.476 78.1369H174.485ZM169.484 76.627L167.762 76.1431C167.663 76.1158 167.571 76.0689 167.49 76.0052C167.409 75.9414 167.342 75.862 167.293 75.7717C167.243 75.6815 167.213 75.5822 167.202 75.4797C167.192 75.3772 167.202 75.2737 167.232 75.1752L167.463 74.3331C167.49 74.2337 167.537 74.1407 167.601 74.0596C167.664 73.9786 167.743 73.911 167.833 73.861C167.923 73.811 168.022 73.7794 168.124 73.7683C168.226 73.7571 168.329 73.7665 168.428 73.796C169.011 73.9605 169.59 74.125 170.174 74.2799C170.272 74.3076 170.364 74.3549 170.444 74.4189C170.525 74.4829 170.591 74.5624 170.64 74.6526C170.689 74.7428 170.719 74.8419 170.73 74.9441C170.74 75.0464 170.73 75.1496 170.699 75.2478L170.453 76.0898C170.426 76.1909 170.379 76.2854 170.315 76.3677C170.25 76.4499 170.17 76.5182 170.078 76.5684C169.987 76.6186 169.886 76.6497 169.782 76.6598C169.679 76.6698 169.574 76.6587 169.474 76.627H169.484ZM164.449 75.2139L162.718 74.759C162.521 74.7077 162.353 74.5809 162.25 74.4061C162.146 74.2313 162.115 74.0226 162.163 73.825L162.375 72.9781C162.4 72.8792 162.444 72.7861 162.505 72.7042C162.565 72.6224 162.642 72.5534 162.729 72.5012C162.817 72.4491 162.913 72.4147 163.014 72.4002C163.115 72.3858 163.217 72.3914 163.316 72.4168L165.071 72.8765C165.171 72.9028 165.265 72.9489 165.347 73.012C165.429 73.0752 165.498 73.1542 165.549 73.2444C165.6 73.3345 165.633 73.434 165.645 73.5371C165.658 73.6401 165.649 73.7446 165.621 73.8444L165.394 74.6864C165.337 74.8811 165.206 75.0455 165.029 75.1441C164.852 75.2428 164.644 75.2679 164.449 75.2139ZM159.385 73.9363L157.649 73.5298C157.55 73.508 157.457 73.467 157.374 73.4089C157.292 73.3509 157.221 73.2771 157.167 73.1916C157.113 73.1062 157.076 73.0109 157.058 72.9111C157.041 72.8114 157.043 72.7092 157.065 72.6103L157.253 71.7586C157.297 71.5586 157.418 71.3842 157.59 71.2735C157.762 71.1629 157.97 71.125 158.17 71.1682L159.949 71.5795C160.148 71.6277 160.32 71.7532 160.427 71.9283C160.533 72.1035 160.566 72.314 160.518 72.5135L160.316 73.3653C160.292 73.4648 160.248 73.5585 160.188 73.6411C160.127 73.7237 160.051 73.7935 159.964 73.8465C159.876 73.8996 159.779 73.9348 159.679 73.9502C159.578 73.9656 159.475 73.9609 159.375 73.9363H159.385ZM154.283 72.8136L152.537 72.4797C152.339 72.4441 152.163 72.3328 152.046 72.1692C151.929 72.0057 151.88 71.8029 151.91 71.6037L152.064 70.7423C152.081 70.6421 152.118 70.5463 152.172 70.4605C152.226 70.3746 152.297 70.3004 152.38 70.2423C152.463 70.1842 152.557 70.1433 152.656 70.1219C152.755 70.1006 152.857 70.0993 152.956 70.1181C153.545 70.2245 154.148 70.3407 154.755 70.4617C154.855 70.4819 154.949 70.5216 155.033 70.5785C155.118 70.6354 155.19 70.7085 155.246 70.7934C155.302 70.8784 155.341 70.9736 155.36 71.0736C155.379 71.1737 155.379 71.2765 155.358 71.3763L155.184 72.2329C155.137 72.4274 155.017 72.5962 154.849 72.7044C154.681 72.8125 154.478 72.8516 154.283 72.8136ZM149.166 71.9086C148.572 71.8215 147.989 71.7344 147.42 71.6618C147.218 71.6352 147.034 71.53 146.909 71.3688C146.783 71.2077 146.726 71.0035 146.749 70.8004L146.856 69.9342C146.867 69.833 146.898 69.7351 146.948 69.6463C146.997 69.5574 147.064 69.4794 147.144 69.4167C147.224 69.3541 147.315 69.3081 147.413 69.2814C147.511 69.2547 147.613 69.248 147.714 69.2615C148.312 69.3389 148.92 69.426 149.537 69.518C149.637 69.5333 149.734 69.5684 149.821 69.6213C149.908 69.6742 149.983 69.7437 150.044 69.826C150.104 69.9083 150.147 70.0017 150.171 70.1008C150.195 70.1999 150.199 70.3028 150.183 70.4036L150.043 71.265C150.011 71.4668 149.901 71.6477 149.737 71.7682C149.572 71.8888 149.367 71.9393 149.166 71.9086ZM144.025 71.2989C143.433 71.2505 142.854 71.2118 142.288 71.1827C142.085 71.1727 141.894 71.0828 141.756 70.9326C141.618 70.7823 141.544 70.5836 141.55 70.3794L141.584 69.5083C141.587 69.4064 141.611 69.3061 141.653 69.2133C141.695 69.1205 141.755 69.037 141.829 68.9677C141.904 68.8983 141.991 68.8445 142.086 68.8094C142.182 68.7743 142.283 68.7585 142.385 68.7631C142.988 68.7921 143.61 68.8356 144.242 68.8889C144.343 68.8974 144.441 68.926 144.532 68.973C144.622 69.0201 144.702 69.0847 144.767 69.1631C144.832 69.2414 144.881 69.332 144.911 69.4295C144.941 69.5269 144.951 69.6294 144.941 69.7309L144.864 70.602C144.842 70.8049 144.742 70.9912 144.585 71.1214C144.428 71.2515 144.227 71.3152 144.025 71.2989ZM136.371 70.5342L136.279 69.6632C136.269 69.5603 136.279 69.4563 136.309 69.3574C136.339 69.2584 136.388 69.1665 136.454 69.0872C136.521 69.0078 136.602 68.9425 136.693 68.8951C136.785 68.8477 136.885 68.8193 136.988 68.8114C137.586 68.7631 138.213 68.7292 138.859 68.7147C138.962 68.7108 139.064 68.7276 139.161 68.7642C139.257 68.8009 139.344 68.8565 139.419 68.9278C139.493 68.9991 139.552 69.0847 139.593 69.1795C139.633 69.2742 139.654 69.3761 139.655 69.4793V70.3552C139.656 70.556 139.58 70.7493 139.441 70.894C139.302 71.0387 139.112 71.1232 138.912 71.1295C138.314 71.1295 137.74 71.1779 137.186 71.2214C136.988 71.2351 136.792 71.1711 136.64 71.0429C136.488 70.9147 136.392 70.7324 136.371 70.5342Z" fill="#F2F2F2"/>
<path d="M221.84 96.1731L221.715 96.1198C221.527 96.037 221.38 95.8832 221.305 95.692C221.23 95.5007 221.234 95.2875 221.315 95.0987L221.667 94.3002C221.707 94.2071 221.766 94.123 221.839 94.0526C221.913 93.9823 221.999 93.9271 222.093 93.8902C222.188 93.8534 222.289 93.8356 222.39 93.8378C222.492 93.8401 222.591 93.8624 222.684 93.9034L222.824 93.9663C222.916 94.0077 223 94.0669 223.069 94.1407C223.139 94.2145 223.193 94.3014 223.229 94.3963C223.265 94.4912 223.281 94.5923 223.278 94.6938C223.275 94.7952 223.252 94.895 223.21 94.9874L222.853 95.7859C222.77 95.9719 222.616 96.1172 222.426 96.1898C222.237 96.2624 222.026 96.2564 221.84 96.1731Z" fill="#F2F2F2"/>
<path d="M126.064 75.843C126.018 75.2738 126.181 74.7073 126.522 74.2501C126.863 73.793 127.359 73.4766 127.916 73.3604C128.206 73.3024 128.49 73.2491 128.78 73.2056C129.744 73.0314 130.709 72.9104 131.673 72.8184C132.638 72.7265 133.602 72.6442 134.567 72.6152H134.726C135.063 72.6018 135.398 72.6616 135.71 72.7907C136.021 72.9197 136.301 73.1148 136.53 73.3626C136.759 73.6105 136.932 73.9051 137.037 74.2263C137.142 74.5476 137.176 74.8878 137.138 75.2236L136.501 80.9437C136.435 81.555 136.132 82.1156 135.657 82.5042C135.182 82.8928 134.574 83.078 133.964 83.0198C132.136 82.8407 130.419 82.7342 128.76 82.7342C128.175 82.731 127.612 82.5066 127.184 82.1058C126.756 81.7049 126.494 81.157 126.45 80.571L126.064 75.843Z" fill="#F2F2F2"/>
<path d="M139.973 74.8122C140.061 74.2158 140.372 73.6756 140.844 73.3022C141.316 72.9288 141.912 72.7505 142.51 72.8039C143.875 72.9249 145.235 73.0894 146.59 73.254C147.632 73.3798 148.664 73.5492 149.691 73.7379C150.719 73.9266 151.746 74.1057 152.768 74.3041C154.813 74.6912 156.829 75.1897 158.84 75.6736C160.055 75.9672 161.266 76.2753 162.472 76.5979C162.777 76.6775 163.063 76.8182 163.313 77.0116C163.563 77.205 163.771 77.4471 163.925 77.7233C164.079 77.9995 164.176 78.3042 164.21 78.6189C164.243 78.9337 164.213 79.252 164.121 79.5548L161.816 87.1284C161.727 87.4242 161.58 87.6994 161.384 87.9381C161.188 88.1769 160.948 88.3743 160.675 88.5192C160.403 88.664 160.105 88.7534 159.799 88.7821C159.492 88.8109 159.182 88.7784 158.888 88.6866C155.913 87.7478 152.923 86.8719 149.932 86.0879C146.942 85.3039 143.918 84.6071 140.919 84.0457C140.327 83.9345 139.8 83.598 139.45 83.1065C139.099 82.6149 138.952 82.0064 139.038 81.4082L139.973 74.8122Z" fill="#F2F2F2"/>
<path d="M166.86 80.1646C167.046 79.5789 167.453 79.0894 167.994 78.8009C168.534 78.5123 169.166 78.4477 169.754 78.6208C170.998 78.9838 172.233 79.3564 173.463 79.7532C175.418 80.3759 177.363 81.0211 179.298 81.6889C181.234 82.3568 183.163 83.0278 185.086 83.7021C186.258 84.1135 187.425 84.549 188.592 84.9845C188.883 85.0949 189.149 85.2622 189.375 85.4767C189.601 85.6913 189.783 85.9487 189.909 86.2342C190.035 86.5197 190.103 86.8274 190.11 87.1396C190.116 87.4518 190.061 87.7622 189.947 88.0527L186.619 96.4731C186.505 96.762 186.334 97.0253 186.118 97.2475C185.901 97.4697 185.642 97.6465 185.357 97.7676C185.072 97.8887 184.765 97.9517 184.455 97.953C184.145 97.9542 183.838 97.8937 183.552 97.7749C177.688 95.3552 171.78 93.0759 165.828 90.9998C165.255 90.7962 164.784 90.3766 164.514 89.8301C164.244 89.2836 164.196 88.653 164.381 88.072L166.86 80.1646Z" fill="#F2F2F2"/>
<path d="M192.537 88.977C192.768 88.4033 193.215 87.9441 193.781 87.6994C194.347 87.4547 194.987 87.4443 195.561 87.6704C196.738 88.1349 197.913 88.6044 199.086 89.0786C200.967 89.8529 202.843 90.6466 204.714 91.4451C206.586 92.2435 208.452 93.0566 210.309 93.8889L213.723 95.4714C214.287 95.7315 214.724 96.2053 214.939 96.7888C215.155 97.3723 215.13 98.0177 214.871 98.5831L210.825 107.415C210.695 107.697 210.511 107.951 210.283 108.161C210.055 108.371 209.788 108.534 209.497 108.64C209.206 108.746 208.896 108.792 208.587 108.777C208.278 108.762 207.975 108.686 207.695 108.552C201.953 105.803 196.165 103.164 190.333 100.635C189.772 100.393 189.327 99.9414 189.094 99.3754C188.861 98.8093 188.857 98.1742 189.084 97.6055L192.537 88.977Z" fill="#F2F2F2"/>
<path d="M223.229 100.03L220.504 98.7041C220.225 98.5675 219.921 98.4881 219.611 98.4704C219.3 98.4528 218.989 98.4973 218.696 98.6013C218.403 98.7053 218.134 98.8668 217.903 99.0764C217.673 99.286 217.487 99.5394 217.355 99.8219L213.227 108.707C212.97 109.26 212.937 109.891 213.136 110.467C213.335 111.044 213.75 111.52 214.293 111.794L219.453 114.403C220.007 114.682 220.649 114.73 221.237 114.535C221.826 114.34 222.314 113.918 222.593 113.362L223.229 100.03Z" fill="#F2F2F2"/>
<path d="M124.594 86.6638L124.304 85.8217C124.269 85.7221 124.255 85.6164 124.263 85.5111C124.271 85.4057 124.3 85.3032 124.349 85.2096C124.397 85.1161 124.465 85.0337 124.547 84.9675C124.629 84.9013 124.724 84.8527 124.825 84.8248L125.081 84.7619C125.183 84.7395 125.288 84.7382 125.391 84.758C125.494 84.7778 125.591 84.8183 125.678 84.8772C125.765 84.936 125.838 85.0119 125.895 85.1003C125.951 85.1886 125.989 85.2875 126.007 85.391L126.146 86.2621C126.178 86.4553 126.135 86.6533 126.025 86.8154C125.916 86.9774 125.749 87.0912 125.558 87.1332H125.505C125.322 87.1804 125.128 87.1587 124.96 87.0722C124.792 86.9857 124.662 86.8404 124.594 86.6638Z" fill="#F2F2F2"/>
<path d="M217.914 118.458L216.294 117.703C216.202 117.661 216.12 117.601 216.052 117.527C215.983 117.453 215.93 117.366 215.895 117.271C215.86 117.176 215.844 117.075 215.848 116.974C215.852 116.873 215.876 116.774 215.918 116.682L216.284 115.884C216.37 115.698 216.526 115.554 216.718 115.483C216.909 115.412 217.121 115.421 217.307 115.506C217.89 115.777 218.435 116.029 218.932 116.266C219.023 116.309 219.105 116.369 219.173 116.443C219.241 116.518 219.293 116.605 219.327 116.7C219.361 116.795 219.376 116.896 219.371 116.996C219.366 117.097 219.342 117.196 219.299 117.287L218.927 118.086C218.885 118.177 218.826 118.259 218.752 118.327C218.678 118.395 218.592 118.448 218.498 118.483C218.404 118.517 218.304 118.533 218.204 118.529C218.104 118.525 218.005 118.501 217.914 118.458ZM213.159 116.266L211.544 115.526C211.358 115.441 211.213 115.286 211.141 115.095C211.068 114.904 211.074 114.691 211.158 114.505L211.519 113.701C211.605 113.516 211.759 113.371 211.95 113.3C212.14 113.228 212.351 113.235 212.537 113.319L214.162 114.064C214.347 114.15 214.491 114.305 214.562 114.496C214.634 114.687 214.627 114.899 214.543 115.085L214.177 115.884C214.092 116.069 213.937 116.213 213.746 116.285C213.556 116.357 213.345 116.35 213.159 116.266ZM208.423 114.108L206.798 113.377C206.613 113.293 206.468 113.14 206.394 112.949C206.321 112.759 206.326 112.548 206.407 112.361L206.769 111.557C206.81 111.465 206.868 111.381 206.941 111.312C207.014 111.242 207.101 111.188 207.195 111.152C207.289 111.116 207.389 111.099 207.49 111.102C207.591 111.105 207.69 111.128 207.782 111.17L209.412 111.901C209.504 111.942 209.586 112.001 209.655 112.075C209.724 112.148 209.778 112.235 209.813 112.329C209.849 112.424 209.865 112.525 209.862 112.625C209.858 112.726 209.835 112.825 209.793 112.917L209.436 113.721C209.353 113.902 209.203 114.043 209.017 114.116C208.832 114.188 208.626 114.185 208.442 114.108H208.423ZM203.668 111.978L202.067 111.257C201.881 111.175 201.734 111.021 201.66 110.831C201.586 110.641 201.59 110.429 201.671 110.241L202.023 109.438C202.107 109.251 202.26 109.104 202.451 109.03C202.641 108.955 202.853 108.959 203.041 109.041L204.671 109.767C204.763 109.808 204.847 109.866 204.916 109.94C204.986 110.013 205.04 110.099 205.076 110.194C205.113 110.288 205.13 110.389 205.128 110.49C205.125 110.591 205.103 110.691 205.062 110.783L204.705 111.586C204.664 111.68 204.605 111.764 204.532 111.834C204.459 111.904 204.372 111.959 204.277 111.995C204.183 112.032 204.082 112.049 203.981 112.046C203.879 112.043 203.78 112.02 203.687 111.978H203.668ZM198.908 109.878L197.278 109.167C197.185 109.127 197.102 109.069 197.031 108.996C196.961 108.924 196.906 108.838 196.869 108.744C196.832 108.65 196.813 108.55 196.815 108.449C196.816 108.348 196.838 108.248 196.877 108.155L197.225 107.347C197.307 107.16 197.46 107.014 197.65 106.939C197.839 106.865 198.051 106.869 198.237 106.95L199.872 107.662C199.965 107.702 200.048 107.76 200.118 107.832C200.189 107.905 200.243 107.991 200.28 108.085C200.317 108.179 200.335 108.279 200.333 108.38C200.331 108.481 200.309 108.581 200.268 108.673L199.916 109.481C199.834 109.663 199.686 109.806 199.501 109.88C199.317 109.954 199.111 109.953 198.927 109.878H198.908ZM194.133 107.812L192.498 107.11C192.405 107.07 192.321 107.013 192.251 106.941C192.18 106.868 192.124 106.783 192.086 106.689C192.049 106.595 192.03 106.494 192.031 106.393C192.032 106.292 192.053 106.192 192.093 106.099L192.436 105.29C192.475 105.197 192.532 105.113 192.605 105.042C192.677 104.971 192.762 104.915 192.855 104.877C192.949 104.839 193.049 104.821 193.15 104.822C193.251 104.823 193.351 104.844 193.444 104.884L195.083 105.586C195.176 105.625 195.26 105.683 195.331 105.755C195.401 105.828 195.457 105.913 195.494 106.007C195.531 106.101 195.55 106.202 195.548 106.303C195.546 106.404 195.524 106.504 195.484 106.597L195.136 107.405C195.058 107.588 194.911 107.733 194.727 107.809C194.543 107.885 194.337 107.886 194.153 107.812H194.133ZM189.344 105.774C188.804 105.542 188.259 105.29 187.709 105.087C187.616 105.048 187.531 104.992 187.46 104.92C187.389 104.849 187.332 104.764 187.294 104.67C187.255 104.577 187.236 104.476 187.236 104.375C187.236 104.274 187.256 104.174 187.295 104.081L187.627 103.268C187.666 103.173 187.723 103.088 187.794 103.016C187.866 102.944 187.951 102.887 188.045 102.848C188.138 102.81 188.239 102.79 188.34 102.791C188.442 102.791 188.542 102.812 188.635 102.851L190.299 103.543C190.486 103.622 190.635 103.773 190.712 103.962C190.788 104.15 190.788 104.362 190.709 104.55L190.367 105.363C190.288 105.551 190.138 105.7 189.95 105.777C189.762 105.854 189.551 105.853 189.363 105.774H189.344ZM184.546 103.771L182.901 103.093C182.713 103.016 182.563 102.867 182.485 102.679C182.406 102.492 182.405 102.28 182.481 102.092L182.809 101.279C182.847 101.184 182.903 101.098 182.974 101.026C183.045 100.953 183.129 100.895 183.222 100.856C183.316 100.816 183.416 100.796 183.517 100.795C183.618 100.795 183.719 100.814 183.812 100.853L185.462 101.535C185.555 101.573 185.64 101.629 185.712 101.7C185.784 101.771 185.841 101.855 185.88 101.948C185.919 102.041 185.939 102.141 185.939 102.242C185.94 102.343 185.92 102.443 185.881 102.537L185.544 103.355C185.466 103.538 185.32 103.683 185.138 103.761C184.955 103.838 184.75 103.842 184.565 103.771H184.546ZM179.723 101.806L178.073 101.148C177.884 101.072 177.732 100.925 177.65 100.737C177.569 100.549 177.565 100.337 177.639 100.146L177.962 99.3283C178.041 99.1394 178.189 98.9886 178.377 98.9082C178.564 98.8277 178.775 98.8239 178.966 98.8976L180.62 99.5606C180.714 99.5984 180.799 99.6545 180.872 99.7256C180.944 99.7968 181.002 99.8816 181.041 99.9752C181.08 100.069 181.101 100.169 181.102 100.271C181.102 100.372 181.083 100.473 181.044 100.567L180.716 101.38C180.641 101.562 180.499 101.708 180.319 101.787C180.139 101.867 179.936 101.873 179.752 101.806H179.723ZM174.9 99.8704L173.241 99.2219C173.057 99.1492 172.908 99.0076 172.826 98.827C172.744 98.6464 172.736 98.441 172.802 98.254L173.116 97.4362C173.151 97.3413 173.206 97.2544 173.275 97.1806C173.344 97.1068 173.428 97.0475 173.52 97.0061C173.612 96.9647 173.712 96.9421 173.813 96.9395C173.914 96.9369 174.015 96.9544 174.109 96.9909L175.778 97.6443C175.967 97.7187 176.119 97.8656 176.2 98.0525C176.282 98.2395 176.286 98.4512 176.212 98.6412L175.893 99.4639C175.816 99.6465 175.672 99.7922 175.491 99.8706C175.309 99.9491 175.104 99.9542 174.919 99.8849L174.9 99.8704ZM170.043 97.9975L168.389 97.3684C168.203 97.2987 168.051 97.158 167.967 96.9768C167.883 96.7957 167.874 96.5886 167.941 96.4005L168.244 95.573C168.316 95.3816 168.46 95.2263 168.645 95.1411C168.831 95.0558 169.042 95.0476 169.233 95.1181L170.897 95.7472C171.087 95.821 171.241 95.9669 171.325 96.1534C171.409 96.34 171.416 96.5522 171.346 96.7441L171.032 97.5668C170.96 97.7527 170.818 97.9031 170.637 97.9861C170.456 98.0692 170.25 98.0785 170.063 98.012L170.043 97.9975ZM165.182 96.1828C164.627 95.9747 164.073 95.7763 163.518 95.573C163.423 95.5413 163.335 95.4911 163.26 95.4253C163.184 95.3595 163.122 95.2793 163.077 95.1894C163.032 95.0995 163.006 95.0016 162.999 94.9014C162.991 94.8011 163.004 94.7005 163.036 94.6051L163.33 93.7776C163.395 93.5858 163.533 93.4274 163.713 93.3368C163.894 93.2462 164.103 93.2307 164.295 93.2937L165.973 93.9034C166.163 93.9696 166.32 94.1079 166.411 94.2888C166.501 94.4697 166.517 94.6787 166.455 94.8713L166.151 95.694C166.09 95.8861 165.957 96.0464 165.779 96.1405C165.601 96.2346 165.394 96.255 165.201 96.1973L165.182 96.1828ZM160.297 94.4309L158.662 93.8647C158.471 93.7985 158.314 93.6602 158.224 93.4794C158.134 93.2985 158.118 93.0894 158.179 92.8969L158.459 92.0645C158.525 91.8734 158.663 91.7158 158.843 91.6254C159.023 91.535 159.232 91.5189 159.424 91.5806L161.116 92.171C161.307 92.2371 161.464 92.3755 161.554 92.5563C161.644 92.7372 161.66 92.9463 161.599 93.1388L161.305 93.9664C161.272 94.0637 161.22 94.1536 161.153 94.2306C161.085 94.3077 161.003 94.3704 160.911 94.415C160.819 94.4597 160.719 94.4853 160.616 94.4906C160.514 94.4958 160.412 94.4805 160.316 94.4454L160.297 94.4309ZM155.382 92.7565L153.699 92.2048C153.604 92.1731 153.516 92.1229 153.44 92.0571C153.365 91.9913 153.303 91.9111 153.258 91.8212C153.213 91.7313 153.186 91.6335 153.179 91.5332C153.172 91.433 153.185 91.3323 153.217 91.237L153.482 90.3998C153.547 90.2079 153.685 90.0495 153.865 89.9589C154.046 89.8683 154.255 89.8528 154.446 89.9158L156.149 90.4724C156.339 90.5396 156.495 90.678 156.585 90.8586C156.675 91.0391 156.691 91.2476 156.631 91.4402L156.351 92.2726C156.289 92.4638 156.155 92.6229 155.978 92.7161C155.8 92.8093 155.593 92.829 155.401 92.771L155.382 92.7565ZM150.463 91.1934L148.77 90.7095C148.672 90.6807 148.581 90.6327 148.502 90.5683C148.423 90.5038 148.358 90.4242 148.31 90.3341C148.262 90.244 148.232 90.1452 148.223 90.0435C148.213 89.9418 148.224 89.8391 148.254 89.7416L148.5 88.8996C148.528 88.8006 148.575 88.7083 148.639 88.6279C148.702 88.5476 148.781 88.4808 148.871 88.4317C148.961 88.3825 149.06 88.3519 149.162 88.3417C149.264 88.3314 149.367 88.3418 149.465 88.3721L151.186 88.8899C151.381 88.9512 151.544 89.0873 151.64 89.2685C151.736 89.4496 151.756 89.6614 151.697 89.8578L151.427 90.6901C151.397 90.7869 151.348 90.8767 151.283 90.9544C151.219 91.0321 151.139 91.0962 151.049 91.1429C150.96 91.1897 150.862 91.2182 150.761 91.2269C150.66 91.2356 150.559 91.2242 150.463 91.1934ZM145.495 89.7416L143.793 89.2577C143.6 89.2105 143.433 89.0894 143.327 88.9204C143.222 88.7513 143.187 88.5476 143.229 88.3527L143.446 87.501C143.496 87.3034 143.622 87.1339 143.796 87.0295C143.971 86.9252 144.18 86.8946 144.376 86.9445L146.122 87.4284C146.221 87.4557 146.314 87.5026 146.395 87.5663C146.476 87.63 146.543 87.7092 146.593 87.7994C146.643 87.8895 146.674 87.9888 146.685 88.0913C146.696 88.1938 146.687 88.2975 146.658 88.3963L146.421 89.2432C146.359 89.4291 146.229 89.5845 146.057 89.6779C145.885 89.7714 145.685 89.7958 145.495 89.7465V89.7416ZM140.494 88.464L138.787 88.0817C138.689 88.0615 138.595 88.0221 138.512 87.9657C138.429 87.9092 138.358 87.8369 138.303 87.7528C138.248 87.6687 138.21 87.5746 138.191 87.4757C138.172 87.3769 138.173 87.2753 138.194 87.1768L138.367 86.3154C138.387 86.2156 138.427 86.1209 138.484 86.0367C138.541 85.9524 138.614 85.8803 138.698 85.8245C138.783 85.7687 138.878 85.7303 138.978 85.7115C139.077 85.6928 139.18 85.6941 139.279 85.7153C139.853 85.8363 140.446 85.9718 141.049 86.1121C141.147 86.1348 141.24 86.177 141.323 86.2362C141.405 86.2954 141.474 86.3705 141.527 86.457C141.58 86.5435 141.616 86.6397 141.631 86.74C141.647 86.8403 141.642 86.9427 141.618 87.0413L141.415 87.893C141.393 87.9918 141.352 88.0853 141.293 88.1679C141.235 88.2506 141.161 88.3207 141.075 88.3743C140.989 88.4279 140.894 88.4638 140.794 88.4801C140.694 88.4963 140.592 88.4925 140.494 88.4689V88.464ZM135.459 87.4429C134.871 87.3413 134.302 87.2542 133.752 87.1768C133.555 87.1467 133.377 87.0413 133.255 86.8825C133.134 86.7237 133.079 86.5239 133.101 86.325L133.207 85.454C133.219 85.353 133.251 85.2555 133.3 85.167C133.35 85.0784 133.417 85.0006 133.496 84.9381C133.576 84.8756 133.668 84.8295 133.765 84.8026C133.863 84.7757 133.965 84.7684 134.065 84.7813C134.649 84.8636 135.257 84.9555 135.879 85.062C136.08 85.0974 136.259 85.2116 136.377 85.3794C136.494 85.5473 136.541 85.7551 136.506 85.9572L136.351 86.8235C136.314 87.0241 136.199 87.2018 136.032 87.3186C135.866 87.4353 135.66 87.4817 135.459 87.4478V87.4429ZM130.424 86.8477C129.836 86.8138 129.272 86.7993 128.736 86.8041C128.539 86.8055 128.348 86.7293 128.206 86.5919C128.064 86.4545 127.98 86.2667 127.974 86.0685L127.936 85.1878C127.932 85.0845 127.949 84.9815 127.985 84.8848C128.021 84.7881 128.077 84.6997 128.148 84.6249C128.219 84.55 128.304 84.4902 128.398 84.4489C128.493 84.4076 128.595 84.3857 128.698 84.3845C129.291 84.3845 129.913 84.3845 130.564 84.4328C130.667 84.4378 130.767 84.4632 130.86 84.5077C130.953 84.5522 131.036 84.6148 131.104 84.6919C131.172 84.7689 131.225 84.8589 131.258 84.9566C131.291 85.0542 131.304 85.1575 131.297 85.2604L131.23 86.1218C131.218 86.3251 131.127 86.5156 130.976 86.6517C130.825 86.7878 130.627 86.8582 130.424 86.8477Z" fill="#F2F2F2"/>
<path d="M122.09 89.5093C114.133 97.3926 108.987 106.873 108.987 106.873C115.131 114.19 120.364 114.19 120.364 114.19" fill="#F2F2F2"/>
<path d="M122.09 89.5093C114.133 97.3926 108.987 106.873 108.987 106.873C115.131 114.19 120.364 114.19 120.364 114.19" stroke="#F2F2F2" stroke-width="10" stroke-miterlimit="10"/>
<path d="M149.064 111.088C147.513 111.169 145.987 110.669 144.782 109.685C142.37 107.778 141.632 104.681 143.137 102.764C144.642 100.848 147.81 100.829 150.222 102.764C151.086 103.613 151.844 104.563 152.479 105.595" fill="#090B0D"/>
<path d="M149.064 111.088C147.513 111.169 145.987 110.669 144.782 109.685C142.37 107.778 141.632 104.681 143.137 102.764C144.642 100.848 147.81 100.829 150.222 102.764C151.086 103.613 151.844 104.563 152.479 105.595" stroke="#F2F2F2" stroke-width="5" stroke-miterlimit="10" stroke-linecap="round"/>
<path d="M241.035 28.1271L247.28 28.5046C247.28 28.0497 247.28 27.5948 247.252 27.1399C246.919 19.9873 245.954 13.0187 243.311 6.21457C243.137 5.79597 242.846 5.43725 242.472 5.18214C242.098 4.92702 241.658 4.78654 241.206 4.77782C240.754 4.7691 240.31 4.89252 239.926 5.13302C239.543 5.37353 239.238 5.72073 239.048 6.1323C235.344 12.0024 232.933 18.642 231.061 25.1896C230.598 26.8382 230.176 28.4852 229.793 30.1306L234.307 31.4372L229.431 31.7373C229.354 32.076 229.291 32.4099 229.224 32.7487L235.855 34.8248L228.679 35.5555C227.541 41.9237 226.879 48.3683 226.697 54.8354C226.292 63.9044 224.792 73.8008 218.146 80.5178C217.603 81.0579 217.273 81.777 217.218 82.5421C217.162 83.3072 217.385 84.0666 217.844 84.6798C218.304 85.2931 218.969 85.7186 219.717 85.8778C220.465 86.037 221.245 85.9191 221.913 85.5459C229.407 82.6713 234.008 75.1026 237.722 68.4824C243.991 57.197 247.015 44.9487 247.29 32.3422L241.035 28.1271Z" fill="#F2F2F2"/>
<path d="M134.393 67.529C156.096 61.2379 222.216 91.2418 222.216 91.2418L218.117 78.5143L210.338 67.2483L196.834 56.7954L178.99 51.7867H160.533L144.888 58.9634L134.393 67.529Z" fill="#F2F2F2"/>
<path d="M224.17 60.2458C223.914 49.8267 222.805 39.2334 218.971 29.4724C217.021 30.1521 214.973 30.5068 212.908 30.5226C212.908 30.5226 214.524 30.0048 217.408 25.9397C215.344 22.0053 212.195 18.7533 209.349 15.3851C207.507 13.2461 205.78 11.0007 203.996 8.84233C201.609 5.97744 199.125 3.27708 196.762 0.465426C196.591 0.264071 196.363 0.118724 196.109 0.0480915C195.855 -0.0225409 195.585 -0.015227 195.335 0.0690919C195.085 0.153411 194.866 0.310876 194.706 0.521224C194.546 0.731572 194.452 0.985176 194.437 1.2494L194.37 2.7012C194.268 6.73708 194.549 10.7735 195.209 14.756C195.344 15.6948 195.522 16.653 195.715 17.6064C200.769 23.52 205.457 23.8975 205.457 23.8975C202.694 24.2062 199.9 24.1018 197.167 23.5878C197.254 23.883 197.34 24.1685 197.432 24.4298C197.48 24.5895 197.538 24.7444 197.591 24.9138C200.027 25.2748 202.496 25.356 204.951 25.1557C203.345 26.7721 199.824 27.5028 198.681 27.7061C199.496 29.5595 200.451 31.3549 201.406 33.1455C203.625 37.5541 206.287 42.166 208.795 46.5747C213.338 54.2692 216.439 62.8591 217.345 71.7683C217.707 75.2526 217.876 78.8482 217.312 82.3229C216.728 85.4733 221.213 86.4702 222.038 83.4069L222.236 82.5697L222.573 81.1614C223.923 74.2767 224.459 67.2564 224.17 60.2458Z" fill="#F2F2F2"/>
<path d="M13.6683 176.167H26.3512L13.7485 257.061H0L13.6683 176.167Z" fill="#F2F2F2"/>
<path d="M35.8091 176.167H51.7172L58.3737 224.59H58.6201L64.2856 176.167H75.5822L67.0582 257.061H52.9431L44.4019 198.01H44.1613L36.2101 257.061H23.9682L35.8091 176.167Z" fill="#F2F2F2"/>
<path d="M85.04 176.167H104.408C110.71 176.167 115.332 177.863 118.277 181.254C121.221 184.645 122.526 189.616 122.19 196.165L119.898 237.075C119.516 243.624 117.538 248.592 113.963 251.98C110.389 255.367 105.164 257.063 98.2901 257.067H77.295L85.04 176.167ZM98.9202 245.501C101.143 245.501 102.896 244.886 104.179 243.656C105.462 242.426 106.192 240.422 106.367 237.644L109.289 195.59C109.476 192.812 109.05 190.807 108.011 189.577C106.973 188.347 105.401 187.732 103.297 187.732H96.7663L91.9887 245.501H98.9202Z" fill="#F2F2F2"/>
<path d="M131.848 176.167H144.531L141.741 257.061H127.992L131.848 176.167Z" fill="#F2F2F2"/>
<path d="M156.44 252.899C152.957 249.359 151.302 244.352 151.474 237.879L152.568 195.343C152.736 188.87 154.525 183.862 157.936 180.317C161.346 176.772 166.141 175 172.32 175C178.541 175 183.315 176.772 186.641 180.317C189.968 183.862 191.698 188.87 191.831 195.343L192.404 237.879C192.488 244.348 190.77 249.355 187.248 252.899C183.727 256.444 178.572 258.216 171.781 258.216C165.085 258.245 159.94 256.44 156.44 252.899ZM178.942 238.701L178.902 194.561C178.902 189.246 176.687 186.588 172.257 186.588C167.827 186.588 165.577 189.246 165.509 194.561L164.936 238.701C164.867 244.02 167.183 246.678 171.884 246.674C176.586 246.67 178.938 244.013 178.942 238.701Z" fill="#F2F2F2"/>
<path d="M200.103 176.167H233.655L234.314 187.726H213.199L214.006 210.259H230.951L231.559 221.813H214.419L215.679 257.061H201.931L200.103 176.167Z" fill="#F2F2F2"/>
<path d="M239.762 176.167H252.445L257.755 245.501H280.096L281.242 257.061H244.9L239.762 176.167Z" fill="#F2F2F2"/>
<path d="M279.426 176.167H292.109L301.601 257.061H287.853L279.426 176.167Z" fill="#F2F2F2"/>
<path d="M318.226 215.709L298.794 176.184H312.17L324.533 202.304H324.773L329.694 176.184H341.684L333.824 215.709L356.057 257.096H341.569L327.489 228.861H327.242L321.107 257.061H308.097L318.226 215.709Z" fill="#F2F2F2"/>
</svg>
