<svg id="Camada_3" data-name="Camada 3" xmlns="http://www.w3.org/2000/svg" viewBox="0 0 954.87 325.32"><defs><style>.cls-1{fill:#f2f2f2;}</style></defs><path class="cls-1" d="M117.73,264.8a9.83,9.83,0,0,1-6.81-3.06,7.84,7.84,0,0,1-2.12-5.66,9.24,9.24,0,0,1,5.88-8.42A2.5,2.5,0,0,0,113,243a14.22,14.22,0,0,0-9.16,12.9,12.17,12.17,0,0,0,0,1.6,31.12,31.12,0,0,1-12.47,5.1c-10.06,1.37-22.13-2.89-25.82-18.94a2.5,2.5,0,0,0-4.87,1.12c3.94,17.17,16.37,23.05,27.29,23.05a30.13,30.13,0,0,0,4.07-.27,35,35,0,0,0,13.29-5.08,13.61,13.61,0,0,0,1.9,2.68,14.82,14.82,0,0,0,10.28,4.67h.11a2.5,2.5,0,0,0,.1-5Z"/><path class="cls-1" d="M55.63,147.16l-.5-1.74a1.6,1.6,0,0,1,1.16-2l.38-.09a1.6,1.6,0,0,1,1.94,1.26l.34,1.77a1.6,1.6,0,0,1-1.21,1.85l-.21,0A1.59,1.59,0,0,1,55.63,147.16Z"/><path class="cls-1" d="M233.35,195.89l-3.44-1.47a1.61,1.61,0,0,1-.85-2.1l.71-1.66a1.6,1.6,0,0,1,2.1-.84l3.46,1.48a1.6,1.6,0,0,1,.83,2.1l-.72,1.65A1.59,1.59,0,0,1,233.35,195.89Zm-10-4.25-3.45-1.44a1.6,1.6,0,0,1-.87-2.08l.69-1.67a1.6,1.6,0,0,1,2.09-.87l3.47,1.45a1.59,1.59,0,0,1,.85,2.09l-.7,1.66A1.59,1.59,0,0,1,223.33,191.64Zm-10.06-4.15-3.46-1.4a1.61,1.61,0,0,1-.89-2.08l.68-1.68a1.6,1.6,0,0,1,2.08-.88l3.48,1.41a1.59,1.59,0,0,1,.87,2.08l-.68,1.67A1.6,1.6,0,0,1,213.27,187.49Zm-10.09-4.05-3.47-1.37a1.6,1.6,0,0,1-.91-2.07l.65-1.68a1.62,1.62,0,0,1,2.08-.91l3.49,1.38a1.58,1.58,0,0,1,.89,2.07l-.66,1.68A1.6,1.6,0,0,1,203.18,183.44Zm-10.13-3.95-3.48-1.34a1.59,1.59,0,0,1-.93-2.06l.63-1.68a1.61,1.61,0,0,1,2.07-.93l3.51,1.34a1.6,1.6,0,0,1,.91,2.07l-.65,1.68A1.6,1.6,0,0,1,193.05,179.49Zm-10.17-3.85-3.49-1.3a1.6,1.6,0,0,1-1-2l.62-1.7a1.61,1.61,0,0,1,2.06-.95l3.52,1.3a1.59,1.59,0,0,1,.93,2.06l-.63,1.69A1.59,1.59,0,0,1,182.88,175.64Zm-10.2-3.74-3.51-1.25a1.61,1.61,0,0,1-1-2l.6-1.7a1.6,1.6,0,0,1,2.05-1l3.53,1.26a1.59,1.59,0,0,1,1,2l-.61,1.7A1.59,1.59,0,0,1,172.68,171.9Zm-10.25-3.61-3.52-1.21a1.58,1.58,0,0,1-1-2l.57-1.71a1.6,1.6,0,0,1,2-1l3.55,1.22a1.59,1.59,0,0,1,1,2l-.59,1.71A1.6,1.6,0,0,1,162.43,168.29Zm-10.29-3.47-3.55-1.16a1.6,1.6,0,0,1-1-2l.55-1.72a1.6,1.6,0,0,1,2-1l3.59,1.17a1.59,1.59,0,0,1,1,2l-.57,1.72A1.59,1.59,0,0,1,152.14,164.82Zm-10.35-3.32-3.55-1.09a1.6,1.6,0,0,1-1.06-2l.52-1.73a1.61,1.61,0,0,1,2-1.07l3.59,1.11a1.6,1.6,0,0,1,1.05,2l-.54,1.73A1.6,1.6,0,0,1,141.79,161.5Zm-10.37-3.12-3.57-1a1.59,1.59,0,0,1-1.1-2l.48-1.74a1.6,1.6,0,0,1,2-1.11c1.21.34,2.41.68,3.62,1a1.59,1.59,0,0,1,1.09,2l-.51,1.74A1.6,1.6,0,0,1,131.42,158.38ZM121,155.46l-3.59-.94a1.6,1.6,0,0,1-1.15-1.93l.44-1.75a1.6,1.6,0,0,1,1.95-1.16l3.64.95a1.61,1.61,0,0,1,1.14,2l-.47,1.74A1.6,1.6,0,0,1,121,155.46Zm-10.5-2.64-3.6-.84a1.59,1.59,0,0,1-1.21-1.9l.39-1.76a1.6,1.6,0,0,1,1.9-1.22l3.69.85a1.6,1.6,0,0,1,1.18,1.93l-.42,1.76A1.61,1.61,0,0,1,110.48,152.82ZM99.92,150.5l-3.62-.69A1.6,1.6,0,0,1,95,148l.32-1.78a1.58,1.58,0,0,1,1.85-1.29c1.22.22,2.47.46,3.73.71a1.6,1.6,0,0,1,1.25,1.89l-.36,1.77A1.61,1.61,0,0,1,99.92,150.5Zm-10.61-1.87c-1.23-.18-2.44-.36-3.62-.51a1.6,1.6,0,0,1-1.39-1.78l.22-1.79a1.58,1.58,0,0,1,1.78-1.39c1.24.16,2.5.34,3.78.53a1.6,1.6,0,0,1,1.34,1.83l-.29,1.78A1.6,1.6,0,0,1,89.31,148.63Zm-10.66-1.26q-1.84-.15-3.6-.24a1.61,1.61,0,0,1-1.53-1.66l.07-1.8a1.59,1.59,0,0,1,1.66-1.54c1.25.06,2.54.15,3.85.26a1.59,1.59,0,0,1,1.45,1.74l-.16,1.8A1.62,1.62,0,0,1,78.65,147.37Zm-15.87-1.58-.19-1.8a1.6,1.6,0,0,1,1.47-1.76c1.24-.1,2.54-.17,3.88-.2a1.59,1.59,0,0,1,1.65,1.58v1.81a1.59,1.59,0,0,1-1.54,1.6c-1.24,0-2.43.1-3.58.19A1.59,1.59,0,0,1,62.78,145.79Z"/><path class="cls-1" d="M240,198.77l-.26-.11a1.61,1.61,0,0,1-.83-2.11l.73-1.65a1.6,1.6,0,0,1,2.11-.82l.29.13a1.59,1.59,0,0,1,.8,2.11l-.74,1.65A1.59,1.59,0,0,1,240,198.77Z"/><path class="cls-1" d="M41.41,156.76a4.84,4.84,0,0,1,3.84-5.13c.6-.12,1.19-.23,1.79-.32,2-.36,4-.61,6-.8s4-.36,6-.42h.33a4.84,4.84,0,0,1,5,5.39l-1.32,11.82a4.83,4.83,0,0,1-5.26,4.29C54,171.22,50.44,171,47,171a4.83,4.83,0,0,1-4.79-4.47Z"/><path class="cls-1" d="M70.25,154.63a4.88,4.88,0,0,1,5.26-4.15c2.83.25,5.65.59,8.45.93,2.17.26,4.31.61,6.44,1s4.26.76,6.38,1.17c4.24.8,8.42,1.83,12.59,2.83q3.78.91,7.53,1.91a4.85,4.85,0,0,1,3.42,6.11l-4.78,15.65a4.84,4.84,0,0,1-6.07,3.22c-6.17-1.94-12.37-3.75-18.57-5.37s-12.47-3.06-18.69-4.22a4.84,4.84,0,0,1-3.9-5.45Z"/><path class="cls-1" d="M126,165.69a4.86,4.86,0,0,1,6-3.19c2.58.75,5.14,1.52,7.69,2.34q6.08,1.93,12.1,4t12,4.16c2.43.85,4.85,1.75,7.27,2.65a4.87,4.87,0,0,1,2.81,6.34l-6.9,17.4a4.85,4.85,0,0,1-6.36,2.69c-12.16-5-24.41-9.71-36.75-14a4.85,4.85,0,0,1-3-6.05Z"/><path class="cls-1" d="M179.24,183.9a4.84,4.84,0,0,1,6.27-2.7q3.66,1.44,7.31,2.91c3.9,1.6,7.79,3.24,11.67,4.89s7.75,3.33,11.6,5.05l7.08,3.27a4.85,4.85,0,0,1,2.38,6.43L217.16,222a4.85,4.85,0,0,1-6.49,2.35q-17.86-8.52-36-16.36a4.85,4.85,0,0,1-2.59-6.26Z"/><path class="cls-1" d="M242.88,206.74,237.23,204a4.86,4.86,0,0,0-6.53,2.31l-8.56,18.36a4.85,4.85,0,0,0,2.21,6.38l10.7,5.39a4.85,4.85,0,0,0,6.51-2.15Z"/><path class="cls-1" d="M38.36,179.12l-.6-1.74a1.59,1.59,0,0,1,1.08-2.06l.53-.13a1.6,1.6,0,0,1,1.92,1.3l.29,1.8a1.58,1.58,0,0,1-1.23,1.8l-.1,0A1.59,1.59,0,0,1,38.36,179.12Z"/><path class="cls-1" d="M231.85,244.82l-3.35-1.56a1.59,1.59,0,0,1-.78-2.11l.76-1.65a1.6,1.6,0,0,1,2.12-.78c1.21.56,2.34,1.08,3.37,1.57a1.58,1.58,0,0,1,.76,2.11l-.77,1.65A1.59,1.59,0,0,1,231.85,244.82ZM222,240.29l-3.35-1.53a1.6,1.6,0,0,1-.8-2.11l.75-1.66a1.6,1.6,0,0,1,2.11-.79l3.37,1.54a1.6,1.6,0,0,1,.79,2.11l-.76,1.65A1.6,1.6,0,0,1,222,240.29Zm-9.82-4.46-3.37-1.51a1.6,1.6,0,0,1-.81-2.1l.75-1.66a1.58,1.58,0,0,1,2.1-.8l3.38,1.51a1.58,1.58,0,0,1,.79,2.1l-.74,1.66A1.59,1.59,0,0,1,212.22,235.83Zm-9.86-4.4L199,229.94a1.6,1.6,0,0,1-.82-2.1l.73-1.66a1.61,1.61,0,0,1,2.11-.82l3.38,1.5a1.59,1.59,0,0,1,.81,2.1l-.74,1.66A1.59,1.59,0,0,1,202.36,231.43Zm-9.87-4.34-3.38-1.47a1.59,1.59,0,0,1-.83-2.09l.72-1.67a1.6,1.6,0,0,1,2.1-.82l3.39,1.47a1.58,1.58,0,0,1,.82,2.09l-.73,1.67A1.59,1.59,0,0,1,192.49,227.09Zm-9.9-4.27-3.39-1.45a1.59,1.59,0,0,1-.84-2.09l.71-1.67a1.59,1.59,0,0,1,2.09-.84l3.4,1.45a1.58,1.58,0,0,1,.83,2.09l-.72,1.67A1.58,1.58,0,0,1,182.59,222.82Zm-9.93-4.21c-1.12-.48-2.26-1-3.39-1.42a1.59,1.59,0,0,1-.86-2.08l.69-1.68a1.59,1.59,0,0,1,2.09-.86L174.6,214a1.59,1.59,0,0,1,.85,2.08l-.71,1.68A1.59,1.59,0,0,1,172.66,218.61Zm-9.95-4.14-3.41-1.4a1.59,1.59,0,0,1-.87-2.07l.68-1.68a1.59,1.59,0,0,1,2.08-.88l3.42,1.41a1.57,1.57,0,0,1,.86,2.07l-.69,1.69A1.59,1.59,0,0,1,162.71,214.47Zm-10-4.06-3.42-1.36a1.6,1.6,0,0,1-.9-2.07l.67-1.69a1.62,1.62,0,0,1,2.08-.89l3.43,1.37a1.59,1.59,0,0,1,.88,2.08l-.68,1.68A1.58,1.58,0,0,1,152.73,210.41Zm-10-4-3.44-1.34a1.58,1.58,0,0,1-.91-2l.65-1.69a1.59,1.59,0,0,1,2.06-.92l3.46,1.35a1.59,1.59,0,0,1,.9,2.06l-.66,1.7A1.59,1.59,0,0,1,142.71,206.44Zm-10.07-3.87-3.43-1.3a1.57,1.57,0,0,1-.93-2l.63-1.71a1.6,1.6,0,0,1,2.05-.94l3.45,1.3a1.61,1.61,0,0,1,.93,2.06l-.65,1.7A1.59,1.59,0,0,1,132.64,202.57Zm-10.08-3.75c-1.15-.43-2.31-.84-3.45-1.26a1.58,1.58,0,0,1-1-2l.61-1.71a1.59,1.59,0,0,1,2-1l3.48,1.26a1.6,1.6,0,0,1,1,2l-.63,1.7A1.59,1.59,0,0,1,122.56,198.82Zm-10.13-3.62q-1.74-.62-3.48-1.2a1.6,1.6,0,0,1-1-2l.58-1.72a1.6,1.6,0,0,1,2-1l3.51,1.22a1.6,1.6,0,0,1,1,2l-.61,1.71A1.6,1.6,0,0,1,112.43,195.2Zm-10.19-3.46-3.49-1.14a1.58,1.58,0,0,1-1-2l.55-1.73a1.59,1.59,0,0,1,2-1l3.53,1.15a1.61,1.61,0,0,1,1,2l-.58,1.72A1.59,1.59,0,0,1,102.24,191.74ZM92,188.48l-3.51-1a1.59,1.59,0,0,1-1.07-2l.51-1.74a1.59,1.59,0,0,1,2-1.09l3.57,1.07a1.61,1.61,0,0,1,1.06,2L94,187.44A1.59,1.59,0,0,1,92,188.48Zm-10.3-3-3.53-1A1.58,1.58,0,0,1,77,182.61l.45-1.76a1.59,1.59,0,0,1,1.93-1.15l3.61,1a1.61,1.61,0,0,1,1.12,2l-.49,1.75A1.6,1.6,0,0,1,81.7,185.49Zm-10.37-2.64-3.54-.79a1.58,1.58,0,0,1-1.23-1.87l.36-1.78a1.59,1.59,0,0,1,1.89-1.24c1.19.25,2.42.53,3.67.82a1.58,1.58,0,0,1,1.18,1.92l-.42,1.76A1.58,1.58,0,0,1,71.33,182.85Zm-10.44-2.11c-1.22-.21-2.4-.39-3.54-.55A1.6,1.6,0,0,1,56,178.42l.22-1.8A1.59,1.59,0,0,1,58,175.23c1.21.17,2.47.36,3.76.58a1.6,1.6,0,0,1,1.3,1.85l-.32,1.79A1.61,1.61,0,0,1,60.89,180.74ZM50.45,179.5c-1.22-.07-2.39-.1-3.5-.09a1.57,1.57,0,0,1-1.58-1.52l-.08-1.82a1.6,1.6,0,0,1,1.58-1.66c1.23,0,2.52,0,3.87.1a1.6,1.6,0,0,1,1.52,1.71L52.12,178A1.59,1.59,0,0,1,50.45,179.5Z"/><path class="cls-1" d="M357.18,137.21h22.14l-22,140.73h-24Z"/><path class="cls-1" d="M395.82,137.21H423.6l11.62,84.24h.43l9.89-84.24h19.72L450.38,277.94H425.74L410.83,175.21h-.42L396.53,277.94H375.16Z"/><path class="cls-1" d="M481.77,137.21h33.81q16.5,0,24.21,8.85T546.62,172l-4,71.17q-1,17.09-10.36,25.93t-27.36,8.85H468.25ZM506,257.83q5.82,0,9.18-3.21T519,244.16L524.1,171q.49-7.25-2.23-10.46t-8.23-3.21h-11.4L493.9,257.83Z"/><path class="cls-1" d="M563.48,137.21h22.14l-4.87,140.73h-24Z"/><path class="cls-1" d="M606.41,270.7q-9.12-9.24-8.67-26.13l1.91-74q.44-16.89,9.37-26.14t25.11-9.25q16.29,0,25,9.25t9.06,26.14l1,74q.22,16.88-9,26.13t-27,9.25Q615.6,280,606.41,270.7ZM645.69,246l-.07-76.79q0-13.87-11.6-13.87t-11.78,13.87l-1,76.79q-.18,13.88,12.13,13.87T645.69,246Z"/><path class="cls-1" d="M682.63,137.21H741.2l1.15,20.11H705.49l1.4,39.2h29.59l1.06,20.1H707.62l2.2,61.32h-24Z"/><path class="cls-1" d="M751.86,137.21H774l9.27,120.62h39l2,20.11H760.83Z"/><path class="cls-1" d="M821.1,137.21h22.14l16.57,140.73h-24Z"/><path class="cls-1" d="M888.83,206l-33.92-68.76h23.35l21.58,45.44h.42l8.59-45.44h20.93L916.05,206l38.82,72H929.58L905,228.88h-.43l-10.71,49.06H871.15Z"/><path class="cls-1" d="M279.8,58.16l12.95.78c0-.94,0-1.88-.06-2.82C292,41.34,290,26.94,284.52,12.88a4.83,4.83,0,0,0-8.84-.17C268,24.84,263,38.56,259.12,52.09q-1.46,5.11-2.63,10.21l9.36,2.7-10.12.62c-.15.7-.28,1.39-.42,2.09L269.06,72l-14.88,1.51a267.5,267.5,0,0,0-4.11,39.84c-.5,11.17-1.81,22.94-5.7,33.57a216.41,216.41,0,0,0,.46-22.35C244.3,103,242,81.11,234.05,60.94a39.28,39.28,0,0,1-12.57,2.17s3.35-1.07,9.33-9.47C226.53,45.51,220,38.79,214.1,31.83c-3.82-4.42-7.4-9.06-11.1-13.52C198.05,12.39,192.9,6.81,188,1a2.74,2.74,0,0,0-4.82,1.62l-.14,3a130.68,130.68,0,0,0,1.74,24.91c.28,1.94.64,3.92,1.05,5.89,10.48,12.22,20.2,13,20.2,13a58.3,58.3,0,0,1-17.19-.64c.18.61.36,1.2.55,1.74.1.33.22.65.33,1a67.18,67.18,0,0,0,15.26.5c-3.33,3.34-10.63,4.85-13,5.27,1.69,3.83,3.67,7.54,5.65,11.24,4.6,9.11,10.12,18.64,15.32,27.75,9.42,15.9,15.85,33.65,17.72,52.06.17,1.55.3,3.12.42,4.69A112.09,112.09,0,0,0,45.26,148a108.75,108.75,0,0,0-7.77,12.57,106.41,106.41,0,0,0-5,10.68l-.17.44a109.65,109.65,0,0,0-3.62,10.66,178.52,178.52,0,0,0-27.08,36.1l-1.63,3,2.2,2.61c11.22,13.31,21.38,16.13,25.53,16.72A113.08,113.08,0,0,0,58.4,295.23a104.71,104.71,0,0,0,74,30.09c1.44,0,2.88,0,4.33-.08,23.72-.92,45.32-7.6,62.67-19.3a209.9,209.9,0,0,0,41,7.84l5.58.5-.14-5.61c-.77-30.31-3.79-49.84-4.69-55.11a109.13,109.13,0,0,0,4.77-15.6c.2-.86.38-1.74.55-2.56,0-.16.07-.32.09-.49a112.05,112.05,0,0,0,2.12-21.77,114.73,114.73,0,0,0-1.24-16.75c-.16-1-.32-2-.51-3.09-.38-2.13-.78-4.05-1.22-5.87a107.1,107.1,0,0,0-3.19-11c-.06-.19-.12-.37-.19-.54,14.29-6.5,23.31-21.32,30.66-34.37,13-23.32,19.27-48.63,19.84-74.68Zm-162.27,154a7.28,7.28,0,0,0,6.89,5,7.46,7.46,0,0,0,2.32-.38,7.23,7.23,0,0,0,4.87-5.89l.95.37c3,1.14,6,2.33,9.07,3.54a17.64,17.64,0,0,1-33-12.37c2.62.91,5.46,1.93,8.78,3.13l1,.36c-.15.24-.32.47-.45.73A7.23,7.23,0,0,0,117.53,212.17Zm16.82-5.61c-5-1.94-10.16-3.87-15.25-5.73-4.32-1.56-7.84-2.82-11.1-3.94s-6.76-2.32-10.41-3.5c-4-1.32-8-2.56-11.79-3.7-5.6-1.67-11-3.14-16-4.36-4.13-1-8-1.81-11.42-2.43a101.32,101.32,0,0,0-13.85-1.62c-.72,0-1.42,0-2.1,0-1,0-2,0-2.92.09.66-2,1.37-4.05,2.17-6l0-.09h0a97.93,97.93,0,0,1,4.6-9.89,100.45,100.45,0,0,1,7.08-11.45A101.87,101.87,0,0,1,62.32,143c.67-.72,1.36-1.42,2.06-2.11,43.26-6.55,149.46,38.57,171.37,48.16.06.23.13.46.18.69.39,1.63.75,3.37,1.1,5.29.16.94.31,1.88.46,2.83a104.08,104.08,0,0,1,1.13,15.26,101.9,101.9,0,0,1-2,19.94l0,.29c-.16.79-.33,1.58-.52,2.39-.71,3.2-3.16,8.91-4.5,12.52-10.55-4.94-35.4-16.4-64-28.34-7.38-3.09-14.75-6.1-21.91-8.94C141.88,209.48,138.06,208,134.35,206.56ZM69.25,196a7.27,7.27,0,0,0,13.4.92,7.27,7.27,0,0,0,.71-2.69l1,.3c3,.91,6.22,1.9,9.41,2.93a17.7,17.7,0,0,1-8,9.72,11.73,11.73,0,0,0-9.6,2.31,17.67,17.67,0,0,1-16.85-17.62,16.76,16.76,0,0,1,.39-3.57c2.75.54,5.71,1.19,8.85,1.94l1,.25A7.17,7.17,0,0,0,69.25,196Zm67.08,119.3c-53.8,2.09-98.37-40-101.72-95.89,1.23-6.63,5.71-23.77,13.5-32.18l.55-.6c1.93.19,4,.45,6.17.8a22.36,22.36,0,0,0-.45,4.44,22.69,22.69,0,0,0,18.77,22.31,11.47,11.47,0,0,0-.11,6,16.25,16.25,0,0,0,15.21,12c.35,0,.7,0,1,0a2.5,2.5,0,1,0-.41-5,10.47,10.47,0,0,1-7.12-2.38A10.63,10.63,0,0,1,77.9,219a5.82,5.82,0,0,1,.87-5c2.24-2.84,7.18-2.71,11.07.28A29.31,29.31,0,0,1,94,219.44,2.5,2.5,0,0,0,98.35,217a33.93,33.93,0,0,0-5.08-6.37l-.22-.2a17.36,17.36,0,0,0-1.63-1.11A22.79,22.79,0,0,0,98.53,199c1.82.61,3.6,1.2,5.34,1.8a22.65,22.65,0,0,0,42.41,15.87c5,2,10.14,4.09,15.28,6.22A238.68,238.68,0,0,1,151,274.78l-.95,2.91,2.17,2.17c.62.62,1.26,1.23,1.9,1.83l.63.57c.45.42.91.83,1.38,1.24l.74.63c.46.39.92.78,1.39,1.16l.75.6c.53.43,1.08.85,1.64,1.27l.55.42c.74.56,1.5,1.11,2.27,1.65l.5.33c.61.43,1.24.85,1.87,1.26l.82.53c.55.35,1.1.7,1.66,1l.89.54,1.75,1,.82.47,2.39,1.31.25.13c.9.47,1.81.94,2.73,1.39l.8.39c.67.32,1.34.65,2,1l1,.46,1.95.87,1,.43c.72.31,1.45.61,2.19.91l.81.33.25.1C172.64,309.86,155.25,314.51,136.33,315.25Z"/></svg>