<svg width="11" height="11" viewBox="0 0 11 11" fill="none" xmlns="http://www.w3.org/2000/svg">
<path d="M9.94444 2.16672H0.5M9.01833 3.5556L8.76278 7.38893C8.66444 8.86337 8.61556 9.60059 8.135 10.05C7.65444 10.4995 6.915 10.5 5.43722 10.5H5.00722C3.52944 10.5 2.79 10.5 2.30944 10.05C1.82889 9.60059 1.77944 8.86337 1.68167 7.38893L1.42611 3.5556M3.83333 4.94449L4.11111 7.72226M6.61111 4.94449L6.33333 7.72226" stroke="#E03C3C" stroke-linecap="round"/>
<path d="M2.16675 2.16669H2.22786C2.45144 2.16098 2.66809 2.08793 2.84948 1.95709C3.03087 1.82625 3.16856 1.64372 3.24453 1.43336L3.26341 1.37614L3.3173 1.21447C3.36341 1.07614 3.38675 1.00725 3.4173 0.948363C3.47742 0.833024 3.5637 0.733358 3.66923 0.657341C3.77477 0.581323 3.89664 0.531064 4.02508 0.510586C4.09008 0.500031 4.16286 0.500031 4.30841 0.500031H6.13619C6.28175 0.500031 6.35453 0.500031 6.41953 0.510586C6.54797 0.531064 6.66983 0.581323 6.77537 0.657341C6.88091 0.733358 6.96719 0.833024 7.0273 0.948363C7.05786 1.00725 7.08119 1.07614 7.1273 1.21447L7.18119 1.37614C7.2516 1.61018 7.3972 1.81448 7.59546 1.9574C7.79372 2.10031 8.03356 2.17388 8.27786 2.16669" stroke="#E03C3C"/>
</svg>
