<svg width="10" height="11" viewBox="0 0 10 11" fill="none" xmlns="http://www.w3.org/2000/svg">
<path d="M0 2.4123C0 2.1461 0.18975 1.92995 0.42405 1.92995H1.8898C2.18075 1.92115 2.4376 1.7105 2.5366 1.3992L2.5531 1.3442L2.61635 1.12915C2.65485 0.997149 2.6884 0.881649 2.7357 0.7788C2.9216 0.37235 3.2659 0.0901999 3.66355 0.01815C3.76475 -4.09782e-09 3.87145 0 3.99355 0H5.90645C6.0291 0 6.1358 -4.09782e-09 6.23645 0.01815C6.6341 0.0901999 6.97895 0.37235 7.1643 0.7788C7.2116 0.881649 7.24515 0.996599 7.2842 1.12915L7.3469 1.3442L7.3634 1.3992C7.4624 1.7105 7.7704 1.9217 8.0619 1.92995H9.4754C9.71025 1.92995 9.89999 2.1461 9.89999 2.4123C9.89999 2.6785 9.71024 2.89465 9.47595 2.89465H0.4235C0.18975 2.89465 0 2.6785 0 2.4123Z" fill="#E03C3C"/>
<path fill-rule="evenodd" clip-rule="evenodd" d="M4.72775 11H5.17215C6.7028 11 7.46785 11 7.96615 10.5127C8.46335 10.0254 8.51395 9.22626 8.6157 7.62796L8.76255 5.32456C8.81755 4.45722 8.84505 4.02327 8.5959 3.74882C8.3462 3.47382 7.9249 3.47382 7.08175 3.47382H2.81815C1.975 3.47382 1.55315 3.47382 1.304 3.74882C1.05486 4.02382 1.08181 4.45722 1.13736 5.32456L1.28421 7.62796C1.38596 9.22626 1.43656 10.026 1.9343 10.5127C2.43205 11 3.1971 11 4.72775 11ZM3.98525 5.60396C3.96325 5.36527 3.76085 5.19147 3.53425 5.21512C3.3071 5.23877 3.1421 5.45161 3.16465 5.69031L3.43965 8.58496C3.46165 8.82366 3.66405 8.99746 3.89065 8.97381C4.1178 8.95016 4.2828 8.73731 4.26025 8.49861L3.98525 5.60396ZM6.3662 5.21512C6.5928 5.23877 6.75835 5.45161 6.73525 5.69031L6.46025 8.58496C6.43825 8.82366 6.2353 8.99746 6.00925 8.97381C5.7821 8.95016 5.6171 8.73731 5.63965 8.49861L5.91465 5.60396C5.93665 5.36527 6.14015 5.19147 6.3662 5.21512Z" fill="#E03C3C"/>
</svg>
