<svg width="12" height="12" viewBox="0 0 12 12" fill="none" xmlns="http://www.w3.org/2000/svg">
<path d="M3.24318 5.67572C3.02814 5.67572 2.82191 5.76114 2.66985 5.9132C2.5178 6.06526 2.43237 6.27149 2.43237 6.48653C2.43237 6.70157 2.5178 6.9078 2.66985 7.05986C2.82191 7.21192 3.02814 7.29734 3.24318 7.29734C3.45822 7.29734 3.66446 7.21192 3.81651 7.05986C3.96857 6.9078 4.05399 6.70157 4.05399 6.48653C4.05399 6.27149 3.96857 6.06526 3.81651 5.9132C3.66446 5.76114 3.45822 5.67572 3.24318 5.67572ZM8.10805 5.67572C7.89301 5.67572 7.68678 5.76114 7.53472 5.9132C7.38266 6.06526 7.29724 6.27149 7.29724 6.48653C7.29724 6.70157 7.38266 6.9078 7.53472 7.05986C7.68678 7.21192 7.89301 7.29734 8.10805 7.29734C8.32309 7.29734 8.52932 7.21192 8.68138 7.05986C8.83344 6.9078 8.91886 6.70157 8.91886 6.48653C8.91886 6.27149 8.83344 6.06526 8.68138 5.9132C8.52932 5.76114 8.32309 5.67572 8.10805 5.67572ZM4.86481 6.48653C4.86481 6.27149 4.95023 6.06526 5.10229 5.9132C5.25434 5.76114 5.46058 5.67572 5.67562 5.67572C5.89066 5.67572 6.09689 5.76114 6.24895 5.9132C6.401 6.06526 6.48643 6.27149 6.48643 6.48653C6.48643 6.70157 6.401 6.9078 6.24895 7.05986C6.09689 7.21192 5.89066 7.29734 5.67562 7.29734C5.46058 7.29734 5.25434 7.21192 5.10229 7.05986C4.95023 6.9078 4.86481 6.70157 4.86481 6.48653ZM3.24318 8.27031C3.02814 8.27031 2.82191 8.35574 2.66985 8.5078C2.5178 8.65985 2.43237 8.86609 2.43237 9.08113C2.43237 9.29617 2.5178 9.5024 2.66985 9.65446C2.82191 9.80651 3.02814 9.89194 3.24318 9.89194C3.45822 9.89194 3.66446 9.80651 3.81651 9.65446C3.96857 9.5024 4.05399 9.29617 4.05399 9.08113C4.05399 8.86609 3.96857 8.65985 3.81651 8.5078C3.66446 8.35574 3.45822 8.27031 3.24318 8.27031ZM4.86481 9.08113C4.86481 8.86609 4.95023 8.65985 5.10229 8.5078C5.25434 8.35574 5.46058 8.27031 5.67562 8.27031C5.89066 8.27031 6.09689 8.35574 6.24895 8.5078C6.401 8.65985 6.48643 8.86609 6.48643 9.08113C6.48643 9.29617 6.401 9.5024 6.24895 9.65446C6.09689 9.80651 5.89066 9.89194 5.67562 9.89194C5.46058 9.89194 5.25434 9.80651 5.10229 9.65446C4.95023 9.5024 4.86481 9.29617 4.86481 9.08113Z" fill="#7F8184"/>
<path d="M4.61643 0H6.73492C7.44324 0 8.00497 -5.07445e-08 8.45708 0.0369729C8.92022 0.0745945 9.31135 0.15373 9.66941 0.335351C10.2491 0.631034 10.7202 1.10265 11.0154 1.68259C11.1976 2.03935 11.2768 2.43113 11.3144 2.89427C11.3514 3.34638 11.3514 3.90811 11.3514 4.61643V7.38357C11.3514 8.09189 11.3514 8.65362 11.3144 9.10573C11.2768 9.56886 11.1976 9.96 11.016 10.3181C10.7205 10.8976 10.2491 11.3688 9.66941 11.664C9.31135 11.8463 8.92022 11.9254 8.45708 11.963C8.00497 12 7.44324 12 6.73492 12H4.61643C3.90811 12 3.34638 12 2.89427 11.963C2.43114 11.9254 2.04 11.8463 1.68259 11.6646C1.10279 11.3692 0.631404 10.8979 0.336 10.3181C0.15373 9.96 0.0745945 9.56886 0.0369729 9.10573C-5.07445e-08 8.65362 0 8.09189 0 7.38357V4.61643C0 3.90811 -5.07445e-08 3.34638 0.0369729 2.89427C0.0745945 2.43113 0.15373 2.04 0.335351 1.68259C0.630924 1.10269 1.10255 0.631294 1.68259 0.336C2.03935 0.15373 2.43114 0.0745945 2.89427 0.0369729C3.34638 -5.07445e-08 3.90811 0 4.61643 0ZM0.972973 4.37838V7.36216C0.972973 8.09708 0.972973 8.61859 1.0067 9.02659C1.03914 9.42876 1.10205 9.67849 1.20259 9.87632C1.40469 10.2729 1.72711 10.5953 2.12368 10.7974C2.32151 10.8979 2.57124 10.9602 2.97341 10.9933C3.38205 11.0264 3.90357 11.027 4.63784 11.027H6.71351C7.44843 11.027 7.96995 11.027 8.37795 10.9933C8.78011 10.9609 9.02984 10.8979 9.22768 10.7974C9.62424 10.5953 9.94666 10.2729 10.1488 9.87632C10.2493 9.67849 10.3116 9.42876 10.3446 9.02659C10.3777 8.61795 10.3784 8.09643 10.3784 7.36216V4.37838H0.972973ZM4.05405 1.94595C3.88202 1.94595 3.71704 2.01429 3.59539 2.13593C3.47375 2.25758 3.40541 2.42256 3.40541 2.59459C3.40541 2.76663 3.47375 2.93161 3.59539 3.05326C3.71704 3.1749 3.88202 3.24324 4.05405 3.24324H7.2973C7.46933 3.24324 7.63432 3.1749 7.75596 3.05326C7.87761 2.93161 7.94595 2.76663 7.94595 2.59459C7.94595 2.42256 7.87761 2.25758 7.75596 2.13593C7.63432 2.01429 7.46933 1.94595 7.2973 1.94595H4.05405Z" fill="#7F8184"/>
</svg>
