<svg width="18" height="18" viewBox="0 0 18 18" fill="none" xmlns="http://www.w3.org/2000/svg">
<path d="M4.86487 8.51355C4.54231 8.51355 4.23296 8.64169 4.00487 8.86977C3.77679 9.09786 3.64865 9.40721 3.64865 9.72977C3.64865 10.0523 3.77679 10.3617 4.00487 10.5898C4.23296 10.8178 4.54231 10.946 4.86487 10.946C5.18743 10.946 5.49678 10.8178 5.72486 10.5898C5.95295 10.3617 6.08108 10.0523 6.08108 9.72977C6.08108 9.40721 5.95295 9.09786 5.72486 8.86977C5.49678 8.64169 5.18743 8.51355 4.86487 8.51355ZM12.1622 8.51355C11.8396 8.51355 11.5303 8.64169 11.3022 8.86977C11.0741 9.09786 10.9459 9.40721 10.9459 9.72977C10.9459 10.0523 11.0741 10.3617 11.3022 10.5898C11.5303 10.8178 11.8396 10.946 12.1622 10.946C12.4847 10.946 12.7941 10.8178 13.0222 10.5898C13.2502 10.3617 13.3784 10.0523 13.3784 9.72977C13.3784 9.40721 13.2502 9.09786 13.0222 8.86977C12.7941 8.64169 12.4847 8.51355 12.1622 8.51355ZM7.2973 9.72977C7.2973 9.40721 7.42544 9.09786 7.65352 8.86977C7.88161 8.64169 8.19096 8.51355 8.51352 8.51355C8.83608 8.51355 9.14543 8.64169 9.37351 8.86977C9.6016 9.09786 9.72973 9.40721 9.72973 9.72977C9.72973 10.0523 9.6016 10.3617 9.37351 10.5898C9.14543 10.8178 8.83608 10.946 8.51352 10.946C8.19096 10.946 7.88161 10.8178 7.65352 10.5898C7.42544 10.3617 7.2973 10.0523 7.2973 9.72977ZM4.86487 12.4054C4.54231 12.4054 4.23296 12.5336 4.00487 12.7617C3.77679 12.9897 3.64865 13.2991 3.64865 13.6217C3.64865 13.9442 3.77679 14.2536 4.00487 14.4817C4.23296 14.7097 4.54231 14.8379 4.86487 14.8379C5.18743 14.8379 5.49678 14.7097 5.72486 14.4817C5.95295 14.2536 6.08108 13.9442 6.08108 13.6217C6.08108 13.2991 5.95295 12.9897 5.72486 12.7617C5.49678 12.5336 5.18743 12.4054 4.86487 12.4054ZM7.2973 13.6217C7.2973 13.2991 7.42544 12.9897 7.65352 12.7617C7.88161 12.5336 8.19096 12.4054 8.51352 12.4054C8.83608 12.4054 9.14543 12.5336 9.37351 12.7617C9.6016 12.9897 9.72973 13.2991 9.72973 13.6217C9.72973 13.9442 9.6016 14.2536 9.37351 14.4817C9.14543 14.7097 8.83608 14.8379 8.51352 14.8379C8.19096 14.8379 7.88161 14.7097 7.65352 14.4817C7.42544 14.2536 7.2973 13.9442 7.2973 13.6217Z" fill="#F2F2F2"/>
<path d="M6.92465 0H10.1024C11.1649 0 12.0075 -7.61167e-08 12.6856 0.0554594C13.3803 0.111892 13.967 0.230595 14.5041 0.503027C15.3736 0.946552 16.0803 1.65398 16.523 2.52389C16.7964 3.05903 16.9151 3.6467 16.9716 4.34141C17.027 5.01957 17.027 5.86216 17.027 6.92465V11.0754C17.027 12.1378 17.027 12.9804 16.9716 13.6586C16.9151 14.3533 16.7964 14.94 16.524 15.4771C16.0807 16.3464 15.3737 17.0531 14.5041 17.496C13.967 17.7694 13.3803 17.8881 12.6856 17.9445C12.0075 18 11.1649 18 10.1024 18H6.92465C5.86216 18 5.01957 18 4.34141 17.9445C3.6467 17.8881 3.06 17.7694 2.52389 17.497C1.65419 17.0539 0.947106 16.3468 0.504 15.4771C0.230595 14.94 0.111892 14.3533 0.0554594 13.6586C-7.61167e-08 12.9804 0 12.1378 0 11.0754V6.92465C0 5.86216 -7.61167e-08 5.01957 0.0554594 4.34141C0.111892 3.6467 0.230595 3.06 0.503027 2.52389C0.946386 1.65404 1.65383 0.94694 2.52389 0.504C3.05903 0.230595 3.6467 0.111892 4.34141 0.0554594C5.01957 -7.61167e-08 5.86216 0 6.92465 0ZM1.45946 6.56757V11.0432C1.45946 12.1456 1.45946 12.9279 1.51005 13.5399C1.5587 14.1431 1.65308 14.5177 1.80389 14.8145C2.10703 15.4093 2.59067 15.893 3.18551 16.1961C3.48227 16.3469 3.85686 16.4403 4.46011 16.4899C5.07308 16.5396 5.85535 16.5405 6.95676 16.5405H10.0703C11.1726 16.5405 11.9549 16.5405 12.5669 16.4899C13.1702 16.4413 13.5448 16.3469 13.8415 16.1961C14.4364 15.893 14.92 15.4093 15.2231 14.8145C15.3739 14.5177 15.4674 14.1431 15.517 13.5399C15.5666 12.9269 15.5676 12.1446 15.5676 11.0432V6.56757H1.45946ZM6.08108 2.91892C5.82303 2.91892 5.57555 3.02143 5.39309 3.2039C5.21062 3.38636 5.10811 3.63384 5.10811 3.89189C5.10811 4.14994 5.21062 4.39742 5.39309 4.57989C5.57555 4.76236 5.82303 4.86486 6.08108 4.86486H10.9459C11.204 4.86486 11.4515 4.76236 11.6339 4.57989C11.8164 4.39742 11.9189 4.14994 11.9189 3.89189C11.9189 3.63384 11.8164 3.38636 11.6339 3.2039C11.4515 3.02143 11.204 2.91892 10.9459 2.91892H6.08108Z" fill="#F2F2F2"/>
</svg>
