<svg width="23" height="24" viewBox="0 0 23 24" fill="none" xmlns="http://www.w3.org/2000/svg">
<path d="M6.48643 11.3514C6.05635 11.3514 5.64388 11.5223 5.33977 11.8264C5.03566 12.1305 4.86481 12.543 4.86481 12.9731C4.86481 13.4031 5.03566 13.8156 5.33977 14.1197C5.64388 14.4238 6.05635 14.5947 6.48643 14.5947C6.91651 14.5947 7.32898 14.4238 7.63309 14.1197C7.9372 13.8156 8.10805 13.4031 8.10805 12.9731C8.10805 12.543 7.9372 12.1305 7.63309 11.8264C7.32898 11.5223 6.91651 11.3514 6.48643 11.3514ZM16.2162 11.3514C15.7861 11.3514 15.3736 11.5223 15.0695 11.8264C14.7654 12.1305 14.5945 12.543 14.5945 12.9731C14.5945 13.4031 14.7654 13.8156 15.0695 14.1197C15.3736 14.4238 15.7861 14.5947 16.2162 14.5947C16.6462 14.5947 17.0587 14.4238 17.3628 14.1197C17.6669 13.8156 17.8378 13.4031 17.8378 12.9731C17.8378 12.543 17.6669 12.1305 17.3628 11.8264C17.0587 11.5223 16.6462 11.3514 16.2162 11.3514ZM9.72967 12.9731C9.72967 12.543 9.90052 12.1305 10.2046 11.8264C10.5087 11.5223 10.9212 11.3514 11.3513 11.3514C11.7814 11.3514 12.1938 11.5223 12.498 11.8264C12.8021 12.1305 12.9729 12.543 12.9729 12.9731C12.9729 13.4031 12.8021 13.8156 12.498 14.1197C12.1938 14.4238 11.7814 14.5947 11.3513 14.5947C10.9212 14.5947 10.5087 14.4238 10.2046 14.1197C9.90052 13.8156 9.72967 13.4031 9.72967 12.9731ZM6.48643 16.5406C6.05635 16.5406 5.64388 16.7115 5.33977 17.0156C5.03566 17.3197 4.86481 17.7322 4.86481 18.1623C4.86481 18.5923 5.03566 19.0048 5.33977 19.3089C5.64388 19.613 6.05635 19.7839 6.48643 19.7839C6.91651 19.7839 7.32898 19.613 7.63309 19.3089C7.9372 19.0048 8.10805 18.5923 8.10805 18.1623C8.10805 17.7322 7.9372 17.3197 7.63309 17.0156C7.32898 16.7115 6.91651 16.5406 6.48643 16.5406ZM9.72967 18.1623C9.72967 17.7322 9.90052 17.3197 10.2046 17.0156C10.5087 16.7115 10.9212 16.5406 11.3513 16.5406C11.7814 16.5406 12.1938 16.7115 12.498 17.0156C12.8021 17.3197 12.9729 17.7322 12.9729 18.1623C12.9729 18.5923 12.8021 19.0048 12.498 19.3089C12.1938 19.613 11.7814 19.7839 11.3513 19.7839C10.9212 19.7839 10.5087 19.613 10.2046 19.3089C9.90052 19.0048 9.72967 18.5923 9.72967 18.1623Z" fill="#3D444D" fill-opacity="0.5"/>
<path d="M9.23286 0H13.4698C14.8865 0 16.0099 -1.01489e-07 16.9142 0.0739458C17.8404 0.149189 18.6227 0.307459 19.3388 0.670703C20.4981 1.26207 21.4405 2.2053 22.0307 3.36519C22.3952 4.0787 22.5535 4.86227 22.6288 5.78854C22.7027 6.69276 22.7027 7.81622 22.7027 9.23286V14.7671C22.7027 16.1838 22.7027 17.3072 22.6288 18.2115C22.5535 19.1377 22.3952 19.92 22.032 20.6361C21.441 21.7952 20.4982 22.7375 19.3388 23.328C18.6227 23.6925 17.8404 23.8508 16.9142 23.9261C16.0099 24 14.8865 24 13.4698 24H9.23286C7.81622 24 6.69276 24 5.78854 23.9261C4.86227 23.8508 4.08 23.6925 3.36519 23.3293C2.20559 22.7385 1.26281 21.7957 0.672 20.6361C0.307459 19.92 0.149189 19.1377 0.0739459 18.2115C-1.01489e-07 17.3072 0 16.1838 0 14.7671V9.23286C0 7.81622 -1.01489e-07 6.69276 0.0739459 5.78854C0.149189 4.86227 0.307459 4.08 0.670703 3.36519C1.26185 2.20539 2.2051 1.26259 3.36519 0.672C4.0787 0.307459 4.86227 0.149189 5.78854 0.0739458C6.69276 -1.01489e-07 7.81622 0 9.23286 0ZM1.94595 8.75676V14.7243C1.94595 16.1942 1.94595 17.2372 2.01341 18.0532C2.07827 18.8575 2.20411 19.357 2.40519 19.7526C2.80938 20.5458 3.45423 21.1906 4.24735 21.5948C4.64303 21.7959 5.14249 21.9204 5.94681 21.9866C6.76411 22.0528 7.80714 22.0541 9.27568 22.0541H13.427C14.8969 22.0541 15.9399 22.0541 16.7559 21.9866C17.5602 21.9217 18.0597 21.7959 18.4554 21.5948C19.2485 21.1906 19.8933 20.5458 20.2975 19.7526C20.4986 19.357 20.6231 18.8575 20.6893 18.0532C20.7555 17.2359 20.7568 16.1929 20.7568 14.7243V8.75676H1.94595ZM8.10811 3.89189C7.76404 3.89189 7.43407 4.02857 7.19078 4.27186C6.94749 4.51515 6.81081 4.84512 6.81081 5.18919C6.81081 5.53325 6.94749 5.86323 7.19078 6.10652C7.43407 6.34981 7.76404 6.48649 8.10811 6.48649H14.5946C14.9387 6.48649 15.2686 6.34981 15.5119 6.10652C15.7552 5.86323 15.8919 5.53325 15.8919 5.18919C15.8919 4.84512 15.7552 4.51515 15.5119 4.27186C15.2686 4.02857 14.9387 3.89189 14.5946 3.89189H8.10811Z" fill="#3D444D" fill-opacity="0.5"/>
</svg>
