<svg width="14" height="16" viewBox="0 0 14 16" fill="none" xmlns="http://www.w3.org/2000/svg">
<path fill-rule="evenodd" clip-rule="evenodd" d="M2.78514 0.857143C2.78514 0.629814 2.69484 0.411797 2.53409 0.251051C2.37335 0.0903059 2.15533 0 1.928 0C1.70067 0 1.48265 0.0903059 1.32191 0.251051C1.16116 0.411797 1.07086 0.629814 1.07086 0.857143V8.03428H0.857143C0.629814 8.03428 0.411797 8.12459 0.251051 8.28534C0.0903059 8.44608 0 8.6641 0 8.89143C0 9.11876 0.0903059 9.33677 0.251051 9.49752C0.411797 9.65827 0.629814 9.74857 0.857143 9.74857H1.66171L5.23543 12.2057L2.51314 14.0766C2.32582 14.2054 2.19735 14.4033 2.15599 14.6269C2.1355 14.7376 2.13702 14.8512 2.16046 14.9613C2.18389 15.0714 2.22879 15.1758 2.29257 15.2686C2.35636 15.3613 2.43779 15.4406 2.53221 15.5019C2.62663 15.5632 2.7322 15.6052 2.84289 15.6257C3.06643 15.6671 3.29725 15.618 3.48457 15.4891L6.74857 13.2457L10.0126 15.4891C10.1053 15.5529 10.2097 15.5978 10.3198 15.6213C10.4299 15.6447 10.5436 15.6462 10.6543 15.6257C10.7649 15.6052 10.8705 15.5632 10.9649 15.5019C11.0594 15.4406 11.1408 15.3613 11.2046 15.2686C11.2684 15.1758 11.3132 15.0714 11.3367 14.9613C11.3601 14.8512 11.3616 14.7376 11.3412 14.6269C11.3207 14.5162 11.2786 14.4106 11.2173 14.3162C11.156 14.2218 11.0768 14.1404 10.984 14.0766L8.26171 12.2057L11.8354 9.74857H12.64C12.8673 9.74857 13.0853 9.65827 13.2461 9.49752C13.4068 9.33677 13.4971 9.11876 13.4971 8.89143C13.4971 8.6641 13.4068 8.44608 13.2461 8.28534C13.0853 8.12459 12.8673 8.03428 12.64 8.03428H12.4263V0.857143C12.4263 0.629814 12.336 0.411797 12.1752 0.251051C12.0145 0.0903059 11.7965 0 11.5691 0C11.3418 0 11.1238 0.0903059 10.9631 0.251051C10.8023 0.411797 10.712 0.629814 10.712 0.857143H2.78514ZM8.80914 9.74857H4.688L6.74857 11.1657L8.80914 9.74857ZM2.78514 5.69943V8.03428H10.712V5.69943H2.78514Z" fill="#F2F2F2"/>
</svg>
