<svg width="13" height="11" viewBox="0 0 13 11" fill="none" xmlns="http://www.w3.org/2000/svg">
<path d="M11.8911 0V2.51778L10.7734 3.66667H2.23554L1.18911 1.50944V8.55556H5.94557V9.77778H1.18911C0.873742 9.77778 0.571286 9.64901 0.348284 9.4198C0.125281 9.19059 0 8.87971 0 8.55556V1.22222C0 0.898069 0.125281 0.587192 0.348284 0.357981C0.571286 0.128769 0.873742 0 1.18911 0H1.78367L2.97279 2.44444H4.75646L3.56734 0H4.75646L5.94557 2.44444H7.72925L6.54013 0H7.72925L8.91836 2.44444H10.702L9.51292 0H11.8911ZM12.1409 5.07222L12.9019 5.85444C13.0327 5.98278 13.0327 6.19667 12.9019 6.325L12.3073 6.93611L11.0885 5.68333L11.6831 5.07222C11.7485 5.005 11.8317 4.96833 11.9149 4.96833C11.9982 4.96833 12.0755 5.005 12.1409 5.07222ZM11.9625 7.29056L8.35948 11H7.13469V9.74111L10.7437 6.03778L11.9625 7.29056Z" fill="#F2F2F2"/>
</svg>
