<svg width="14" height="11" viewBox="0 0 14 11" fill="none" xmlns="http://www.w3.org/2000/svg">
<path d="M12.8315 4.61353C12.7418 4.61353 12.6522 4.65235 12.5818 4.72353L11.9415 5.37059L13.2541 6.69706L13.8944 6.05C14.0352 5.91412 14.0352 5.68765 13.8944 5.55176L13.0748 4.72353C13.0437 4.68955 13.0061 4.66228 12.9643 4.64338C12.9224 4.62447 12.8773 4.61432 12.8315 4.61353ZM11.5701 5.74588L7.68351 9.66706V11H9.00251L12.8827 7.07235L11.5701 5.74588ZM6.40293 10.3529H1.28059C0.940953 10.3529 0.615231 10.2166 0.375075 9.9739C0.134918 9.73121 0 9.40205 0 9.05882V1.29412C0 0.950896 0.134918 0.621732 0.375075 0.379038C0.615231 0.136344 0.940953 0 1.28059 0H1.92088L3.20146 2.58824H5.12234L3.84176 0H5.12234L6.40293 2.58824H8.3238L7.04322 0H8.3238L9.60439 2.58824H11.5253L10.2447 0H12.8059V2.66588L6.40293 9.13V10.3529Z" fill="#F2F2F2"/>
</svg>
