<svg width="22" height="21" viewBox="0 0 22 21" fill="none" xmlns="http://www.w3.org/2000/svg">
<path fill-rule="evenodd" clip-rule="evenodd" d="M10.9997 0C11.248 0 11.4861 0.100568 11.6617 0.27958C11.8373 0.458592 11.9359 0.701384 11.9359 0.954545V3.29652C12.9895 3.38195 14.0034 3.61009 14.9569 3.96184L16.1355 1.8838C16.2599 1.66461 16.4645 1.50469 16.7044 1.4391C16.9443 1.37352 17.2 1.40763 17.4152 1.53395C17.5218 1.59645 17.6151 1.67976 17.69 1.77911C17.7649 1.87847 17.8199 1.99191 17.8517 2.11294C17.8835 2.23398 17.8916 2.36023 17.8755 2.48446C17.8594 2.60869 17.8194 2.72846 17.7579 2.83691L16.6672 4.76032C17.4825 5.22702 18.238 5.79484 18.9164 6.45082L20.388 4.95218C20.5638 4.77313 20.802 4.67248 21.0504 4.6723C21.2988 4.67212 21.5372 4.77243 21.7132 4.95123C22.0792 5.3235 22.0797 5.92725 21.7136 6.3L20.1638 7.87834C20.9495 8.94494 21.5389 10.1481 21.9032 11.4292C22.0323 11.8842 22.0323 12.367 21.9032 12.8219C20.5664 17.5565 16.1767 21 10.9993 21C5.82463 21 1.4373 17.5608 0.0967206 12.83C-0.0320809 12.375 -0.0322431 11.8921 0.0962525 11.4369C0.459593 10.1559 1.04782 8.95282 1.83236 7.88598L0.283485 6.29952C0.196777 6.21075 0.128094 6.10541 0.0813691 5.98954C0.0346439 5.87366 0.0107942 5.74953 0.0111855 5.62425C0.0115768 5.49896 0.0362015 5.37498 0.0836496 5.25941C0.131098 5.14385 0.200437 5.03896 0.287698 4.95075C0.464092 4.77254 0.702588 4.67292 0.950903 4.67373C1.19922 4.67453 1.43709 4.7757 1.61237 4.95505L3.07886 6.45655C3.75679 5.80032 4.51177 5.23219 5.32659 4.76509L4.24017 2.83357C4.17894 2.72487 4.13935 2.60493 4.12367 2.4806C4.10799 2.35628 4.11653 2.23002 4.14879 2.10906C4.18106 1.98811 4.23642 1.87484 4.3117 1.77574C4.38698 1.67664 4.4807 1.59367 4.58749 1.53157C4.8032 1.40609 5.05891 1.37296 5.29854 1.43944C5.53818 1.50591 5.74218 1.66657 5.86582 1.88618L7.03508 3.96566C8.01055 3.60506 9.0292 3.37999 10.0636 3.29652V0.954545C10.0636 0.701384 10.1622 0.458592 10.3378 0.27958C10.5133 0.100568 10.7514 0 10.9997 0ZM10.9997 5.16886C10.9885 5.16886 10.9774 5.16855 10.9665 5.16791C9.59127 5.17268 8.28767 5.46573 7.11325 5.98786L7.09827 5.99693C7.0403 6.03071 6.97894 6.05807 6.91525 6.07855C5.73886 6.63308 4.68684 7.42829 3.82452 8.4148C3.80579 8.43866 3.78551 8.46189 3.76367 8.48448C2.89889 9.49179 2.26108 10.6801 1.89509 11.9657C1.86414 12.0748 1.86414 12.1907 1.89509 12.2998C3.00116 16.2005 6.64423 19.0909 10.9997 19.0909C15.3571 19.0909 19.002 16.1962 20.1048 12.2936C20.136 12.1842 20.136 12.068 20.1048 11.9585C19.7423 10.6895 19.1147 9.51543 18.2653 8.51693C18.2176 8.47197 18.1746 8.42206 18.137 8.36802C17.2693 7.38835 16.2135 6.60081 15.0351 6.0542C14.9956 6.03936 14.9571 6.02182 14.9199 6.0017C13.6843 5.44879 12.3491 5.16512 10.9997 5.16886ZM5.95616 12.1289C5.95616 9.2925 8.21465 6.99491 10.9988 6.99491C13.7829 6.99491 16.0419 9.2925 16.0419 12.1289C16.0419 14.9654 13.7834 17.2625 10.9988 17.2625C8.21418 17.2625 5.95616 14.9649 5.95616 12.1289Z" fill="#3D444D" fill-opacity="0.5"/>
</svg>
