<svg id="Camada_3" data-name="Camada 3" xmlns="http://www.w3.org/2000/svg" viewBox="0 0 22 24.26"><defs><style>.cls-1{fill:#3d444d;fill-opacity:0.5;fill-rule:evenodd;}</style></defs><path class="cls-1" d="M.26,13.36a11.42,11.42,0,0,0,1.57,3L.28,18a1.27,1.27,0,0,0-.2.31.94.94,0,0,0-.07.37A1,1,0,0,0,.08,19a.85.85,0,0,0,.21.31.92.92,0,0,0,1.32,0l1.47-1.5A11.62,11.62,0,0,0,5.33,19.5L4.24,21.43a1.12,1.12,0,0,0-.12.35,1.22,1.22,0,0,0,0,.38,1,1,0,0,0,.16.33.92.92,0,0,0,.28.24.88.88,0,0,0,.71.09.93.93,0,0,0,.57-.44L7,20.3a11.58,11.58,0,0,0,3,.67v2.34a.93.93,0,0,0,.28.67.92.92,0,0,0,1.32,0,.93.93,0,0,0,.28-.67V21a11.72,11.72,0,0,0,3-.67l1.18,2.08a.93.93,0,0,0,.56.45,1,1,0,0,0,.72-.1,1,1,0,0,0,.27-.24.89.89,0,0,0,.16-.34,1.16,1.16,0,0,0,0-.37,1.12,1.12,0,0,0-.12-.35L16.67,19.5a11.14,11.14,0,0,0,2.25-1.69l1.47,1.5a.92.92,0,0,0,1.32,0,1,1,0,0,0,0-1.35l-1.55-1.57a11.08,11.08,0,0,0,1.58-3,.93.93,0,0,0-.89-1.22h0a.94.94,0,0,0-.89.66,9.3,9.3,0,0,1-1.68,2.95.47.47,0,0,0-.13.15A9.6,9.6,0,0,1,15,18.21l-.42.16A11.4,11.4,0,0,1,11,19.1h0a9.7,9.7,0,0,1-3.86-.82h0a.71.71,0,0,0-.18-.08,9.59,9.59,0,0,1-3.1-2.34.19.19,0,0,0-.06-.07,9.27,9.27,0,0,1-1.71-3,1,1,0,0,0-.89-.66h0A.94.94,0,0,0,.26,13.36Z"/></svg>