<svg id="Camada_3" data-name="Camada 3" xmlns="http://www.w3.org/2000/svg" viewBox="0 0 22 24.26"><defs><style>.cls-1{fill:#f2f2f2;fill-opacity:0.5;fill-rule:evenodd;}</style></defs><path class="cls-1" d="M11,0a.91.91,0,0,1,.66.28,1,1,0,0,1,.28.68V3.28a11.31,11.31,0,0,1,3,.66l1.18-2.08a1,1,0,0,1,.56-.44.89.89,0,0,1,.71.1.92.92,0,0,1,.28.24,1,1,0,0,1,.16.33,1.22,1.22,0,0,1,0,.38,1.12,1.12,0,0,1-.12.35L16.67,4.74a11.93,11.93,0,0,1,2.25,1.69l1.47-1.5a.92.92,0,0,1,1.32,0,1,1,0,0,1,0,1.35L20.16,7.86a11,11,0,0,1,1.74,3.55,2.53,2.53,0,0,1,0,1.39,11.35,11.35,0,0,1-21.8,0,2.53,2.53,0,0,1,0-1.39A11.06,11.06,0,0,1,1.83,7.87L.28,6.28A1.1,1.1,0,0,1,.08,6,.92.92,0,0,1,0,5.61a1.16,1.16,0,0,1,.07-.37,1.06,1.06,0,0,1,.21-.31A.91.91,0,0,1,1,4.65a1,1,0,0,1,.66.29l1.47,1.5A10.86,10.86,0,0,1,5.33,4.75L4.24,2.81a1,1,0,0,1-.12-.35,1.16,1.16,0,0,1,0-.37,1,1,0,0,1,.16-.33,1,1,0,0,1,.28-.25.92.92,0,0,1,.71-.09,1,1,0,0,1,.57.45L7,4a11.35,11.35,0,0,1,3-.67V.94a1,1,0,0,1,.28-.68A.91.91,0,0,1,11,0Zm0,5.17h0A9.53,9.53,0,0,0,7.11,6h0l-.18.08A9.45,9.45,0,0,0,3.82,8.4l-.06.07A9.25,9.25,0,0,0,1.89,12a.62.62,0,0,0,0,.33,9.5,9.5,0,0,0,18.21,0,.47.47,0,0,0,0-.33A9.3,9.3,0,0,0,18.27,8.5a.87.87,0,0,1-.13-.15A9.4,9.4,0,0,0,15,6L14.92,6A9.65,9.65,0,0,0,11,5.15Zm-5,7a5,5,0,1,1,5,5.13A5.08,5.08,0,0,1,6,12.11Z"/></svg>