<svg width="156" height="125" viewBox="0 0 156 125" fill="none" xmlns="http://www.w3.org/2000/svg">
<path d="M94.0688 37.4746C94.0688 34.196 95.3712 31.0517 97.6896 28.7333C100.008 26.415 103.152 25.1125 106.431 25.1125C109.71 25.1125 112.854 26.415 115.172 28.7333C117.491 31.0517 118.793 34.196 118.793 37.4746C118.793 40.7533 117.491 43.8976 115.172 46.216C112.854 48.5343 109.71 49.8367 106.431 49.8367C103.152 49.8367 100.008 48.5343 97.6896 46.216C95.3712 43.8976 94.0688 40.7533 94.0688 37.4746Z" fill="#0D1117"/>
<path fill-rule="evenodd" clip-rule="evenodd" d="M38.5876 1.69036C64.5403 -0.563454 90.6396 -0.563454 116.592 1.69036L129.037 2.77822C134.821 3.28479 140.268 5.72215 144.499 9.69834C148.731 13.6745 151.503 18.9585 152.368 24.7003C156.106 49.5595 156.106 74.8378 152.368 99.697C151.503 105.439 148.731 110.723 144.499 114.699C140.268 118.675 134.821 121.113 129.037 121.619L116.592 122.699C90.6319 124.957 64.5397 124.957 38.5876 122.699L26.1431 121.619C20.357 121.114 14.909 118.678 10.6755 114.701C6.44204 110.725 3.66932 105.44 2.80345 99.697C-0.934483 74.8378 -0.934483 49.5595 2.80345 24.7003C3.66897 18.9585 6.44049 13.6745 10.6723 9.69834C14.9041 5.72215 20.3502 3.28479 26.1348 2.77822L38.5876 1.69036ZM115.521 14.0112C90.2787 11.8107 64.8929 11.8107 39.6507 14.0112L27.2062 15.0909C24.1889 15.3578 21.3487 16.6305 19.1413 18.7049C16.9339 20.7792 15.4873 23.535 15.0337 26.5299C12.9102 40.6277 12.0524 54.8872 12.4706 69.1379L44.373 37.2272C44.9685 36.6328 45.679 36.1662 46.4611 35.856C47.2432 35.5457 48.0804 35.3985 48.9214 35.4232C49.7624 35.4479 50.5896 35.644 51.3521 35.9996C52.1147 36.3551 52.7966 36.8626 53.3561 37.491L83.6185 71.5279L104.469 64.5722C105.612 64.1895 106.842 64.1495 108.008 64.457C109.174 64.7645 110.224 65.4061 111.029 66.3029L140.031 98.5267L140.146 97.8674C143.703 74.2212 143.703 50.1761 140.146 26.5299C139.692 23.5337 138.244 20.777 136.035 18.7025C133.826 16.628 130.984 15.356 127.965 15.0909L115.521 14.0112ZM132.144 108.252L104.543 77.5853L83.6597 84.5411C82.512 84.9243 81.2771 84.9623 80.108 84.6502C78.9389 84.3382 77.8872 83.6899 77.0831 82.7857L48.4772 50.603L13.5008 85.5713C13.9019 89.681 14.4101 93.7769 15.0254 97.8592C15.4778 100.857 16.9248 103.615 19.134 105.692C21.3432 107.768 24.1862 109.041 27.2062 109.306L39.6507 110.386C64.8941 112.578 90.2776 112.578 115.521 110.386L127.965 109.306C129.432 109.175 130.85 108.812 132.144 108.252Z" fill="#0D1117"/>
</svg>
