<svg width="23" height="18" viewBox="0 0 23 18" fill="none" xmlns="http://www.w3.org/2000/svg">
<path fill-rule="evenodd" clip-rule="evenodd" d="M5.58422 0.244601C9.33967 -0.0815335 13.1163 -0.0815335 16.8718 0.244601L18.6725 0.402018C19.5096 0.475319 20.2976 0.828014 20.91 1.40338C21.5224 1.97875 21.9234 2.74335 22.0486 3.57422C22.5895 7.17141 22.5895 10.8293 22.0486 14.4265C22.0001 14.7421 21.9159 15.0418 21.7958 15.3257C21.7171 15.5129 21.4738 15.5415 21.3355 15.3912L16.0632 9.59066C15.9466 9.46243 15.7953 9.37083 15.6276 9.327C15.4599 9.28318 15.2831 9.28901 15.1187 9.3438L12.1003 10.3503L7.72247 5.42506C7.64149 5.33395 7.54275 5.26035 7.43229 5.20879C7.32184 5.15723 7.20201 5.12879 7.08017 5.12521C6.95833 5.12164 6.83704 5.14301 6.72375 5.18801C6.61047 5.23301 6.50757 5.30069 6.42139 5.3869L0.561177 11.2471C0.521365 11.288 0.470478 11.3165 0.414755 11.3289C0.359032 11.3413 0.300894 11.3372 0.247469 11.3171C0.194044 11.2969 0.147653 11.2617 0.113983 11.2156C0.080314 11.1694 0.0608294 11.1145 0.0579183 11.0575C-0.0831109 8.55734 0.0335795 6.04929 0.406145 3.57302C0.531388 2.74216 0.932436 1.97756 1.54479 1.40219C2.15715 0.826821 2.94522 0.474126 3.78227 0.400825L5.58422 0.244601ZM13.6125 5.42268C13.6125 4.94825 13.801 4.49325 14.1364 4.15778C14.4719 3.82231 14.9269 3.63384 15.4013 3.63384C15.8758 3.63384 16.3308 3.82231 16.6662 4.15778C17.0017 4.49325 17.1902 4.94825 17.1902 5.42268C17.1902 5.8971 17.0017 6.3521 16.6662 6.68757C16.3308 7.02304 15.8758 7.21151 15.4013 7.21151C14.9269 7.21151 14.4719 7.02304 14.1364 6.68757C13.801 6.3521 13.6125 5.8971 13.6125 5.42268Z" fill="#F2F2F2"/>
<path d="M0.447901 13.8899C0.415693 13.9224 0.391409 13.9619 0.376933 14.0054C0.362456 14.0488 0.358175 14.095 0.364422 14.1403L0.406161 14.4265C0.531404 15.2574 0.932453 16.022 1.54481 16.5974C2.15716 17.1727 2.94524 17.5254 3.78229 17.5987L5.58304 17.755C9.3396 18.0817 13.1152 18.0817 16.8718 17.755L18.6725 17.5987C19.1666 17.557 19.6472 17.4162 20.0857 17.1849C20.2491 17.1002 20.2765 16.8844 20.1525 16.7484L15.263 11.37C15.2242 11.3268 15.1736 11.2959 15.1175 11.2811C15.0613 11.2663 15.0021 11.2682 14.947 11.2865L12.1063 12.2334C11.9402 12.2889 11.7615 12.2944 11.5924 12.2492C11.4232 12.2041 11.271 12.1103 11.1547 11.9794L7.22519 7.55861C7.19814 7.52823 7.16516 7.50371 7.12828 7.48655C7.09139 7.4694 7.05139 7.45997 7.01073 7.45885C6.97006 7.45774 6.9296 7.46495 6.89183 7.48006C6.85406 7.49516 6.81978 7.51784 6.7911 7.54668L0.447901 13.8899Z" fill="#F2F2F2"/>
</svg>
