<svg xmlns="http://www.w3.org/2000/svg" viewBox="0 0 325.82 325.82"><defs><style>.cls-1,.cls-2{fill:#0d1117;}.cls-2{fill-rule:evenodd;}</style></defs><g id="Camada_4" data-name="Camada 4"><path class="cls-1" d="M179.39,138.19a12.36,12.36,0,1,1,3.62,8.74A12.38,12.38,0,0,1,179.39,138.19Z"/><path class="cls-2" d="M123.91,102.4a451.63,451.63,0,0,1,78,0l12.44,1.09a25.88,25.88,0,0,1,23.33,21.92,252.07,252.07,0,0,1,0,75,25.88,25.88,0,0,1-23.33,21.92l-12.44,1.08a449.64,449.64,0,0,1-78,0l-12.44-1.08a25.88,25.88,0,0,1-23.34-21.92,252.07,252.07,0,0,1,0-75,25.88,25.88,0,0,1,23.33-21.92Zm76.94,12.32a436.91,436.91,0,0,0-75.87,0l-12.45,1.08a13.54,13.54,0,0,0-12.17,11.44,239.19,239.19,0,0,0-2.56,42.61l31.9-31.91a6.18,6.18,0,0,1,4.55-1.8,6.22,6.22,0,0,1,2.43.57,6.38,6.38,0,0,1,2,1.49l30.26,34,20.85-7a6.16,6.16,0,0,1,6.56,1.73l29,32.22.11-.66a239.6,239.6,0,0,0,0-71.34,13.54,13.54,0,0,0-12.18-11.44ZM217.47,209l-27.6-30.67L169,185.25a6.09,6.09,0,0,1-3.56.11,6.15,6.15,0,0,1-3-1.86L133.8,151.32l-35,35q.6,6.16,1.52,12.29A13.51,13.51,0,0,0,112.53,210L125,211.1a438.89,438.89,0,0,0,75.87,0L213.29,210A13.52,13.52,0,0,0,217.47,209Z"/></g></svg>