<svg width="20" height="18" viewBox="0 0 20 18" fill="none" xmlns="http://www.w3.org/2000/svg">
<path d="M18.75 5.85655V15.7597C18.75 16.0223 18.6446 16.2742 18.4571 16.4599C18.2696 16.6457 18.0152 16.75 17.75 16.75H1.75C1.48478 16.75 1.23043 16.6457 1.04289 16.4599C0.855357 16.2742 0.75 16.0223 0.75 15.7597V5.85655M18.75 5.85655L13.75 10.8081M18.75 5.85655L10.793 1.04065C10.479 0.850576 10.118 0.75 9.75 0.75C9.38195 0.75 9.02104 0.850576 8.707 1.04065L0.75 5.85655M0.75 5.85655L5.75 10.8081M1.75 15.7597L7.164 10.3981C7.53899 10.0267 8.04761 9.81792 8.578 9.8178H10.922C11.4524 9.81792 11.961 10.0267 12.336 10.3981L17.75 15.7597" stroke="#F2F2F2" stroke-width="1.5" stroke-linecap="round" stroke-linejoin="round"/>
</svg>
