<svg width="24" height="24" viewBox="0 0 24 24" fill="none" xmlns="http://www.w3.org/2000/svg">
<path d="M15.4826 6.20296L12.2519 2.05591L14.6015 1.59773L17.8204 5.74479L15.4826 6.20296ZM23.5535 4.60523L22.6371 0L18.0202 0.916346L21.2391 5.07515L23.5535 4.60523ZM12.0287 6.95483L8.80974 2.72554L6.46014 3.20721L9.72608 7.35427L12.0287 6.95483ZM3.04148 3.90035L1.86668 4.12356C1.26057 4.25085 0.72923 4.61231 0.388226 5.12932C0.0472234 5.64633 -0.07586 6.27706 0.0457466 6.88435L0.503918 9.23395L6.26043 8.05915L3.04148 3.90035Z" fill="#7F8184"/>
<path d="M23 10.187V20.9351C23 21.293 22.8576 21.6361 22.6045 21.8892C22.3514 22.1422 22.0083 22.2846 21.6504 22.2847H2.85742C2.50017 22.2831 2.15812 22.1396 1.90625 21.8862L1.90234 21.8823L1.8125 21.7837C1.6434 21.5787 1.53807 21.3283 1.51074 21.064L1.50391 20.9312V10.187H23Z" stroke="#7F8184" stroke-width="2" stroke-miterlimit="10"/>
</svg>
