<svg width="24" height="24" viewBox="0 0 24 24" fill="none" xmlns="http://www.w3.org/2000/svg">
<path d="M15.4826 6.20296L12.2519 2.05591L14.6015 1.59773L17.8204 5.74479L15.4826 6.20296ZM23.5535 4.60523L22.6371 0L18.0202 0.916346L21.2391 5.07515L23.5535 4.60523ZM12.0287 6.95483L8.80974 2.72554L6.46014 3.20721L9.72608 7.35427L12.0287 6.95483ZM3.04148 3.90035L1.86668 4.12356C1.26057 4.25085 0.72923 4.61231 0.388226 5.12932C0.0472234 5.64633 -0.07586 6.27706 0.0457466 6.88435L0.503918 9.23395L6.26043 8.05915L3.04148 3.90035Z" fill="#F2F2F2"/>
<path d="M0.50415 9.18696V20.935C0.506773 21.5571 0.756041 22.1528 1.19728 22.5915C1.63589 23.0327 2.2316 23.282 2.85375 23.2846H21.6505C22.2737 23.2846 22.8713 23.037 23.3119 22.5964C23.7526 22.1558 24.0001 21.5581 24.0001 20.935V9.18696H0.50415Z" fill="#F2F2F2"/>
</svg>
