<svg width="23" height="23" viewBox="0 0 23 23" fill="none" xmlns="http://www.w3.org/2000/svg">
<path d="M16.1675 22.0005V19.6671C16.1675 17.4668 16.1675 16.3678 15.4838 15.6841C14.8001 15.0005 13.7011 15.0005 11.5008 15.0005H10.3341C8.13381 15.0005 7.03481 15.0005 6.35115 15.6841C5.66748 16.3678 5.66748 17.4668 5.66748 19.6671V22.0005" stroke="#7F8184" stroke-width="2"/>
<path d="M5.66748 6.83376H11.5008" stroke="#7F8184" stroke-width="2" stroke-linecap="round"/>
<path d="M1 8.00047C1 4.70114 1 3.05031 2.0255 2.02597C3.04983 1.00047 4.70067 1.00047 8 1.00047H16.3673C16.8433 1.00047 17.0825 1.00047 17.296 1.08914C17.5095 1.17781 17.6798 1.34581 18.017 1.68414L21.3163 4.98347C21.6547 5.32181 21.8227 5.48981 21.9113 5.70447C22 5.91797 22 6.15714 22 6.63314V15.0005C22 18.2998 22 19.9506 20.9745 20.975C19.9502 22.0005 18.2993 22.0005 15 22.0005H8C4.70067 22.0005 3.04983 22.0005 2.0255 20.975C1 19.9506 1 18.2998 1 15.0005V8.00047Z" stroke="#7F8184" stroke-width="2"/>
</svg>
