<svg width="21" height="21" viewBox="0 0 21 21" fill="none" xmlns="http://www.w3.org/2000/svg">
<path fill-rule="evenodd" clip-rule="evenodd" d="M0 7C0 3.70067 -6.95387e-08 2.04983 1.0255 1.0255C2.04983 -6.95387e-08 3.70067 0 7 0H14.4002C15.3545 0 15.8305 -5.21541e-08 16.2598 0.177333C16.688 0.354667 17.0252 0.693 17.7007 1.36733L19.6327 3.29933C20.3082 3.97367 20.6442 4.312 20.8227 4.74017C21 5.1695 21 5.6455 21 6.59983V14C21 17.2993 21 18.9502 19.9745 19.9745C19.2267 20.7235 18.1452 20.9253 16.3333 20.9802V17.4277C16.3333 16.6647 16.3333 15.9798 16.2587 15.4245C16.177 14.8178 15.988 14.1972 15.4793 13.6873C14.9695 13.1787 14.3477 12.9897 13.7422 12.908C13.1868 12.8333 12.502 12.8333 11.739 12.8333H8.09433C7.33133 12.8333 6.6465 12.8333 6.09117 12.908C5.4845 12.9897 4.86383 13.1787 4.354 13.6873C3.84533 14.1972 3.65633 14.819 3.57467 15.4245C3.5 15.9798 3.5 16.6647 3.5 17.4277V20.9113C2.3625 20.7993 1.59717 20.5462 1.0255 19.9745C-6.95387e-08 18.9502 0 17.2993 0 14V7ZM14 17.5V21H7C6.58622 21 6.19733 20.9992 5.83333 20.9977V17.5C5.83333 16.6425 5.83567 16.1163 5.887 15.7348C5.9325 15.4012 5.9955 15.3452 6.00367 15.3382C6.01183 15.33 6.06667 15.2658 6.4015 15.2203C6.783 15.169 7.30917 15.1667 8.16667 15.1667H11.6667C12.5242 15.1667 13.0503 15.169 13.4318 15.2203C13.7667 15.2658 13.8215 15.3288 13.8285 15.337H13.8297C13.8378 15.3452 13.9008 15.4012 13.9463 15.7348C13.9977 16.1163 14 16.6425 14 17.5ZM4.66667 4.66667C4.35725 4.66667 4.0605 4.78958 3.84171 5.00838C3.62292 5.22717 3.5 5.52391 3.5 5.83333C3.5 6.14275 3.62292 6.4395 3.84171 6.65829C4.0605 6.87708 4.35725 7 4.66667 7H10.5C10.8094 7 11.1062 6.87708 11.325 6.65829C11.5437 6.4395 11.6667 6.14275 11.6667 5.83333C11.6667 5.52391 11.5437 5.22717 11.325 5.00838C11.1062 4.78958 10.8094 4.66667 10.5 4.66667H4.66667Z" fill="#F2F2F2"/>
</svg>
