<svg width="25" height="24" viewBox="0 0 25 24" fill="none" xmlns="http://www.w3.org/2000/svg">
<path d="M11.4583 11.4783V1.04348C11.4583 0.766731 11.5681 0.501318 11.7634 0.305628C11.9588 0.109938 12.2237 0 12.5 0C12.7763 0 13.0412 0.109938 13.2366 0.305628C13.4319 0.501318 13.5417 0.766731 13.5417 1.04348V11.4783C13.5417 11.755 13.4319 12.0204 13.2366 12.2161C13.0412 12.4118 12.7763 12.5217 12.5 12.5217C12.2237 12.5217 11.9588 12.4118 11.7634 12.2161C11.5681 12.0204 11.4583 11.755 11.4583 11.4783ZM19.319 1.21304C19.0877 1.06657 18.8081 1.01718 18.5406 1.07557C18.2732 1.13396 18.0395 1.29542 17.89 1.52505C17.7405 1.75469 17.6872 2.03404 17.7416 2.30272C17.7961 2.5714 17.9539 2.80782 18.181 2.96087C21.1901 4.92652 22.9167 8.03087 22.9167 11.4783C22.9167 14.2457 21.8192 16.8999 19.8657 18.8568C17.9122 20.8137 15.2627 21.913 12.5 21.913C9.73733 21.913 7.08781 20.8137 5.1343 18.8568C3.1808 16.8999 2.08333 14.2457 2.08333 11.4783C2.08333 8.03087 3.8099 4.92652 6.81901 2.96087C7.04608 2.80782 7.20391 2.5714 7.25836 2.30272C7.31281 2.03404 7.25952 1.75469 7.11 1.52505C6.96049 1.29542 6.72676 1.13396 6.45935 1.07557C6.19194 1.01718 5.91234 1.06657 5.68099 1.21304C2.07031 3.5713 0 7.31217 0 11.4783C4.94004e-08 14.7992 1.31696 17.9842 3.66116 20.3325C6.00537 22.6807 9.18479 24 12.5 24C15.8152 24 18.9946 22.6807 21.3388 20.3325C23.683 17.9842 25 14.7992 25 11.4783C25 7.31217 22.9297 3.5713 19.319 1.21304Z" fill="#F2F2F2"/>
</svg>
