<svg width="8" height="10" viewBox="0 0 8 10" fill="none" xmlns="http://www.w3.org/2000/svg">
<path d="M7.17285 0C7.39372 0.00436232 7.60416 0.0942186 7.75879 0.25C7.91331 0.40573 8 0.614998 8 0.833008V9.16504C8.00208 9.31319 7.96376 9.45905 7.88965 9.58789C7.81548 9.71678 7.70816 9.82433 7.57812 9.89844C7.44434 9.97052 7.29292 10.0049 7.14062 9.99902C6.98844 9.99312 6.8405 9.94732 6.71289 9.86523L4.06738 8.17383C4.05027 8.1617 4.02985 8.15438 4.00879 8.1543C3.98759 8.1543 3.96643 8.16162 3.94922 8.17383L1.30371 9.86523C1.1763 9.94695 1.02877 9.99314 0.876953 9.99902C0.725049 10.0049 0.573987 9.97013 0.44043 9.89844C0.307033 9.82678 0.195706 9.72072 0.118164 9.5918C0.0405848 9.46274 -0.000228454 9.31512 0 9.16504V0.833008C4.63416e-05 0.612145 0.0889188 0.400342 0.24707 0.244141C0.405298 0.0879181 0.619986 3.27332e-05 0.84375 0H7.17285ZM4.28516 1.87793C4.19524 1.60182 3.80476 1.60182 3.71484 1.87793L3.28125 3.21094C3.24109 3.33454 3.12606 3.41797 2.99609 3.41797H1.59473C1.30423 3.41797 1.18325 3.79002 1.41797 3.96094L2.55176 4.78516C2.65683 4.8615 2.70115 4.99658 2.66113 5.12012L2.22852 6.45312C2.13875 6.72941 2.45437 6.9595 2.68945 6.78906L3.82324 5.96484C3.92839 5.88845 4.07161 5.88845 4.17676 5.96484L5.31055 6.78906C5.54563 6.95951 5.86126 6.72941 5.77148 6.45312L5.33887 5.12012C5.29885 4.99658 5.34317 4.8615 5.44824 4.78516L6.58203 3.96094C6.81675 3.79002 6.69577 3.41797 6.40527 3.41797H5.00391C4.87394 3.41797 4.75891 3.33454 4.71875 3.21094L4.28516 1.87793Z" fill="#F2F2F2"/>
</svg>
