<svg width="22" height="18" viewBox="0 0 22 18" fill="none" xmlns="http://www.w3.org/2000/svg">
<path d="M10.75 6.75V10.75M9.018 7.75L12.482 9.75M12.482 7.75L9.017 9.75M5.482 6.75V10.75M3.75 7.75L7.214 9.75M7.214 7.75L3.75 9.75M16.018 6.75V10.75M14.286 7.75L17.75 9.75M17.75 7.75L14.285 9.75M20.75 8.75C20.75 12.521 20.75 14.407 19.578 15.578C18.406 16.749 16.521 16.75 12.75 16.75H8.75C4.979 16.75 3.093 16.75 1.922 15.578C0.751 14.406 0.75 12.521 0.75 8.75C0.75 4.979 0.75 3.093 1.922 1.922C3.094 0.751 4.979 0.75 8.75 0.75H12.75C16.521 0.75 18.407 0.75 19.578 1.922C20.232 2.575 20.521 3.45 20.648 4.75" stroke="#F2F2F2" stroke-width="1.5" stroke-linecap="round"/>
</svg>
