<svg width="7" height="7" viewBox="0 0 7 7" fill="none" xmlns="http://www.w3.org/2000/svg">
<path d="M5.64645 2.14645C5.84171 1.95118 6.15822 1.95118 6.35348 2.14645C6.54874 2.34171 6.54874 2.65822 6.35348 2.85348L6.24313 2.96383C6.24052 2.96644 6.23792 2.97002 6.23531 2.97262C6.23287 2.97506 6.22994 2.97701 6.2275 2.97945L6.14938 3.05758C6.14694 3.06002 6.14497 3.06296 6.14254 3.06539C6.1401 3.06784 6.13717 3.06979 6.13473 3.07223L6.11129 3.09567C6.10885 3.09811 6.10689 3.10104 6.10445 3.10348C6.10202 3.10591 6.09907 3.10788 6.09664 3.11031L5.76656 3.44039C5.7642 3.44276 5.76209 3.44584 5.75973 3.4482C5.75737 3.45056 5.75427 3.45269 5.75192 3.45504L5.47555 3.73141C5.47343 3.73352 5.4718 3.73613 5.46969 3.73824C5.46758 3.74035 5.46496 3.742 5.46285 3.7441L5.42184 3.78512C5.41972 3.78723 5.41809 3.78984 5.41598 3.79195C5.41386 3.79407 5.41126 3.7957 5.40914 3.79781L5.2568 3.95016C5.25468 3.95227 5.25305 3.95488 5.25094 3.95699C5.24883 3.9591 5.24621 3.96075 5.2441 3.96285L5.1982 4.00875C5.1961 4.01086 5.19445 4.01348 5.19235 4.01559C5.19023 4.0177 5.18762 4.01933 5.18551 4.02145L5.10152 4.10543C5.09941 4.10754 5.09778 4.11015 5.09567 4.11227C5.09355 4.11438 5.09094 4.11601 5.08883 4.11813L5.03121 4.17574C5.0291 4.17785 5.02746 4.18047 5.02535 4.18258C5.02324 4.1847 5.02063 4.18632 5.01852 4.18844C5.0164 4.19056 5.01477 4.19316 5.01266 4.19527C5.01055 4.19739 5.00793 4.19902 5.00582 4.20113L4.96774 4.23922C4.96563 4.24132 4.96398 4.24395 4.96188 4.24606C4.95977 4.24816 4.95715 4.24981 4.95504 4.25192C4.95293 4.25403 4.95129 4.25664 4.94918 4.25875C4.94707 4.26086 4.94445 4.2625 4.94235 4.26461C4.94024 4.26672 4.93859 4.26934 4.93649 4.27145C4.93439 4.27354 4.93175 4.27521 4.92965 4.27731L4.81637 4.39059C4.81428 4.39268 4.8126 4.39533 4.81051 4.39742C4.80842 4.39951 4.80576 4.40119 4.80367 4.40328L4.74117 4.46578C4.73909 4.46786 4.73739 4.47054 4.73531 4.47262C4.73323 4.47471 4.73056 4.47639 4.72848 4.47848L4.47848 4.72848C4.47639 4.73056 4.47471 4.73323 4.47262 4.73531C4.47054 4.73739 4.46786 4.73909 4.46578 4.74117L4.40328 4.80367C4.40119 4.80576 4.39951 4.80842 4.39742 4.81051C4.39533 4.8126 4.39268 4.81428 4.39059 4.81637L4.27731 4.92965C4.27521 4.93175 4.27354 4.93439 4.27145 4.93649C4.26934 4.93859 4.26672 4.94024 4.26461 4.94235C4.2625 4.94445 4.26086 4.94707 4.25875 4.94918C4.25664 4.95129 4.25403 4.95293 4.25192 4.95504C4.24981 4.95715 4.24816 4.95977 4.24606 4.96188C4.24395 4.96398 4.24132 4.96563 4.23922 4.96774L4.20113 5.00582C4.19902 5.00793 4.19739 5.01055 4.19527 5.01266C4.19316 5.01477 4.19056 5.0164 4.18844 5.01852C4.18632 5.02063 4.1847 5.02324 4.18258 5.02535C4.18047 5.02746 4.17785 5.0291 4.17574 5.03121L4.11813 5.08883C4.11601 5.09094 4.11438 5.09355 4.11227 5.09567C4.11015 5.09778 4.10754 5.09941 4.10543 5.10152L4.02145 5.18551C4.01933 5.18762 4.0177 5.19023 4.01559 5.19235C4.01348 5.19445 4.01086 5.1961 4.00875 5.1982L3.96285 5.2441C3.96075 5.24621 3.9591 5.24883 3.95699 5.25094C3.95488 5.25305 3.95227 5.25468 3.95016 5.2568L3.79781 5.40914C3.7957 5.41126 3.79407 5.41386 3.79195 5.41598C3.78984 5.41809 3.78723 5.41972 3.78512 5.42184L3.7441 5.46285C3.742 5.46496 3.74035 5.46758 3.73824 5.46969C3.73613 5.4718 3.73352 5.47343 3.73141 5.47555L3.45504 5.75192C3.45269 5.75427 3.45056 5.75737 3.4482 5.75973C3.44584 5.76209 3.44276 5.7642 3.44039 5.76656L3.11031 6.09664C3.10788 6.09907 3.10591 6.10202 3.10348 6.10445C3.10104 6.10689 3.09811 6.10885 3.09567 6.11129L3.07223 6.13473C3.06979 6.13717 3.06784 6.1401 3.06539 6.14254C3.06296 6.14497 3.06002 6.14694 3.05758 6.14938L2.97945 6.2275C2.97701 6.22994 2.97506 6.23287 2.97262 6.23531C2.97002 6.23792 2.96644 6.24052 2.96383 6.24313L2.85348 6.35348C2.65822 6.54874 2.34171 6.54874 2.14645 6.35348C1.95118 6.15822 1.95118 5.84171 2.14645 5.64645L2.2568 5.5361C2.25941 5.53349 2.26201 5.52991 2.26461 5.52731C2.26705 5.52486 2.26998 5.52291 2.27242 5.52047L2.35055 5.44235C2.35298 5.43991 2.35495 5.43696 2.35738 5.43453C2.35983 5.43209 2.36276 5.43014 2.3652 5.4277L2.38863 5.40426C2.39108 5.40182 2.39303 5.39889 2.39547 5.39645C2.3979 5.39401 2.40085 5.39204 2.40328 5.38961L2.73336 5.05953C2.73573 5.05717 2.73783 5.05408 2.7402 5.05172C2.74255 5.04936 2.74566 5.04724 2.74801 5.04488L3.02438 4.76852C3.02649 4.7664 3.02812 4.7638 3.03024 4.76168C3.03234 4.75957 3.03496 4.75793 3.03707 4.75582L3.07809 4.71481C3.0802 4.71269 3.08183 4.71008 3.08395 4.70797C3.08606 4.70585 3.08867 4.70423 3.09078 4.70211L3.24313 4.54977C3.24524 4.54765 3.24687 4.54505 3.24899 4.54293C3.25109 4.54082 3.25372 4.53918 3.25582 4.53707L3.30172 4.49117C3.30383 4.48906 3.30547 4.48644 3.30758 4.48434C3.3097 4.48222 3.3123 4.48059 3.31442 4.47848L3.3984 4.39449C3.40051 4.39238 3.40215 4.38977 3.40426 4.38766C3.40638 4.38554 3.40898 4.38391 3.4111 4.3818L3.46871 4.32418C3.47082 4.32207 3.47246 4.31945 3.47457 4.31735C3.47669 4.31523 3.47929 4.3136 3.48141 4.31149C3.48352 4.30937 3.48515 4.30677 3.48727 4.30465C3.48938 4.30254 3.49199 4.3009 3.4941 4.29879L3.53219 4.2607C3.53429 4.2586 3.53595 4.25597 3.53805 4.25387C3.54015 4.25176 3.54278 4.25011 3.54488 4.24801C3.54699 4.2459 3.54863 4.24328 3.55074 4.24117C3.55285 4.23906 3.55547 4.23742 3.55758 4.23531C3.55968 4.23321 3.56134 4.23058 3.56344 4.22848C3.56553 4.22638 3.56818 4.22471 3.57027 4.22262L3.68356 4.10934C3.68565 4.10724 3.68732 4.10459 3.68942 4.1025C3.6915 4.10041 3.69416 4.09873 3.69625 4.09664L3.75875 4.03414C3.76083 4.03206 3.76253 4.02938 3.76461 4.02731C3.7667 4.02522 3.76936 4.02353 3.77145 4.02145L4.02145 3.77145C4.02353 3.76936 4.02522 3.7667 4.02731 3.76461C4.02938 3.76253 4.03206 3.76083 4.03414 3.75875L4.09664 3.69625C4.09873 3.69416 4.10041 3.6915 4.1025 3.68942C4.10459 3.68732 4.10724 3.68565 4.10934 3.68356L4.22262 3.57027C4.22471 3.56818 4.22638 3.56553 4.22848 3.56344C4.23058 3.56134 4.23321 3.55968 4.23531 3.55758C4.23742 3.55547 4.23906 3.55285 4.24117 3.55074C4.24328 3.54863 4.2459 3.54699 4.24801 3.54488C4.25011 3.54278 4.25176 3.54015 4.25387 3.53805C4.25597 3.53595 4.2586 3.53429 4.2607 3.53219L4.29879 3.4941C4.3009 3.49199 4.30254 3.48938 4.30465 3.48727C4.30677 3.48515 4.30937 3.48352 4.31149 3.48141C4.3136 3.47929 4.31523 3.47669 4.31735 3.47457C4.31945 3.47246 4.32207 3.47082 4.32418 3.46871L4.3818 3.4111C4.38391 3.40898 4.38554 3.40638 4.38766 3.40426C4.38977 3.40215 4.39238 3.40051 4.39449 3.3984L4.47848 3.31442C4.48059 3.3123 4.48222 3.3097 4.48434 3.30758C4.48644 3.30547 4.48906 3.30383 4.49117 3.30172L4.53707 3.25582C4.53918 3.25372 4.54082 3.25109 4.54293 3.24899C4.54505 3.24687 4.54765 3.24524 4.54977 3.24313L4.70211 3.09078C4.70423 3.08867 4.70585 3.08606 4.70797 3.08395C4.71008 3.08183 4.71269 3.0802 4.71481 3.07809L4.75582 3.03707C4.75793 3.03496 4.75957 3.03234 4.76168 3.03024C4.7638 3.02812 4.7664 3.02649 4.76852 3.02438L5.04488 2.74801C5.04724 2.74566 5.04936 2.74255 5.05172 2.7402C5.05408 2.73783 5.05717 2.73573 5.05953 2.73336L5.38961 2.40328C5.39204 2.40085 5.39401 2.3979 5.39645 2.39547C5.39889 2.39303 5.40182 2.39108 5.40426 2.38863L5.4277 2.3652C5.43014 2.36276 5.43209 2.35983 5.43453 2.35738C5.43696 2.35495 5.43991 2.35298 5.44235 2.35055L5.52047 2.27242C5.52291 2.26998 5.52486 2.26705 5.52731 2.26461C5.52991 2.26201 5.53349 2.25941 5.5361 2.2568L5.64645 2.14645Z" fill="#3D444D" fill-opacity="0.5"/>
<path d="M5.14645 0.146447C5.34171 -0.0488155 5.65822 -0.0488155 5.85348 0.146447C6.04874 0.341709 6.04874 0.658216 5.85348 0.853478L5.32516 1.3818C5.32175 1.38521 5.3188 1.38913 5.31539 1.39254C5.31197 1.39596 5.30807 1.39889 5.30465 1.40231L4.95406 1.75289C4.92203 1.78493 4.9666 1.74133 4.93453 1.7734C4.91078 1.79716 4.93769 1.76927 4.91402 1.79293L4.85445 1.8525C4.85114 1.85581 4.848 1.85994 4.84469 1.86324C4.84139 1.86655 4.83725 1.86971 4.83395 1.87301L4.09274 2.61422C4.08968 2.61727 4.087 2.62094 4.08395 2.62399C4.08089 2.62705 4.07724 2.62972 4.07418 2.63277L3.93746 2.76949C3.93443 2.77252 3.9317 2.77623 3.92867 2.77926C3.91259 2.79535 3.92615 2.7808 3.91012 2.79684L3.80172 2.90524C3.79871 2.90824 3.79594 2.91199 3.79293 2.915C3.78993 2.91801 3.78617 2.92079 3.78317 2.92379L3.72067 2.98629C3.71767 2.98929 3.71487 2.99306 3.71188 2.99606C3.70889 2.99904 3.7051 3.00186 3.70211 3.00484L3.67574 3.03121C3.67275 3.0342 3.66995 3.03799 3.66695 3.04098C3.66397 3.04396 3.66017 3.04679 3.65719 3.04977L3.51461 3.19234C3.51164 3.19532 3.50879 3.19914 3.50582 3.20211C3.50284 3.20509 3.49904 3.20792 3.49606 3.2109L3.2109 3.49606C3.20792 3.49904 3.20509 3.50284 3.20211 3.50582C3.19914 3.50879 3.19532 3.51164 3.19234 3.51461L3.04977 3.65719C3.04679 3.66017 3.04396 3.66397 3.04098 3.66695C3.03799 3.66995 3.0342 3.67275 3.03121 3.67574L3.00484 3.70211C3.00186 3.7051 2.99904 3.70889 2.99606 3.71188C2.99306 3.71487 2.98929 3.71767 2.98629 3.72067L2.92379 3.78317C2.92079 3.78617 2.91801 3.78993 2.915 3.79293C2.91199 3.79594 2.90824 3.79871 2.90524 3.80172L2.85152 3.85543C2.84852 3.85844 2.84574 3.86219 2.84274 3.8652C2.83972 3.86821 2.83599 3.87097 2.83297 3.87399L2.78805 3.91891C2.78503 3.92192 2.78228 3.92565 2.77926 3.92867C2.74702 3.96091 2.77442 3.93254 2.74215 3.96481L2.41988 4.28707C2.41679 4.29016 2.41419 4.29374 2.41109 4.29684C2.38619 4.32175 2.41648 4.29047 2.39156 4.31539L1.87301 4.83395C1.86971 4.83725 1.86655 4.84139 1.86324 4.84469C1.85994 4.848 1.85581 4.85114 1.8525 4.85445L1.79293 4.91402C1.76927 4.93769 1.79716 4.91078 1.7734 4.93453C1.74847 4.95946 1.7778 4.92916 1.75289 4.95406L1.40231 5.30465C1.39889 5.30807 1.39596 5.31197 1.39254 5.31539C1.38913 5.3188 1.38521 5.32175 1.3818 5.32516L0.853478 5.85348C0.658216 6.04874 0.341709 6.04874 0.146447 5.85348C-0.0488155 5.65822 -0.0488155 5.34171 0.146447 5.14645L1.04586 4.24703C1.0672 4.22569 1.04403 4.24789 1.06539 4.22652C1.09212 4.1998 1.05927 4.23362 1.0859 4.20699L1.2441 4.04879C1.26159 4.0313 1.24616 4.04576 1.26363 4.02828L1.3027 3.98922C1.31338 3.97853 1.3119 3.98099 1.32223 3.97067L1.6943 3.59859C1.69739 3.5955 1.7 3.59192 1.70309 3.58883C1.70618 3.58574 1.70976 3.58313 1.71285 3.58004L1.90719 3.3857C1.91024 3.38265 1.91293 3.37899 1.91598 3.37594C1.91904 3.37288 1.92269 3.37021 1.92574 3.36715L2.05367 3.23922C2.0777 3.21519 2.04702 3.2449 2.07125 3.22067C2.09541 3.19651 2.06571 3.22718 2.08981 3.20309L2.27926 3.01363C2.28226 3.01064 2.28505 3.00686 2.28805 3.00387C2.29104 3.00088 2.29483 2.99807 2.29781 2.99508L2.32418 2.96871C2.32717 2.96572 2.32998 2.96194 2.33297 2.95895C2.33595 2.95597 2.33976 2.95314 2.34274 2.95016L2.48531 2.80758C2.48829 2.80461 2.49113 2.80079 2.4941 2.79781C2.49708 2.79483 2.50089 2.792 2.50387 2.78902L2.78902 2.50387C2.792 2.50089 2.79483 2.49708 2.79781 2.4941C2.80079 2.49113 2.80461 2.48829 2.80758 2.48531L2.95016 2.34274C2.95314 2.33976 2.95597 2.33595 2.95895 2.33297C2.96194 2.32998 2.96572 2.32717 2.96871 2.32418L2.99508 2.29781C2.99807 2.29483 3.00088 2.29104 3.00387 2.28805C3.00686 2.28505 3.01064 2.28226 3.01363 2.27926L3.07613 2.21676C3.07914 2.21376 3.08192 2.21 3.08492 2.20699C3.08793 2.20399 3.09168 2.20121 3.09469 2.1982L3.20309 2.08981C3.21109 2.0818 3.21263 2.07928 3.22067 2.07125C3.22369 2.06822 3.2274 2.06549 3.23043 2.06246L3.29391 1.99899C3.29695 1.99594 3.29965 1.99226 3.3027 1.98922C3.30573 1.98619 3.30943 1.98347 3.31246 1.98043L3.36715 1.92574C3.37021 1.92269 3.37288 1.91904 3.37594 1.91598C3.37899 1.91293 3.38265 1.91024 3.3857 1.90719L3.57027 1.72262C3.57857 1.71432 3.58052 1.71139 3.58883 1.70309C3.59192 1.7 3.5955 1.69739 3.59859 1.6943L3.97067 1.32223C3.97376 1.31914 3.97636 1.31556 3.97945 1.31246L4.03805 1.25387C4.04132 1.2506 4.04552 1.24737 4.04879 1.2441L4.20699 1.0859C4.23956 1.05334 4.19386 1.09806 4.22652 1.06539C4.24432 1.0476 4.22926 1.06364 4.24703 1.04586L5.14645 0.146447Z" fill="#3D444D" fill-opacity="0.5"/>
<path d="M6.14645 4.14645C6.34171 3.95118 6.65822 3.95118 6.85348 4.14645C7.04874 4.34171 7.04874 4.65822 6.85348 4.85348L6.55856 5.1484C6.54799 5.15897 6.55372 5.15421 6.54293 5.165C6.53324 5.17469 6.54382 5.16313 6.53414 5.17281L6.38277 5.32418C6.34645 5.3605 6.38904 5.31889 6.3525 5.35543C6.34221 5.36572 6.33145 5.3755 6.32125 5.3857L6.20797 5.49899C6.20683 5.50013 6.20618 5.50175 6.20504 5.50289C6.2039 5.50403 6.20227 5.50468 6.20113 5.50582L6.14156 5.56539C6.14042 5.56653 6.13977 5.56816 6.13863 5.5693C6.1375 5.57043 6.13586 5.5711 6.13473 5.57223L6.12692 5.58004C6.12578 5.58118 6.12512 5.58281 6.12399 5.58395C6.12285 5.58508 6.12121 5.58575 6.12008 5.58688L6.11227 5.59469C6.11113 5.59582 6.11047 5.59746 6.10934 5.5986C6.1082 5.59973 6.10657 5.60039 6.10543 5.60152L6.04 5.66695C6.03356 5.67339 6.0396 5.66834 6.03317 5.67477C6.03203 5.67591 6.0304 5.67656 6.02926 5.6777L5.9609 5.74606L5.95406 5.75387C5.94142 5.76651 5.95186 5.7551 5.93942 5.76754L5.92477 5.78219C5.92363 5.78332 5.92297 5.78496 5.92184 5.7861C5.9207 5.78723 5.91907 5.78789 5.91793 5.78902L5.91402 5.79293C5.9129 5.79406 5.91222 5.79571 5.9111 5.79684C5.90996 5.79798 5.90833 5.79863 5.90719 5.79977L5.79977 5.90719C5.79863 5.90833 5.79798 5.90996 5.79684 5.9111C5.79053 5.9174 5.78841 5.91854 5.78219 5.92477L5.6777 6.02926C5.67656 6.0304 5.67591 6.03203 5.67477 6.03317C5.67363 6.0343 5.672 6.03496 5.67086 6.0361L5.60152 6.10543C5.60039 6.10657 5.59973 6.1082 5.5986 6.10934C5.59746 6.11047 5.59582 6.11113 5.59469 6.11227L5.58688 6.12008C5.58575 6.12121 5.58508 6.12285 5.58395 6.12399C5.58281 6.12512 5.58118 6.12578 5.58004 6.12692L5.57223 6.13473C5.5711 6.13586 5.57043 6.1375 5.5693 6.13863C5.56816 6.13977 5.56653 6.14042 5.56539 6.14156L5.55758 6.14938C5.55644 6.15052 5.55579 6.15214 5.55465 6.15328C5.55351 6.15442 5.55188 6.15508 5.55074 6.15621L5.5361 6.17086C5.52736 6.1796 5.53019 6.17774 5.52145 6.18649C5.51491 6.19302 5.52006 6.18689 5.51363 6.19332L5.50582 6.20113C5.50468 6.20227 5.50403 6.2039 5.50289 6.20504C5.50175 6.20618 5.50013 6.20683 5.49899 6.20797L5.46871 6.23824C5.45897 6.24799 5.47177 6.23616 5.46188 6.24606C5.46075 6.24718 5.4591 6.24786 5.45797 6.24899L5.3857 6.32125C5.3755 6.33145 5.36572 6.34221 5.35543 6.3525C5.31889 6.38904 5.3605 6.34645 5.32418 6.38277L5.16891 6.53805C5.16755 6.53941 5.16636 6.54157 5.165 6.54293C5.15421 6.55372 5.15897 6.54799 5.1484 6.55856L4.85348 6.85348C4.65822 7.04874 4.34171 7.04874 4.14645 6.85348C3.95118 6.65822 3.95118 6.34171 4.14645 6.14645L4.18746 6.10543C4.18892 6.10398 4.18992 6.102 4.19137 6.10055C4.20731 6.08461 4.18515 6.10774 4.20113 6.09176C4.23206 6.06083 4.18729 6.1056 4.21871 6.07418C4.22018 6.07272 4.22115 6.07076 4.22262 6.0693C4.22407 6.06784 4.22605 6.06685 4.2275 6.06539L4.42477 5.86813C4.45019 5.84271 4.43152 5.86039 4.45699 5.83492C4.46305 5.82887 4.45973 5.83316 4.46578 5.82711L4.74703 5.54586C4.75336 5.53953 4.74727 5.54464 4.75387 5.53805C4.75713 5.53478 4.75847 5.53442 4.76168 5.53121L4.79195 5.50094C4.79309 5.4998 4.79375 5.49817 4.79488 5.49703C4.79602 5.49589 4.79765 5.49524 4.79879 5.4941L5.03219 5.2607C5.03332 5.25957 5.03399 5.25793 5.03512 5.2568C5.03626 5.25566 5.03789 5.25501 5.03902 5.25387C5.04221 5.25068 5.04267 5.24924 5.04586 5.24606C5.0585 5.23342 5.04806 5.24483 5.06051 5.23238C5.08593 5.20697 5.06342 5.22849 5.08883 5.20309C5.08997 5.20195 5.0916 5.2013 5.09274 5.20016L5.20016 5.09274C5.2013 5.0916 5.20195 5.08997 5.20309 5.08883C5.22213 5.06979 5.19895 5.09394 5.21774 5.07516L5.23238 5.06051C5.24483 5.04806 5.23342 5.0585 5.24606 5.04586C5.262 5.02992 5.23792 5.05497 5.25387 5.03902C5.25501 5.03789 5.25566 5.03626 5.2568 5.03512C5.25793 5.03399 5.25957 5.03332 5.2607 5.03219L5.46383 4.82906C5.48349 4.8094 5.45881 4.8331 5.47848 4.81344C5.48994 4.80197 5.47497 4.81793 5.48629 4.8066L5.83102 4.46188C5.83238 4.46051 5.83356 4.45836 5.83492 4.45699C5.84216 4.44976 5.83644 4.45645 5.84371 4.44918L6.09176 4.20113C6.10774 4.18515 6.08461 4.20731 6.10055 4.19137C6.102 4.18992 6.10398 4.18892 6.10543 4.18746L6.14645 4.14645Z" fill="#3D444D" fill-opacity="0.5"/>
</svg>
