<svg width="14" height="12" viewBox="0 0 14 12" fill="none" xmlns="http://www.w3.org/2000/svg">
<path d="M3.144 7.962H3.9495C4.03 7.962 4.105 7.948 4.1745 7.92C4.2445 7.892 4.312 7.84525 4.377 7.77975L8.1435 4.0095C8.208 3.9355 8.25625 3.858 8.28825 3.777C8.32025 3.696 8.3365 3.6155 8.337 3.5355C8.3375 3.4555 8.32125 3.37625 8.28825 3.29775C8.25625 3.21975 8.2095 3.1435 8.148 3.069L7.45425 2.3565C7.38925 2.292 7.31475 2.24375 7.23075 2.21175C7.14575 2.17975 7.062 2.16375 6.9795 2.16375C6.8995 2.16375 6.8195 2.1775 6.7395 2.205C6.66 2.232 6.58325 2.2825 6.50925 2.3565L2.72025 6.123C2.65525 6.188 2.60875 6.2555 2.58075 6.3255C2.55275 6.395 2.53875 6.47 2.53875 6.5505V7.356C2.53875 7.53 2.59625 7.6745 2.71125 7.7895C2.82625 7.9045 2.9705 7.962 3.144 7.962ZM6.975 4.26675L6.2625 3.558L6.9795 2.84175L7.67325 3.55425L6.975 4.26675ZM6.612 7.962H10.587C10.6935 7.962 10.7825 7.926 10.854 7.854C10.926 7.7825 10.962 7.6935 10.962 7.587C10.962 7.48 10.926 7.39075 10.854 7.31925C10.7825 7.24775 10.6932 7.212 10.5862 7.212H7.36125L6.612 7.962ZM2.30775 10.5L1.02975 11.778C0.84025 11.9675 0.62125 12.011 0.37275 11.9085C0.12425 11.806 0 11.6197 0 11.3497V1.212C0 0.8665 0.11575 0.57825 0.34725 0.34725C0.57875 0.11625 0.867 0.0005 1.212 0H12.2887C12.6337 0 12.922 0.11575 13.1535 0.34725C13.385 0.57875 13.5005 0.867 13.5 1.212V9.28875C13.5 9.63375 13.3845 9.922 13.1535 10.1535C12.9225 10.385 12.6342 10.5005 12.2887 10.5H2.30775Z" fill="#F2F2F2"/>
</svg>
