<svg width="18" height="16" viewBox="0 0 18 16" fill="none" xmlns="http://www.w3.org/2000/svg">
<path d="M4.21875 14.4364V2.32727H1.16016C0.832037 2.32727 0.556412 2.21818 0.333287 2C0.110162 1.78182 -0.000931615 1.50303 5.88389e-06 1.16364C0.000943383 0.824243 0.112037 0.545454 0.333287 0.327273C0.554537 0.109091 0.830162 0 1.16016 0H9.70312C10.0312 0 10.3008 0.109091 10.5117 0.327273C10.7227 0.545454 10.8281 0.824243 10.8281 1.16364C10.8281 1.50303 10.7227 1.78182 10.5117 2C10.3008 2.21818 10.0312 2.32727 9.70312 2.32727H6.60938V14.4364C6.60938 14.7758 6.49219 15.0608 6.25781 15.2916C6.02344 15.5224 5.74219 15.6373 5.41406 15.6364C5.08594 15.6354 4.80469 15.52 4.57032 15.2902C4.33594 15.0604 4.21875 14.7758 4.21875 14.4364ZM13.0078 6.61818H12.1289C11.8477 6.61818 11.6077 6.51491 11.4089 6.30836C11.2102 6.10182 11.1103 5.85358 11.1094 5.56364C11.1084 5.2737 11.2083 5.02545 11.4089 4.81891C11.6095 4.61236 11.8495 4.50909 12.1289 4.50909H13.0078V2.54545C13.0078 2.20606 13.1194 1.92145 13.3425 1.69164C13.5656 1.46182 13.8408 1.34642 14.168 1.34545C14.4952 1.34449 14.7708 1.45988 14.9948 1.69164C15.2189 1.92339 15.33 2.208 15.3281 2.54545V4.50909H16.9102C17.1914 4.50909 17.4319 4.61236 17.6316 4.81891C17.8312 5.02545 17.9306 5.2737 17.9297 5.56364C17.9287 5.85358 17.8289 6.1023 17.6301 6.30982C17.4314 6.51733 17.1914 6.62012 16.9102 6.61818H15.3281V12C15.3281 12.5576 15.4514 12.9939 15.698 13.3091C15.9445 13.6242 16.2783 13.7818 16.6992 13.7818H17.0156C17.2734 13.7576 17.5022 13.8482 17.7019 14.0538C17.9016 14.2594 18.0009 14.5081 18 14.8C18 15.1394 17.9123 15.4061 17.737 15.6C17.5617 15.7939 17.3212 15.9152 17.0156 15.9636C16.8984 15.9879 16.7812 16 16.6641 16H16.3125C15.2812 16 14.4727 15.6907 13.8867 15.072C13.3008 14.4533 13.0078 13.599 13.0078 12.5091V6.61818Z" fill="#F2F2F2"/>
</svg>
