<svg width="22" height="24" viewBox="0 0 22 24" fill="none" xmlns="http://www.w3.org/2000/svg">
<path fill-rule="evenodd" clip-rule="evenodd" d="M4.96774 6.0075C4.96774 5.21859 5.12377 4.4374 5.42692 3.70853C5.73007 2.97967 6.1744 2.31741 6.73455 1.75956C7.2947 1.20171 7.95969 0.759199 8.69155 0.457294C9.42342 0.155388 10.2078 0 11 0C11.7922 0 12.5766 0.155388 13.3084 0.457294C14.0403 0.759199 14.7053 1.20171 15.2655 1.75956C15.8256 2.31741 16.2699 2.97967 16.5731 3.70853C16.8762 4.4374 17.0323 5.21859 17.0323 6.0075C17.0323 7.60079 16.3967 9.12883 15.2655 10.2555C14.1342 11.3821 12.5999 12.015 11 12.015C9.40015 12.015 7.86582 11.3821 6.73455 10.2555C5.60328 9.12883 4.96774 7.60079 4.96774 6.0075ZM11 2.1203C9.9648 2.1203 8.972 2.52984 8.24 3.25883C7.50801 3.98783 7.09677 4.97655 7.09677 6.0075C7.09677 7.03846 7.50801 8.02718 8.24 8.75618C8.972 9.48517 9.9648 9.89471 11 9.89471C12.0352 9.89471 13.028 9.48517 13.76 8.75618C14.492 8.02718 14.9032 7.03846 14.9032 6.0075C14.9032 4.97655 14.492 3.98783 13.76 3.25883C13.028 2.52984 12.0352 2.1203 11 2.1203ZM5.32258 16.2556C4.4756 16.2556 3.66331 16.5907 3.0644 17.1871C2.46549 17.7836 2.12903 18.5925 2.12903 19.436V21.1153C2.12903 21.1408 2.14748 21.1634 2.17303 21.1676C8.01935 22.1175 13.9821 22.1175 19.827 21.1676C19.839 21.1649 19.8498 21.1583 19.8578 21.1488C19.8657 21.1394 19.8704 21.1276 19.871 21.1153V19.436C19.871 18.5925 19.5345 17.7836 18.9356 17.1871C18.3367 16.5907 17.5244 16.2556 16.6774 16.2556H16.1948C16.1569 16.2562 16.1192 16.262 16.0827 16.2726L14.855 16.6726C12.3501 17.4872 9.64993 17.4872 7.14503 16.6726L5.91587 16.2726C5.88034 16.2622 5.8436 16.2565 5.80658 16.2556H5.32258ZM0 19.436C0 18.0302 0.56077 16.6819 1.55895 15.6879C2.55713 14.6938 3.91094 14.1353 5.32258 14.1353H5.80516C6.07011 14.1362 6.32748 14.1768 6.57729 14.2569L7.80645 14.6569C9.88159 15.3316 12.1184 15.3316 14.1935 14.6569L15.4227 14.2569C15.6711 14.1763 15.9323 14.1353 16.1934 14.1353H16.6774C18.0891 14.1353 19.4429 14.6938 20.4411 15.6879C21.4392 16.6819 22 18.0302 22 19.436V21.1153C22 22.1811 21.225 23.0886 20.169 23.2596C14.0965 24.2468 7.90347 24.2468 1.83097 23.2596C1.32026 23.176 0.855938 22.9145 0.52065 22.5219C0.185362 22.1292 0.000864636 21.6308 0 21.1153V19.436Z" fill="#F2F2F2" fill-opacity="0.5"/>
</svg>
