<svg width="23" height="24" viewBox="0 0 23 24" fill="none" xmlns="http://www.w3.org/2000/svg">
<path d="M11.5 0C10.0242 0 8.60884 0.575397 7.56529 1.59961C6.52174 2.62382 5.93548 4.01296 5.93548 5.46141C5.93548 6.90987 6.52174 8.299 7.56529 9.32322C8.60884 10.3474 10.0242 10.9228 11.5 10.9228C12.9758 10.9228 14.3912 10.3474 15.4347 9.32322C16.4783 8.299 17.0645 6.90987 17.0645 5.46141C17.0645 4.01296 16.4783 2.62382 15.4347 1.59961C14.3912 0.575397 12.9758 0 11.5 0ZM5.56452 13.8356C4.08871 13.8356 2.67336 14.411 1.62981 15.4352C0.58626 16.4594 0 17.8485 0 19.297V21.0272C0 22.1253 0.810193 23.0603 1.91419 23.2365C8.26219 24.2545 14.7378 24.2545 21.0858 23.2365C21.6197 23.1503 22.1052 22.8809 22.4557 22.4763C22.8062 22.0718 22.9991 21.5582 23 21.0272V19.297C23 17.8485 22.4137 16.4594 21.3702 15.4352C20.3266 14.411 18.9113 13.8356 17.4355 13.8356H16.931C16.654 13.8366 16.3849 13.8783 16.1237 13.9608L14.8387 14.373C12.6692 15.0681 10.3308 15.0681 8.16129 14.373L6.87626 13.9608C6.6158 13.8788 6.34405 13.8366 6.07052 13.8356H5.56452Z" fill="#F2F2F2"/>
</svg>
